<mxfile host="app.diagrams.net" agent="Mozilla/5.0 (Windows NT 10.0; Win64; x64) AppleWebKit/537.36 (KHTML, like Gecko) Chrome/130.0.0.0 Safari/537.36" version="24.8.3">
  <diagram name="Page-1" id="b520641d-4fe3-3701-9064-5fc419738815">
    <mxGraphModel dx="1194" dy="736" grid="1" gridSize="10" guides="1" tooltips="1" connect="1" arrows="1" fold="1" page="1" pageScale="1" pageWidth="1600" pageHeight="900" background="none" math="0" shadow="0">
      <root>
        <mxCell id="0" />
        <mxCell id="1" style="" parent="0" />
        <mxCell id="8zym2SyQiBGokuH-IQ6u-71" value="" style="rounded=1;whiteSpace=wrap;html=1;fillColor=none;glass=0;dashed=1;dashPattern=1 2;strokeWidth=2;opacity=50;movable=0;resizable=0;rotatable=0;deletable=0;editable=0;locked=1;connectable=0;" vertex="1" parent="1">
          <mxGeometry x="40" y="60" width="520" height="780" as="geometry" />
        </mxCell>
        <mxCell id="8zym2SyQiBGokuH-IQ6u-72" value="" style="rounded=1;whiteSpace=wrap;html=1;fillColor=none;glass=0;dashed=1;dashPattern=1 2;strokeWidth=2;opacity=50;movable=0;resizable=0;rotatable=0;deletable=0;editable=0;locked=1;connectable=0;" vertex="1" parent="1">
          <mxGeometry x="600" y="60" width="560" height="780" as="geometry" />
        </mxCell>
        <mxCell id="8zym2SyQiBGokuH-IQ6u-73" value="" style="rounded=1;whiteSpace=wrap;html=1;fillColor=none;glass=0;dashed=1;dashPattern=1 2;strokeWidth=2;opacity=50;movable=0;resizable=0;rotatable=0;deletable=0;editable=0;locked=1;connectable=0;" vertex="1" parent="1">
          <mxGeometry x="1200" y="60" width="360" height="780" as="geometry" />
        </mxCell>
        <mxCell id="8zym2SyQiBGokuH-IQ6u-42" style="edgeStyle=orthogonalEdgeStyle;rounded=0;orthogonalLoop=1;jettySize=auto;html=1;exitX=1;exitY=0.5;exitDx=0;exitDy=0;entryX=0;entryY=0.5;entryDx=0;entryDy=0;fontSize=14;" edge="1" parent="1" source="21ea969265ad0168-6" target="8zym2SyQiBGokuH-IQ6u-32">
          <mxGeometry relative="1" as="geometry" />
        </mxCell>
        <mxCell id="21ea969265ad0168-6" value="df_transcripts" style="swimlane;html=1;fontStyle=0;childLayout=stackLayout;horizontal=1;startSize=26;fillColor=#e0e0e0;horizontalStack=0;resizeParent=1;resizeLast=0;collapsible=1;marginBottom=0;swimlaneFillColor=#ffffff;align=center;rounded=1;shadow=0;comic=0;labelBackgroundColor=none;strokeWidth=1;fontFamily=Verdana;fontSize=14;" parent="1" vertex="1">
          <mxGeometry x="320" y="120" width="160" height="80" as="geometry" />
        </mxCell>
        <mxCell id="21ea969265ad0168-8" value="1.787 entries" style="text;html=1;strokeColor=none;fillColor=none;spacingLeft=4;spacingRight=4;whiteSpace=wrap;overflow=hidden;rotatable=0;points=[[0,0.5],[1,0.5]];portConstraint=eastwest;rounded=1;align=center;fontSize=14;" parent="21ea969265ad0168-6" vertex="1">
          <mxGeometry y="26" width="160" height="26" as="geometry" />
        </mxCell>
        <mxCell id="8zym2SyQiBGokuH-IQ6u-9" value="df_comments" style="swimlane;html=1;fontStyle=0;childLayout=stackLayout;horizontal=1;startSize=26;fillColor=#e0e0e0;horizontalStack=0;resizeParent=1;resizeLast=0;collapsible=1;marginBottom=0;swimlaneFillColor=#ffffff;align=center;rounded=1;shadow=0;comic=0;labelBackgroundColor=none;strokeWidth=1;fontFamily=Verdana;fontSize=14;" vertex="1" parent="1">
          <mxGeometry x="320" y="360" width="160" height="80" as="geometry" />
        </mxCell>
        <mxCell id="8zym2SyQiBGokuH-IQ6u-10" value="185.382 entries" style="text;html=1;strokeColor=none;fillColor=none;spacingLeft=4;spacingRight=4;whiteSpace=wrap;overflow=hidden;rotatable=0;points=[[0,0.5],[1,0.5]];portConstraint=eastwest;rounded=1;align=center;fontSize=14;" vertex="1" parent="8zym2SyQiBGokuH-IQ6u-9">
          <mxGeometry y="26" width="160" height="26" as="geometry" />
        </mxCell>
        <mxCell id="8zym2SyQiBGokuH-IQ6u-11" value="df_videos" style="swimlane;html=1;fontStyle=0;childLayout=stackLayout;horizontal=1;startSize=26;fillColor=#e0e0e0;horizontalStack=0;resizeParent=1;resizeLast=0;collapsible=1;marginBottom=0;swimlaneFillColor=#ffffff;align=center;rounded=1;shadow=0;comic=0;labelBackgroundColor=none;strokeWidth=1;fontFamily=Verdana;fontSize=14;" vertex="1" parent="1">
          <mxGeometry x="320" y="540" width="160" height="80" as="geometry" />
        </mxCell>
        <mxCell id="8zym2SyQiBGokuH-IQ6u-12" value="2.711 entries" style="text;html=1;strokeColor=none;fillColor=none;spacingLeft=4;spacingRight=4;whiteSpace=wrap;overflow=hidden;rotatable=0;points=[[0,0.5],[1,0.5]];portConstraint=eastwest;rounded=1;align=center;fontSize=14;" vertex="1" parent="8zym2SyQiBGokuH-IQ6u-11">
          <mxGeometry y="26" width="160" height="26" as="geometry" />
        </mxCell>
        <mxCell id="8zym2SyQiBGokuH-IQ6u-18" style="edgeStyle=orthogonalEdgeStyle;rounded=0;orthogonalLoop=1;jettySize=auto;html=1;entryX=0;entryY=0.5;entryDx=0;entryDy=0;endArrow=block;endFill=1;curved=1;fontSize=14;" edge="1" parent="1" source="8zym2SyQiBGokuH-IQ6u-16" target="8zym2SyQiBGokuH-IQ6u-10">
          <mxGeometry relative="1" as="geometry" />
        </mxCell>
        <mxCell id="8zym2SyQiBGokuH-IQ6u-19" style="edgeStyle=entityRelationEdgeStyle;rounded=0;orthogonalLoop=1;jettySize=auto;html=1;entryX=0;entryY=0.5;entryDx=0;entryDy=0;curved=1;fontSize=14;" edge="1" parent="1" source="8zym2SyQiBGokuH-IQ6u-16" target="8zym2SyQiBGokuH-IQ6u-12">
          <mxGeometry relative="1" as="geometry">
            <Array as="points">
              <mxPoint x="250" y="550" />
            </Array>
          </mxGeometry>
        </mxCell>
        <mxCell id="8zym2SyQiBGokuH-IQ6u-22" style="edgeStyle=entityRelationEdgeStyle;rounded=0;orthogonalLoop=1;jettySize=auto;html=1;entryX=0;entryY=0.5;entryDx=0;entryDy=0;endArrow=block;endFill=1;curved=1;fontSize=14;" edge="1" parent="1" source="8zym2SyQiBGokuH-IQ6u-16" target="21ea969265ad0168-8">
          <mxGeometry relative="1" as="geometry" />
        </mxCell>
        <mxCell id="8zym2SyQiBGokuH-IQ6u-83" style="edgeStyle=entityRelationEdgeStyle;rounded=0;orthogonalLoop=1;jettySize=auto;html=1;entryX=0;entryY=0.5;entryDx=0;entryDy=0;curved=1;endArrow=block;endFill=1;fontSize=14;" edge="1" parent="1" source="8zym2SyQiBGokuH-IQ6u-16" target="8zym2SyQiBGokuH-IQ6u-82">
          <mxGeometry relative="1" as="geometry" />
        </mxCell>
        <mxCell id="8zym2SyQiBGokuH-IQ6u-16" value="" style="dashed=0;outlineConnect=0;html=1;align=center;labelPosition=center;verticalLabelPosition=bottom;verticalAlign=top;shape=mxgraph.weblogos.youtube;fillColor=#FF2626;gradientColor=#B5171F;labelBorderColor=default;fontSize=14;" vertex="1" parent="1">
          <mxGeometry x="90" y="377.55" width="102.49" height="42.9" as="geometry" />
        </mxCell>
        <mxCell id="8zym2SyQiBGokuH-IQ6u-26" style="edgeStyle=orthogonalEdgeStyle;rounded=0;orthogonalLoop=1;jettySize=auto;html=1;endArrow=block;endFill=1;dashed=1;fontSize=14;" edge="1" parent="1" source="8zym2SyQiBGokuH-IQ6u-25">
          <mxGeometry relative="1" as="geometry">
            <mxPoint x="141" y="430" as="targetPoint" />
          </mxGeometry>
        </mxCell>
        <mxCell id="8zym2SyQiBGokuH-IQ6u-25" value="&lt;div style=&quot;text-align: center; font-size: 14px;&quot;&gt;&lt;u style=&quot;background-color: initial; font-size: 14px;&quot;&gt;Queries:&lt;/u&gt;&lt;/div&gt;&lt;br style=&quot;font-size: 14px;&quot;&gt;&lt;div style=&quot;text-align: center; font-size: 14px;&quot;&gt;&lt;span style=&quot;background-color: initial; font-size: 14px;&quot;&gt;&quot;IA in business&quot;&lt;/span&gt;&lt;/div&gt;&lt;span style=&quot;background-color: initial; font-size: 14px;&quot;&gt;&lt;div style=&quot;text-align: center; font-size: 14px;&quot;&gt;&lt;span style=&quot;background-color: initial; font-size: 14px;&quot;&gt;&quot;Tech Automation&quot;&lt;/span&gt;&lt;/div&gt;&lt;/span&gt;&lt;div style=&quot;font-size: 14px;&quot;&gt;&lt;/div&gt;&lt;div style=&quot;text-align: center; font-size: 14px;&quot;&gt;&lt;span style=&quot;background-color: initial; font-size: 14px;&quot;&gt;&quot;Healthcare and IA&quot;&lt;/span&gt;&lt;/div&gt;&lt;div style=&quot;text-align: center; font-size: 14px;&quot;&gt;&lt;span style=&quot;background-color: initial; font-size: 14px;&quot;&gt;&quot;...&quot;&lt;/span&gt;&lt;/div&gt;" style="shape=callout;whiteSpace=wrap;html=1;perimeter=calloutPerimeter;rounded=1;align=left;fontSize=14;" vertex="1" parent="1">
          <mxGeometry x="81.24" y="540" width="120" height="150" as="geometry" />
        </mxCell>
        <mxCell id="8zym2SyQiBGokuH-IQ6u-46" style="rounded=0;orthogonalLoop=1;jettySize=auto;html=1;entryX=0;entryY=0;entryDx=0;entryDy=45;entryPerimeter=0;exitX=1;exitY=0.5;exitDx=0;exitDy=0;shape=link;fontSize=14;" edge="1" parent="1" source="8zym2SyQiBGokuH-IQ6u-32" target="8zym2SyQiBGokuH-IQ6u-49">
          <mxGeometry relative="1" as="geometry">
            <mxPoint x="1080" y="398.5" as="targetPoint" />
          </mxGeometry>
        </mxCell>
        <mxCell id="8zym2SyQiBGokuH-IQ6u-52" value="COSINE SIMILARITY MATRIX" style="edgeLabel;html=1;align=center;verticalAlign=middle;resizable=0;points=[];rotation=55;fontSize=14;" vertex="1" connectable="0" parent="8zym2SyQiBGokuH-IQ6u-46">
          <mxGeometry x="-0.1661" relative="1" as="geometry">
            <mxPoint x="18" y="4" as="offset" />
          </mxGeometry>
        </mxCell>
        <mxCell id="8zym2SyQiBGokuH-IQ6u-32" value="&lt;p style=&quot;margin: 4px 0px 0px; text-align: center; font-size: 14px;&quot;&gt;&lt;i style=&quot;font-size: 14px;&quot;&gt;TF-IDF Matrix&lt;/i&gt;&lt;/p&gt;&lt;hr style=&quot;border-style: solid; font-size: 14px;&quot;&gt;&lt;p style=&quot;margin: 0px 0px 0px 4px; font-size: 14px;&quot;&gt;+ Preprocess text&lt;/p&gt;&lt;p style=&quot;margin: 0px 0px 0px 4px; font-size: 14px;&quot;&gt;+ Wordcloud&lt;/p&gt;&lt;p style=&quot;margin: 0px 0px 0px 4px; font-size: 14px;&quot;&gt;+ Similarity Cosine Matrix&lt;/p&gt;&lt;p style=&quot;margin: 0px 0px 0px 4px; font-size: 14px;&quot;&gt;&lt;br style=&quot;font-size: 14px;&quot;&gt;&lt;/p&gt;" style="verticalAlign=top;align=left;overflow=fill;html=1;whiteSpace=wrap;fontSize=14;" vertex="1" parent="1">
          <mxGeometry x="641" y="107.5" width="190" height="105" as="geometry" />
        </mxCell>
        <mxCell id="8zym2SyQiBGokuH-IQ6u-40" value="&lt;p style=&quot;margin: 4px 0px 0px; text-align: center; font-size: 14px;&quot;&gt;&lt;i style=&quot;font-size: 14px;&quot;&gt;SENTIMENT ANALYSIS&lt;/i&gt;&lt;/p&gt;&lt;hr style=&quot;border-style: solid; font-size: 14px;&quot;&gt;&lt;p style=&quot;margin: 0px 0px 0px 4px; font-size: 14px;&quot;&gt;+ Preprocess text&lt;/p&gt;&lt;p style=&quot;margin: 0px 0px 0px 4px; font-size: 14px;&quot;&gt;+ PySpark&lt;/p&gt;&lt;p style=&quot;margin: 0px 0px 0px 4px; font-size: 14px;&quot;&gt;+ RoBERTa (Huggingface)&lt;/p&gt;&lt;p style=&quot;margin: 0px 0px 0px 4px; font-size: 14px;&quot;&gt;&lt;br style=&quot;font-size: 14px;&quot;&gt;&lt;/p&gt;" style="verticalAlign=top;align=left;overflow=fill;html=1;whiteSpace=wrap;fontSize=14;" vertex="1" parent="1">
          <mxGeometry x="641" y="346" width="190" height="104" as="geometry" />
        </mxCell>
        <mxCell id="8zym2SyQiBGokuH-IQ6u-47" style="rounded=0;orthogonalLoop=1;jettySize=auto;html=1;shape=link;exitX=1;exitY=0.5;exitDx=0;exitDy=0;entryX=0;entryY=0;entryDx=0;entryDy=45;entryPerimeter=0;fontSize=14;" edge="1" parent="1" source="8zym2SyQiBGokuH-IQ6u-41" target="8zym2SyQiBGokuH-IQ6u-49">
          <mxGeometry relative="1" as="geometry">
            <mxPoint x="1080" y="398.5" as="targetPoint" />
          </mxGeometry>
        </mxCell>
        <mxCell id="8zym2SyQiBGokuH-IQ6u-50" value="CLUSTERING CLASSIFICATION" style="edgeLabel;html=1;align=center;verticalAlign=middle;resizable=0;points=[];rotation=-55;fontSize=14;" vertex="1" connectable="0" parent="8zym2SyQiBGokuH-IQ6u-47">
          <mxGeometry x="0.0471" relative="1" as="geometry">
            <mxPoint x="-12" y="-5" as="offset" />
          </mxGeometry>
        </mxCell>
        <mxCell id="8zym2SyQiBGokuH-IQ6u-41" value="&lt;p style=&quot;margin: 4px 0px 0px; text-align: center; font-size: 14px;&quot;&gt;&lt;i style=&quot;font-size: 14px;&quot;&gt;CLUSTERING&lt;/i&gt;&lt;/p&gt;&lt;hr style=&quot;border-style: solid; font-size: 14px;&quot;&gt;&lt;p style=&quot;margin: 0px 0px 0px 4px; font-size: 14px;&quot;&gt;+ Kmeans: elbow method&lt;/p&gt;&lt;p style=&quot;margin: 0px 0px 0px 4px; font-size: 14px;&quot;&gt;+ DBScan: k-distance&lt;/p&gt;&lt;p style=&quot;margin: 0px 0px 0px 4px; font-size: 14px;&quot;&gt;&lt;br style=&quot;font-size: 14px;&quot;&gt;&lt;/p&gt;" style="verticalAlign=top;align=left;overflow=fill;html=1;whiteSpace=wrap;fontSize=14;" vertex="1" parent="1">
          <mxGeometry x="641" y="595" width="190" height="85" as="geometry" />
        </mxCell>
        <mxCell id="8zym2SyQiBGokuH-IQ6u-43" style="edgeStyle=orthogonalEdgeStyle;rounded=0;orthogonalLoop=1;jettySize=auto;html=1;exitX=1;exitY=0.5;exitDx=0;exitDy=0;entryX=0;entryY=0.5;entryDx=0;entryDy=0;fontSize=14;" edge="1" parent="1" source="8zym2SyQiBGokuH-IQ6u-10" target="8zym2SyQiBGokuH-IQ6u-40">
          <mxGeometry relative="1" as="geometry" />
        </mxCell>
        <mxCell id="8zym2SyQiBGokuH-IQ6u-44" style="edgeStyle=orthogonalEdgeStyle;rounded=0;orthogonalLoop=1;jettySize=auto;html=1;exitX=1;exitY=0.5;exitDx=0;exitDy=0;entryX=0;entryY=0.5;entryDx=0;entryDy=0;fontSize=14;" edge="1" parent="1" source="8zym2SyQiBGokuH-IQ6u-12" target="8zym2SyQiBGokuH-IQ6u-41">
          <mxGeometry relative="1" as="geometry">
            <Array as="points">
              <mxPoint x="520" y="579" />
              <mxPoint x="520" y="640" />
            </Array>
          </mxGeometry>
        </mxCell>
        <mxCell id="8zym2SyQiBGokuH-IQ6u-48" style="rounded=0;orthogonalLoop=1;jettySize=auto;html=1;shape=link;entryX=0;entryY=0;entryDx=0;entryDy=45;entryPerimeter=0;fontSize=14;" edge="1" parent="1" source="8zym2SyQiBGokuH-IQ6u-40" target="8zym2SyQiBGokuH-IQ6u-49">
          <mxGeometry relative="1" as="geometry">
            <mxPoint x="1080" y="398.5" as="targetPoint" />
          </mxGeometry>
        </mxCell>
        <mxCell id="8zym2SyQiBGokuH-IQ6u-51" value="SENTIMENT SCORE" style="edgeLabel;html=1;align=center;verticalAlign=middle;resizable=0;points=[];fontSize=14;" vertex="1" connectable="0" parent="8zym2SyQiBGokuH-IQ6u-48">
          <mxGeometry x="-0.2416" y="3" relative="1" as="geometry">
            <mxPoint x="9" y="-10" as="offset" />
          </mxGeometry>
        </mxCell>
        <mxCell id="8zym2SyQiBGokuH-IQ6u-57" style="edgeStyle=orthogonalEdgeStyle;rounded=0;orthogonalLoop=1;jettySize=auto;html=1;exitX=0;exitY=0;exitDx=130;exitDy=45;exitPerimeter=0;entryX=-0.052;entryY=0.515;entryDx=0;entryDy=0;entryPerimeter=0;fontSize=14;" edge="1" parent="1" source="8zym2SyQiBGokuH-IQ6u-49" target="8zym2SyQiBGokuH-IQ6u-63">
          <mxGeometry relative="1" as="geometry">
            <mxPoint x="1199.09667" y="399.8353999999998" as="targetPoint" />
          </mxGeometry>
        </mxCell>
        <mxCell id="8zym2SyQiBGokuH-IQ6u-49" value="ML MODEL" style="shape=folder;fontStyle=1;spacingTop=10;tabWidth=40;tabHeight=14;tabPosition=left;html=1;whiteSpace=wrap;fontSize=14;" vertex="1" parent="1">
          <mxGeometry x="1001" y="355" width="130" height="76" as="geometry" />
        </mxCell>
        <mxCell id="8zym2SyQiBGokuH-IQ6u-66" style="edgeStyle=orthogonalEdgeStyle;rounded=0;orthogonalLoop=1;jettySize=auto;html=1;entryX=0;entryY=0.5;entryDx=0;entryDy=0;" edge="1" parent="1" target="8zym2SyQiBGokuH-IQ6u-67">
          <mxGeometry relative="1" as="geometry">
            <mxPoint x="1358" y="400" as="sourcePoint" />
            <mxPoint x="1398" y="399" as="targetPoint" />
          </mxGeometry>
        </mxCell>
        <mxCell id="8zym2SyQiBGokuH-IQ6u-63" value="DOCKER" style="shape=image;html=1;verticalAlign=bottom;verticalLabelPosition=top;labelBackgroundColor=#ffffff;imageAspect=0;aspect=fixed;image=https://cdn1.iconfinder.com/data/icons/social-media-2106/24/social_media_social_media_logo_docker-128.png;horizontal=1;labelPosition=center;align=center;fontSize=14;" vertex="1" parent="1">
          <mxGeometry x="1252" y="349" width="100" height="100" as="geometry" />
        </mxCell>
        <mxCell id="8zym2SyQiBGokuH-IQ6u-67" value="GOOGLE CLOUD" style="shape=image;verticalLabelPosition=top;verticalAlign=bottom;imageAspect=0;aspect=fixed;image=data:image/png,iVBORw0KGgoAAAANSUhEUgAABAAAAAM3CAYAAACjxSIYAAAABGdBTUEAALGPC/xhBQAAACBjSFJNAAB6JgAAgIQAAPoAAACA6AAAdTAAAOpgAAA6mAAAF3CculE8AAAAB3RJTUUH5QQbCBwPgB5HuwAAAAZiS0dEAAAAAAAA+UO7fwAAmExJREFUeNrsnQmcG3X5/3c3Se8DCvTA0oNylXO7mVERhZnvLFAol6gIgqB4/1VA7h8IVjbT+lNRTi8UERFQ8EAoQjdLPQARueS+QZEjM9mmbSZ7JNnO/5ls4Af02iPZzfF+v17vV5aKut1Nnu/z+c7M821oAAAAgLKTMpqbXFOf4CptkriNuF1gwtLmOJY2z7H0+eJu4u6upe0j/9kRrtJPelP58/+VP7vibV4p/91V8t+9f+Pqr4r+oFSau+n/vXd4j6P069/8Xvq/t7d9r0r/UPD3KLpb/98t+DuKSt+++HffVv7dycHPJPjZ8A4BAAAAAACAqgj3nWZ0ioTZINjuJO4uYToqgfcAeV0sAfgjYhCMvyGvy+TPfy7/zm/kNfAB8XH582fFzKBDe+Wb6f+7BX9HUenx/r+7fp347eLP5KTCz6jwsyr8zKLBz7Dws5SfafCzZZMAAAAAAAAARgzHCAK+vpOE1Q9IUD1M/KSE1TPlny8SrxR/Lq4QV4n/FF8Sk2JfDQb7UttX/Fm9VPzZrSr+LH9e/NkGP+Pz5Wd+knisq7QDk6a2p2vq7+GdCQAAAAAAAIMmZTRPlGAZhPyDJNwfn7C0c+X1Evnn68U7xL+K/xJfEN8QewjvI2ZedIqPNzwt/l2MF3438jsq/q6Od6zoh1xTny+/yzG8owEAAAAAAKBBQuJsCfv7u0r7vITHKxxL+6OEyaeK4f410RXXib3iegJ4xbq++DtaV/ydvSI+Lz7R/zstPHLx/+SfP5w0owtTRvME3v0AAAAAAAA1gGPoYUdFJwfD5iT8zZfXvVylHyavMUdpv5A/e0jC4OpicCTY199mwfriPIJgFsH5wXtD3hd7BEMKC+8Zee8E7yE+SQAAAAAAABVEcJt30tSmSXDbTQLd+yXQHSqvn5cw9x3x1+Jz3KaPAzC4e+CZ4nvmO/3vocJ76f3Beyt4j/FIAQAAAAAAwAgHftfU5zhKa01Y2mec4Kq+pf9EbBeDafprCLNYItcU31PthfdY4b2mfdFV2kFJU9uZDQEAAAAAAIASImG/yVX6Iglgn0go3ZbXG8SO4rP6TNjHkT6pYE1xAGEwDPKG4nvyE8F7NHiv8okFAAAAAAAYIIVb+lXLPo7SviLB6hrxYfHl4vT3LgI/VtiGQFfxvRm8Rx9yLO1yV2kndZotu3OHAAAAAAAAQEPhyv4ECUozJDDt6Ch9fwlP5yQs7Q4J/mmG82EtDBpMKD0h7+k/ydfnyXv8IHmvL5D396ykqU1KGc3cLQAAAAAAALWHhJ2GTrMlCPzzJATpEoiOkED0dfn6VvHf8s9ZQiPWga/K+73dVfpyef1Y8FmQz8QOrqlHqBIAAAAAAFDNoT+UNKOzHKUFV/c/J14s/l58pHjbNIEQ69mu4mchOIrQTljaMfK6t2Pok6keAAAAAABQFUiACc5SP9GxtEsl0KwUHxM7CXyIm/UV8T5H6b9NWMFpA9Elq81F06koAAAAAABQMbxjaJ/SbpMQ86zoij2EOsQhzQ/IiK+JTyaU/pvgsxV8xhgqCAAAAAAAIxX0G5IqOi5hadMlkMx3VPAcv/YzCSkvFqehM7QPsXybAn2Fz5rSfiqfvQPldZ6r9GlJUwtRnQAAAAAAoCRIwJgqYWNhQumLXUs7q/85fu0/8ponmCGOinlH6S+IV8vXJyUs7f2OFZ0ZzN2gYgEAAAAAwGBDf8g1tWYneJZfFZ7l7xCTBC/EivQJx9J+Ka/niocmVXRWymhupJIBAAAAAMBGkcAQdq3owoSlBRP7fyX+Q0wUbz0mZCFWvsHcjefEOxNKv8RR2lGuqc+kugEAAAAAQIFOc9HWjhUNpvbfLMHhheLEfp7nR6z+zYDXC6dwKO1q19Q+nDS1CBUPAAAAAKBOWG0uGiOBYDtXaXu7lvZF+frPYi9D/BDrYIig0hxH6VfJ5/9w+XqOa2pTk6bGowIAAAAAALVC4dZ+pc1KKP0Aef2SBIHf8jw/Yl2bdZT+uKv0Kx2lHSlf7xUM+6RaAgAAAABUKZ3moomOFf2AY2lfk4b/OvFlrvIj4rv0xLsdpV/qKO04x9QWOIbeRAUFAAAAAKgCkqY2R5r546Wp/7X4iLiOkIOIWzB4DOg1cZW4TPxgymieREUFAAAAAKgwHEMPO6a2n6O0H0jj/rjocLUfEYdol/jvwmkClvb/kqplDscKAgAAAACMAtKIN0hDPsaxtOlJFY26SrsgoQrT+/OEfkQs+Z0BSlvnKP0mqTlHyOvspBmdyIYAAAAAAECZSZraNglL21ca8f8njfkfub0fEUd4eOBDrtIukhrU6pra9lRlAAAAAIASkjKam5IqOlca7+PEH0oT/iRBBBFH2WCo6K8SSv+01Kc9pE6NpVoDAAAAAAwDt1XbS0L//0ijHS8O6MoTPBCxQlxfPFL0HsfSLnaV1po0tQiVGwAAAABggKSM5jHSUO+XUPo18voct/kjYhXYLb7iKO3P4klSx7aimgMAAAAAbBj4Gx0rOlGa553E08QHGeiHiFVsvv8RAa1NXhdJfZsaPMpEtQcAAACAuqX/6D59jqO0xdIox6RRfp7ggIg1Zkrq2w9cpR3uqujclNEcpvoDAAAAQH2FfyvaXLza/9vis/19BAVErOFZAa74O8fSviLu5bZqIVYCAAAAAKhZUkZzRBrg5oTSl8rr38U0wQAR6++OAP1eqYOXOFZ0H1YGAAAAAKi14B9KmtGoo7QfSeP7tOgRAhCxzu0Rn5W6eHVSRXUeDQAAAACAqiU4CsuxtO0cpSsxuM0/x1A/RMSNPh6QdpT2x6SKHiz1cptgPgqrCAAAAABUPI4VDUnwXyhN7MnyukIa2wwNPiLigMxJ7bxZPEHq585uqzaGVQUAAAAAKo7g+X5XaYscpZ0lTexdYhfNPCLikFwn3ime7ljRRawwAAAAAFApwX+MBP99pVG9RPxH8blWGnhExOEbDEr9e0LpFzhWdGdWHAAAAAAYNTrNlp0cpQeD/V4i+CMils1gcOrDCaWd71jR6aw+AAAAAFB2UkZzo6u0yUkV3UeC/2XF2/z7aM4REUfEfELprzmWdr68znas6DhWJgAAAAAoOZ1myxQJ/Yb4XWlCX6URR0QcvZMDEkp/0rG0MxJK24eNAAAAAAAoCSmjebyE/v2l4fy++ByNNyJixdgbzF5JKP3rjhVtYcUCAAAAgKEG/zeH+10uPsat/oiIFWu3eF9xWOAurGAAAAAAMGA6zZadGe6HiFiVpwY8LJ7itmpTWc0AAAAAYAOKw/0mMdwPEbE2hgU6lvao+BlxhtuqjWGlAwAAAICGpBmdIOH/gOJwv9donBERa8Y+x9L+LK+fclR0TspoDrHqAQAAANQh0ghGJPgvcpT2TYb7ISLWtCnH0m6Wen9s0mzh0QAAAACAesKxorOlETxPmsJ7ecYfEbFu/I/U/mtdpRmshAAAAAA1jtuqjZUG8LhgWrS4NjhLmoYYEbGuzAV3fSWUfrFjRRewMgIAAADUECmjuclV2lQJ/4c6lnZPsfkj+CMi1v18AP15WRfOkdcdmA8AAAAAUN3Bv9FV0a0k/B/oKP2q4hV/ml5ERHy3f5G14uPi9sGmMSsoAAAAQHWF/zHSyClHad+Xxu4lmltERNyCa4P5AOJRjhWdzEoKAAAAUAUkrei8hNKXSjP3WPF2fxpbREQc6GMBLziW9n3H1BeyogIAAABUKCmjeZxrRT8mzdvfxDSNLCIiDtEu8UlHaScGawsrLAAAAECFkLSi412lvU+atZvFLAP+EBGxRPY4SutwLE2JU9xWrZFVFwAAAGAUSBnNYWnIdnMt7ayE0t+gUUVExDL5uniFo/T3B2sPKzAAAADAyAX/xqSKznCVdpJjaXcVrtDQnCIiYvl9xFHalxwrOpvVGAAAAGAEcC1tf0fpv5JG7DWaUUREHGFTjqXd6FpRKzhxhlUZAAAAoAxIo7WVNF3BdP8Xi8/604giIuJomHWU9qyrtIvEKazQAAAAACUgaUWD2/23kwbruMKtl5aep/FERMQKMViTHnFbtUMcpU0OHlFj5QYAAAAYAsHRS8XJy9dLg9VLo4mIiBXqGkdp33NVNJq0omNZwQEAAAAGgTRT812lfU1eX6KxRETE6rgbQPuH+CVXRbdmJQcAAADYAsFAJdeKtkojdXPhigoNJSIiVpeOo7RfJq3oQlZ1AAAAgE0gTdNkaZrOCwYrMeQPERGr2Jz4QMLSTuSkAAAAAIC34SptgmPq+zuWdk+xaaJ5RETEane9mHGUdq1raXu7KhphxQcAAIC6xTH0sKP0naRBCo72W02ziIiINerTjtI+nbSi27D6AwAAQN3hKm28hP+PSVN0h9hFc4iIiDWurHXapQlLe2/KaA7TCQAAAEB9hP9Wbb40Qt8RX6QhRETEOrLXsbT7XKV9NmlFt6IjAAAAgJolGITkKO0IaYDu5qo/IiLW8WyA4KSAy5Jmy3voDgAAAKCmcJXW5Ch9fkLp35OmJ1VsfmgCERGxns2L/3JM/UPBMFy6BQAAAKh6UkbzOMfSDpYm5y80e4iIiBu4WtbJC10rOlfWzBCdAwAAAFQlSSs601XRU6S5eZkGDxERcZOmHUu7WdZMU9ZOjgsEAACA6iG4guEoXZeG5mqO90NERBzwIwGPyPp5anD3HN0EAAAAVDxuqzZOGpgTpIF5SF57aOgQEREHZWdC6T92DH0WXQUAAABUJIWr/pa+nau0H/Ufc8SgP0RExGHcDfBP8WDHio6TNZZGAwAAACoDR+mTXRU9UBqVe2naEBERS+Z/HKWd7pj6DLoNAAAAGFVSRnOjY0XnSINyvvic2EezhoiIWOIBgUq/Sl4X0nkAAADAqOFY2vsTSv+NNCUpGjRERMSyGTxWd0fC0g5NGc2cEgAAAAAji6u0o6UZeVbM0pghIiKOyFyAZxJK/7Jj6JPoRAAAAKCsSMPR5Jra9ISlfVOakCTNGCIi4ojfCRAM2r1WXJAympvoTgAAAKD04V/pYVEXb5Smo5smDBERcVS921XafimjeQxdCgAAAJSMoLmQ4H9M0GzQcCEiIlaMj7oqelLSik6jWwEAAIBShP/J0mCcLr5Eo4WIiFhxjwT817W0mKu0WXQtAAAAMGSSVnSuo7Qred4fERGxol2bsLTrXRWdR/cCAAAAgwv+KhqR4G9IQ3GPmKOxQkRErIpTAv7lmPq+SSvKXAAAAADYMo6hT5Tw/1lpIl6mmUJERKwylfaya2mfkddt6WoAAABg0+Hf0uc7Sr+AKf+IiIhVrSPreZurtNkpo7mRDgcAAADeQpqDUOGIP0v/ldhF44SIiFj1BvN7fpFU0Tl0OgAAAPBm+A+7SjtYmoS/iz00TIiIiDVjj6O0ex1Dn0vHAwAAUOc4Sh/vmNqJ0hx0Fo8SollCRESstaMClfaorPmHu0obS/cDAABQh0gTMFOagfOlKcjQHCEiIta8L8u6/wVZ/6cxFwAAAKBOkEW/SRqAXaURuExM0xAhIiLWjf8VlyVVdAYdEQAAQB2Ef1dpUVn8f0/4R0RErEvXOUq73jH0mXRGAAAANYos9A2OqR0gi/4jsvhnaYAQERHr1rz0Aze7rdp8OiQAAIBaC/+WPs61tA/LYu8w7A8RERELmwDBCUBK/6C8humWAAAAaiH8K326LOxniKtpdhAREfFd/lM8SvoFTggAAACoVoIJv66l7SSL+uViJw0OIiIibsLnHKWfIL3DGDooAACAarvqX3jeX18ki/nvZFHvorFBRETELR4TaOmnpYxm7gQAAACosg2AeY7SHmTYHyIiIg7C18XzpI/Yhm4KAACg0oO/0iPiEgn/jzLsDxEREQdrwnpv5tnFB1/xk099f3ujLd1IdwUAAFCJ4d/SJ4jHiM/QwCAiIuKgw3/r+/yHjviof94pt/Uc2LbmamV7u4s0WQAAABV25X+SLNxfEp+igUFERMSh+MjhR0v4v9U/MLbGl+AfuELciU4LAACgcsJ/o3iWLNyv0bwgIiLiUHz2kIP9s067U8L/2jfD/5vebNjeXnRcAAAAo0zKaB7nWNo3OOYPERERhxP+zz/lj37rhuE/MCt2iPvTeQEAAIxO8G9Mqug2smhfJqZpXhAREXEIA//8xw470j/n1Nv9A9vWbCz8v2mf+KCozFh32Fjq04wBAACMBI6hN7lmdFfH0q6SxdujgUFERMShDvz7n1NXbOrK/8Z82oxlPmF8c32YjgwAAKD84b/BMfWFjtJuksU7RwODiIiIJRr4N1ATZixzjLHUj9CZAQAAlHMDQOktEv7/SPhHRETEMgz8G6gvmLb3RcP2ptKdAQAAlCv8W/rdYp7mBREREcsw8G+grhdfM2Ppswzbm0yXBgAAULrgHxL3k0X7PrGP5gURERHLOPBvMK41Y+lzgzsBRJo2AACAYYb/iGjKwn0vzQsiIiKO4MC/gdptxtIXGLY3ic4NAABg6OG/UTSKt/3TwCAiIuJID/wbqD1mLH2GYXtT6OAAAACGtgEQlUX7nzQuiIiIOIoD/waq++bjAHRxAAAAgwv/LVz5R0RExOEP/Lu1HLf9b2owYMKMpc9mMCAAAMDAgn9EFuxW8QEG/iEiImIFDfwb8EwA8UfiexSDAQEAADYZ/seJJ8jC/QLNCyIiIlbgwL/B+HNxBh0eAADAhuE/GPj3SVm4n6N5QURExAoe+DcYLxdn0+kBAAC8cwPgI7Jov0TjgoiIiEP1mUMWj9TAv4GaEa8Q59DtAQAA/F/4f5rGBREREYcz8O+8kRv4NxjTxU2A7en6AACgnoN/RDyueNv/epoXREREHNrAvyP8c0+93T+obU2lhf837RV/LM4ylmVoAgEAoO7CPwP/EBERcfgD/w6viIF/A9K0vcs4IhAAAOot/AcD/w5m4B8iIiIOb+DfRypp4N9A7DFj6TMN25tCRwgAAPWyAaDJon0/jQsiIiLW0MC/gZo0Y+lzDdubSlcIAAC1Hv5bZNG+h8YFERERa3Dg30BcLybMWPpsHgcAAIDaDP6G3uRa0WZZtP8m9tG8ICIi4lAG/j2+pOIH/g1Ux7QznzIuyo41lvo0iwAAUDvh3zG1PRyl/U4W7xwNDCIiIg514N+5VTLwb4C+YcYyJxrfzEfoGAEAoBbCf6Nj6gsl/N9E+EdERMQ6Gvg3UBOmnfm4sdRnEwAAAKqbTnPRJAn/txD+ERERcXgD/+6oxfD/ps+bduY4OkcAAKhaUkbzOFm0vyfmaV4QERGxDgf+DdQ+8UHxADpIAACotuDfmFTRrWXRvkz0aF4QERGxzgf+DXQT4J+iIYboKAEAoCpwVHTb4pV/wj8iIiIy8G9w/kt8n9hIVwkAABUe/vXJsnCfLSZoYBAREZGBf0PyNnEXOksAAKjk8B8Sz5KF+zWaF0RERBzSwL9DD/HPru2BfwPSjKWvMWxvWzpMAACoSFylHS4Ld5LmBREREYc28G9xPQz8G6hpM5a+xLC9begyAQCgcq78G3qTo/TFsnC/TPOCiIiIDPwrmZ2mnTnHbOudZCz1aToBAGDUw3/YMbX3y+L9MA0MIiIiMvCv5K427cxpKtY9gc4TAABGjeC4P0fpe4t3yAKep4lBRETEwfowA/8G4nPiCWITHSgAAIzO1X9LnyXeIHbRwCAiIuJgfZqBf4PxJRXzPkQHCgAAIx/+lR4WL5HFu5sGBhERERn4NyLeJ7bQiQIAwEiG/0hCaWfI4t1DA4OIiIgM/Bsx+8SVhu3NFxvpSgEAoLzh39DHOEo/WRbwFE0MIiIiMvBvxM2ZsfRvTDuzo7HUZxMAAADKFv7HOqZ2uCzgz9DEICIiIgP/Rs11Zsz7jhnLTKNDBQCAkpMymptcpe0ri/e9Yh9NDCIiIjLwb3SPBxRPE0N0qgAAUNqr/5Y2R7xdFvBemhhERERk4F9F+IZo0akCAEDpwr/SJ4rXygKeo4lBRETEwQ38O5yBf+X1GcP2FjIPAAAAhh/+DX2chP9zaWIQERFxML7x1sC/27nyX+aTAcyY12HGuhewCQAAAEMmZTSHE6Z+jKO012hkEBERkYF/FWu3+FMVy7yHDhYAAIZ29d/SDpAF/EGG/iEiIiID/yrepHiuinmT6WIBAGBw4V/pe8oC/icxSyODiIiIgxv4dxu3/Y/SUEDTzhxvLMs00c0CAMCWg7+hB+F/hizgP2HoHyIiIg5m4N8ThYF/Kxj4N4qasfQbhu29j3kAAACwRZJmy1hH6d+gkUFERMTBDPx7mIF/lbMJYHt/N9u6FtLZAgDA5u8AsLRjZSHvpplBREREBv5VrVnxRmWnZ9PdAgDAxsO/0j8gi/jTNDKIiIg48IF/hzLwrzJNiRcYbekpdLkAAPAOklZ0nizit/DcPyIiIjLwr2Z8xYx5RxpLfYYCAgBAP51my1aO0i6WhbyLZgYREREHN/AvRdCuXNebtveU2Cxf0/QCANQ7jtLHykL+BXE1DQ0iIiIy8K8mjZvLMjPofAEA6jv8N4kHyWL+JA0NIiIiMvCvpk8GiBnLu8fTAQMA1OsGgKHPcZT2V5oZREREHIhPMfCvmnVM2/skHTAAQB2SMprHyUL+AzFPQ4OIiIhb8plDFvv/w8C/arZPfEg8gE4YAKCervwrPSyewnP/iIiIyMC/ujIv3iLuYtheI10xAECth3+jEP4PkwX9OZoaREREZOBf3dlr2t4lRqxrO2OpT3MMAFCrpIzmRgn/e4t3cOs/IiIibt73MvCvdu1UduZLKpYJ0SEDANTq1X+lbyML+iViF00NIiIibnng358I/7Xri+J76ZABAGoQt1VrksX8Y2InTQ0iIiIy8A/NWHqFsbx7azplAIBa2wBQ0bmO0l6lqUFEREQG/mFRz4x5Fyk7HaFbBgComfCvbZOwtD/Q2CAiIiID//BdvqLs9PGG7YXpmgEAqpyU0TzWVdq5srB7NDeIiIjIwD/ciH827UyzsdTnaEAAgKq++m9pi2Vhf1JcT3ODiIiIDPzDjR0NKP5Q2Zlt6Z4BAKqUhNJ2kkX992KO5gYREREZ+IebMWXa3knGMo4GBACoKlJGc3Dlf6os6svEXpobRERE3PjAv8MY+IdvPxXgNbOtZy7dNABAFeGoaMhR2vGyuK+hwUFERMRNDfw7h4F/uMEmgLdSxbxpdNQAAFWCa0WDW/+focFBRETEjV35Z+AfbsaMeKFhexPoqgEAKpyU0TzGUdpVNDiIiIi48YF/S/xzGPiHm/cF084caSz1mQcAAFDJJCztRFncO2lwEBERcaMD/05l4B9u0Zx4u7g73TUAQGVe+W9IWtG9ZHG/jyP/EBERkYF/OEyzpu0tM9q8qcZSn2YbAKCScFR0W0dpP+PIP0SsM4OTTtYWh56+If7nbb4gPr4Z/yXeU9w4fWQL/+7z7/rfXl38/w3s4feADPzDGnWNGct8zIx1N9FtAwBUCEkrOtaxtM/IIp+g0UHEGnJtMWw/Jj4o3iHeJv5OvFq8KqG07zhKO0v8WsLSTpB/PuJtmm6rtuumdEx9bmP/HVRjpI7usNl/V+kfevv/tvz/nVL8/z1Lvo/lwfciXlP8/m4X7y5+z08VNya6+X3i6A38+ygD/3A43m/a3iw6bgCACiC49d9V0T0dS7ufRgcRq/QK/sviQ+IfxZ+5lvYteT1DgvanJGAfJV8fIF/vK3VuvoTx2eJ2UvtCFViPxxS/v7nyfe/d/z3rrfL1x+XrL8jX/yN+T/yluLL/rgMt2LjN8z7AcvkkA/+wFEcD2t436LoBACqAhKWNFX9GA4mIVeDrUq/uk9D7E/n6a47SPy5fWxKQ3yd/HgTmefLn0ztVyyQJ0401uGEbTlrRqfL3niV/1+C41n3k77+feJh8HdxR8CPxFvF57hhABv5hhflvZacVnTcAwOg2k42uFT2K508RsQLsK17N7xLTEmrfkCD7Fwm735V/PlnU5euZEvS3lfA72bW0MY6hc7zUm7W8VRvjKm2S/Gy2EmfIz+s98mcHy88s2CgJHi14QlwnZoo/5z7ec7i52/6fXHKYhH8G/mHJ7BPbDdubTdUGABglHBXdWRrsF2h2EHGUAn9KfCkYppcIrlxb+jny+uGkFZ0TXO2mSpe45hv6TEfplnim1P7r5Of9T/HZ4oyBXt6T+M6Bf3/iyj+WWs+0PVvZ6YlUZACAEcZt1aY4lnYVTR8ijqDrilei/yT+ILg67SrN6lQtsyvxmfw62BCYIj//98rvIhh+GNxp8QcxmAfzX06EYeAfz/xjmXxePMqwPTZ5AQBGiqDRlsb72OJ0bJoeRCzngL4nxRvFi4Jb+YuT9edSiStuXWhKmtEZsjYEj1ocLb+rM8VfiA8UT1Pg/VwvA/9OZeAfln0g4O3iHCovAMAIIQ34LrLQ38ozoIhYBnskQN4nxhxLOyJhaVFXabMdQx9H9a2qDYFg4GDwyMBe8vtbIq/ny+9ypfxOPd7jtTzwbwW3/eNI2K1i3pkidwEAAJQbx9QnSiP3dW79R8QSmC9Om08Wzq7vv6V/F3ndNmFqEyT0N1F1a+PuAPm9jktY2jTH0uYV7iBT+vXyO3+lOLSRxwUY+Ic4uLsAYuk3zGWZPaiwAABlRBq4RmnezOKZ2TQ+iDgUg8D378IAOaVfmVDaYRL0t6bC1uXGwDh5D+yfsLTvy/vh4eL7IjhlYD2fEwb+IW55E8Brl9epVFMAgDKRNKNTHKXdTtODiIN0fXFavNQPzZbQd0in2ULTBm9uBDR2qpbtXEtbLO+PbxYfMXu+uFnE54eBf4ibMm3GvFONpT5DYAEAyoEs+J/k1n9EHISvi7eJFyaswpnyOzCtH7a42WxFZ8t75hBHaWfJ6x/F15g5U4ED/5YcxsA/HG3XmzHvQTOW0amcAAAlxm3V5suC/yhNDyJuwT4J+g+5lnZh4ZEhpc/vNFvGUkVhCBsBY+R9JGuPtp+8ry5IWNr9fL4Y+If4LnvEy4229DSqJgBAiUgoLZxQ+g9l0c/S+CDiBoG/f5DfCxL2L0uq6P7yOt1V2vjg1m4qKJQCeU+NdyxthryvgvdXsB79t3BiBHcGjMLAvyUM/MNKM2Ha3keVnWbNAQAYLsHtuo7SPlGc1kwDhIhvmimEfku7WULZkVIrJlIxYQTXpqkJpX1U/IO8D19iXgAD/7Du/au4m7G8mwIJADAcXBXdSRb+P9H8IGJxmJ8rdjiqMMzvAKokjCb9jwlElWNp35L35Z+L709OEWDgH9bjqQC2903TzkSojAAAQ2+sJkhTdYYs/utogBDr3hfEq6QmHO8qbeeU0RymSkIF3REwxlHRhQmlHS/v0V8WBwfyuWXgH9bZowBGW3p3KiIAwBBJKH2hLPyP0fwg1q058SEJ/Gc7SvuAo/TtqIxQBZvXs+T9quS9+63irAA+y8Mc+HcuA/+weu4CuJYqCAAwBBwVHZdQ2hUMWEKsy6F+XfL5v1uC/wmuis5OmtGxKaOZwgjVdEdAo7x/J4o7ynv5TMfSXikeY8vjAYMZ+HcoA/+w6uxUdvoYY3k3AwEBAAZ1BUVFDUdpGZogxLoxmKj+b/nc3+go/UiqINTWprY+TvyCY2l/kff562Kez/wABv6dxsA/rDrXm7H0X8xlmQVUPgCAAeK2atOkAVhBE4RYN8H/EQlGl4kHyeefaf5Qy+vb1o7SjpX3/I3FjQBqAAP/sPZcq+z0BUZbegJVDwBgIFdKrOAqiZ6mEUKsabPi/RL6z5PX/VJG83iqH9TRRsD04kbAj8T/UA8Y+Ic1579M29uPagcAsKXwr/RdpAH4K89JItbyM/7aExJ+zhIXJc2WcVQ+qEeCOQFJFd3GtbRW+Vz8UEwx8I+Bf1gz5sRLVcybRrUDANgEnRIECmd7W3oXIQmxFif6a68EA9FcFZ0XDPoMAhCVD9gIaG5yLW1yUkUXyefkerG73gbgMvAPa/JEgFg6abZllHlRjrUOAGBjDZCj9IOkEXiaoIRYMwZ38qyT4P+IBP8Lk2YLx/gBbH4tDCVVVJPPza/qZVggA/+wxm03l2WmUt0AAN6Fq6LbSUj4KYEJsWYMgsvf5HN9gaOiuwXBhkoHMMA18Z3DAl0G/iFW8Z0AduYEqhoAwDsbnSYJCUdIM9BJaEKsCZ9xLe1bCaXtLcE/TJUDGPL6ON1R+snymWoXa+5o3CcY+If14cNGW3oWFQ0AoIg0ARPElYQmxKq307G0n8ur6jRbJlHdAEqwRio9VBiQ278R8M9aeSyAgX9YR3abtreUagYA8H/NzSeKR4IRoBCr056E0u7qn2auTQ3u6qGyAZR8rYy4KjpXXi+Uz9yaah0UGNz2/1Rh4N9t/kFtXPnHuvExFfM+YCz1KWYAUN9IaNgmofRHCVCIVWkw4O+f8jn+AtUMYAQ3A0x9b0dpv662QYFvDvw7m4F/WH/mzZj3Y7Otm4GAAFC/BEPBpIG5gGP/EKvOXvFhR+kXuEqby3F+ACNP0opOljX0ePFP8nlMMfAPseJ9xrTThxrLuxmKCwB1egVDaXuI/ygeFUaoQqwOHcfSvi/B/wMS/MdQyQBGdyM9obRd5DN5qnw2K/puuieWHO6fc+rthH+s77sAbO/nZsybQfUCgHpsWsZLw2LX4lRjxBr2HkdpRyet6DSqGEBFraljE5b2ftfSrineocPAP8TKdLVpZw40lndz5xwA1A+OoQeT/z8oPkKgQqx4g0FjbzhK/6Y4r9Ns4dZFgAokaUUbkyq6jaO0YLDuvypjNkAw8O9QBv4hvk0z5v1ZnEzVAoD62QBQ2jRpDK4gWCFWxbF+N7lK06lcANWD26rNSSjtcvkMvzK6A/8+4p992h1c+UfccBPgeCoVANRLU9LkFI4KK0wuJmAhVqbBlcMHE5Z2aspoZmIxQJWSUNrR8lluF9eO9MC/hxj4h7i5DYB7jLb01lQpAKh5JPwHz/7/goCFWNFD/q5yregHklaU2/0BqpjghI6kGd3RUdqF8tl+rvhIDwP/EEdfz7S9r1KlAKDmcVs1XZqDNYQsxMp71j+htAfl9ROupc3gaD+AGlp7lTbFUdoSR+l/KfdsgP6Bf7dz2z/i5l0v3iPuQoUCgFoO/8Ht/9cRtBArzqwEgx+5KrqjfE4jVCuA2sMx9LB8zqeLPyx85kt+BC8D/xAH6TrT9s6WVzbcAaBGmw9LO0iahBRhC7Fi7JHP5RPixyX4h6lSAHWxGR+Wz/xHE0p7qL8GMPAPcRQN7gJopjIBQO2Ff6Vvm1D6ipF6/hARt+hq8ToJAlrKaOZZf4A6IvjMB599qQHBTJ7ksAf+HcHAP8Qh2iWeIY6jMgFATSHh/5NM/kesGF9yLe0UV2lzqE4Adb05v73Ugq9ITXiagX+Io+Z9JrMAAKDGGoz3SJNwY7kHDyHigIzLZ1KljOaxVCcACGqBo7T9C7WBgX+Io2Gv+BWRR/EAoCbCf2NC6R/rP1qM8IU4SgbDvjKOpV0hLkgojYFDAPAWQU0IaoN4pdSKroHUFQb+IZZOM5b+r9nWswPVCABqYQNgtjQKvyeAIY7e8X7io47STkoZzUz4B4BNIjVioqu0LxcfCehj4B/iSJr+nrHUb6ISAUA1h/8m8WhpGNKEMMRRMSeuSCjtQ1QkABjE+t0qtePPxRrCwD/EkbkL4D+qrWtnKhAAVC0JpU+UJuJOQhjiqLgmuOXfbdUWUI0AYAibAM2O0n7RX0v668rjSw4vPPNP+Ecsi92m7V1A9QGAam4eDinVGcOIOChflM9fMOV/m5TB8cIAMIQ13NAbHVPfwbG0C6WmvMHAP8Syu168V3EiAABUI0kr2pRQ+l0EMcSRft5fe1DC/xKRM4UBYFikjOZgOODEZxcv/vBXz/jrkwfG1qwnpCGW1XWm7Z0trwzrBYDqwrWiS95+2yAilt0eadRXOobOFGEAKDnGskyzstN/lWDSR0hDLKv3iNy+BwBVFP5btckSRK579/AgRCybrqP0nyTN6DQqEACUC9P2dpFgcruYIaQhls0u8QyRO/kAoDqQ8L+k8AwyoQxxJHxOPF0k/ANAWTGWdzeadtfOZsz7iYSTtQQ1xLL5N9P2dqLqAEDF47Zq0ySI/FjMEswQy+p6x9KekNePOEqfRPUBgBHZBFjqN5ox7z0STmwJKasJaojluQtAPmefMNrSIaoOAFQsjqEHV/8PlkDyAuEMsbzhP6G0xxxT39dt1SJUHwAYaSScTFYx73MSVNYQ1hBLr3zG/hp8zqg2AFC5GwCmvrUEk0sIZ4hltctRenvSjM6g6gDAaCNB5SjxZYYDIpZlE+B4qgwAVCTBUUGupb2v+DwyIQ2xPAYna/zMUdEFwWeOygMAo41he02mnTaK55f3ENoQS7oBcI+xvJthgABQeUj4HyvB5FsENMSymRAvEudScQCgwjYBImYss6+ElVvYBEAsqWvkc3UIVQYAKo6kGZ3lKO1lQhpiWfTEMxylb021AYCK3ARY6jeZbV17SVi5Q0JLnuCGWBKDz9Kv5fM1hioDABVFQmlfk4DSR1BDLLXaOtfSvijhfwKVBgAqfBOg0WzrmRfctiyhZT3hDbEkPqvstEmFAYCKQYLJ5ITSHyOoIZb8mL+XHKUd4Rg6xwABQNVgXtQ73Yx5d0pw8QhviMO/C8CMpS+T17FUFwCojA0AS/9s8RZlQhtiacxL+H9Cwv/HJfyz4ANA9W0CxLyZ4g84JhCxJD5k2t6+VBYAGHXcVm0bCSu3cfs/Ysnsc5R+n4T/JRL+x1NlAKCKNwHmFjcB1hHgEIdlj2l75xnLMjwOCACjS8LSPiyB5d+ENsQSqfRHXaXtmzKaue0fAGphE2C2+CNOB0Ac5pGAtne3fJZ2pqoAwKix2lg0SQLLj/pvVya4IQ77mX+lvyDhv0XCfxMVBgBqaBNga/EXDAZEHJa9pu0db9geFwgAYOSRgNIogeUQ8QWCG+KwzUn4v78Y/hupMABQg5sA48SrGAyIOIy7AGLe3aadmUZFAYARx1HRyY7S7EJwIbwhDjf83y3hf3+u/ANAjW8CMBgQcfgeQjUBgBEnofQ9xH8R3hCHOe1f6fdK+Dd45h8A6mQTgMGAiMObBXA9lQQARhQJLBHxqxJeeglwiAz8AwAY5CbAbNNO3yhhJkegQxy0r4qLqCQAMHIbAJY2RbyHAFdHtr5bzXcO3LjuIVF/9Um7b9LUyQv9tWfu6K87d96GnjPfX/OVnTf7308e1bzJ/+/C99W6ke+3MsM/A/8AoH43Adq6gzsB7mEwIOIQjgSMeTFjeTeFBABGhqSKHkAorp1gHwR2d0mLnzxikZ/8cLOf/MjefufHxOP29FefsEchkK85QwL7+XN97zuzCnZfNc3vuW5KvzdM9rMrxvm5eGRU7L1tnN9z/eTC99J9zVZ+5tLp/d/nsvf4a+X7Dr731Bd2Lfx9ApMf3dtPHr2Pnzyy2XcPW9T/9z84OtLT/h+R8B9l4B8A1DPGRdnpEmTukkCTJdQhDsr7zWWZOVQRACg7EljCEl5uIDxXU8jX+gP+Uc39of6Tu/upz+7mp74swf70BX76otmFwNx15XZ+99Vb+z03TvZ7b544aoG+3Pb8elJhs6Drh9v4me/N8NNt7/HXnTfHX/PVnfzUl3bxU5/Zze88fk+/8+N7+e7hi0q9ObDesbSnHaV93DH0sVQUAKjrDYClfqPZ1rWHaXurJND0EeoQB6xrxrwvymeIuwgBoLy4SttDQszrBOvK1D2kxe/86N7+6k8vLAT8tefMk4ArAf/imX7X5RLwf75V4Wp57+8n+Nk7xtRsyB+q2RVj/d7fTvB7rp3qd/9saz/z/Rm+t3x7f93X5/hrz5jvpz6/q7/6xP7HENyDtKGE/2cl/B8n4X881QQAoKHBsL2IaacPUnb6H2wCIA7Y4LNyvYplZlBFAKCsSIhZKnYTtisg7B+xqPBM/BoJ+v1X8SXk/3ibwm3whav4v5OQf/tYgn0pNgbuHONnbx3n99400e+5fkphcyC4gyC9bHt/7dnzC48YBI9PFOYQbPJ3pr0u4f8jhH8AgA02AcaYdrpV2elHmAmAOGCfM23vICoIAJQv/Bv6TAkyf+u/kkkAH7nhe5rvLo76ncfu5a85ZSc/vXx7v0sCaHCbfu8fJOTfOt7P3iFBfyVX9EfcO8YU5h9k/zje7/3txMLdFV1Xbuuv+/oOfupzuxbmDBQHE653D4x+IXlo8xgqCQDARjcBwuYy73AJNZ0EO8QBmTdtb5nRlp5MBQGAkhMMK5NA+gXRJZiX6Yq+hPzCIL5gCF8wfO+0BYVn1Lt/OZUr+VVs4ZGC6yc/llsZ/npfe2iJ/NnCXHt4h3w8tM36uxrZEAAAeBsSao5kEwBxwP7LjGX2Mpb6FA8AKC1JFd1WQuqNBPVSTt8vPq8f3Mb/lZ399DdmFwbxBbfvB7ecE55r1s5cPPxX8ep8PPyVbDxysNicbw/N8lc2hKk2AFDfGwDpiHimBJvVhDvEARjLfEa1ddE/AEBpcZR+oATX5wjvw/BArRD4U1/cpf9IvW/PKjyzH0yl5/b9urVPfF28V7w+Fw9fJB6XjUdacneFp1F5AKAeMWPeduLlEm48Ah7iFr3LtD0eAwCA0uG2ahMlwF4o5gjyg7+tf/WnFvprz5XA//0ZhQF9wbP7hWf2Cb+4oTnxVfFB8c5cPHx5Nh45dv3KxnlUIgCoFwrHA8a6dpFg84fgOWcCHuJm7TZtb28qBwCUhJTRHEz+30lcRaAfyMC+/un8a05Z4Hvfm9E/jT8Y1LeCIX04JHvFpPhiLh6Oi+f2dTRF19/VOD7XHm7Kt4ca/VXUKQCowU2A5d1NEmr2knDzAAEPcfOaMe87VA0AKAlJM9rkKu1ojv7bWODXfPewRX7y6H381KcX+ulvzi4M7CO0YtmPJYxH3Fx7+Jf5ePjT4j65eHhmviM0ns0AAKg1JNzsGxx3RshD3NwGQPpFxWMAAFAKJOhOEK8j8P9f6A+Odlt94u7+2q8t8L3vzvS7r2doH46qCfGPuXj4f7LtkcW59vBCf2XDBKoXANTQJsDxokPQQ9ykaTPmfYpqAQDDJqmi8yT4dtZ78A9Cf+rzu/rrLpjjZy6d7vfcMJngiZXoa2LwqMB3xZNz7eGWfHsoRCUDgGpGgk1EvEBCzhqCHuJGDWZl/MZY3j2eigEAw8JR+il1O8BvyaLCrf3rLprtd/90a7/3pklc6cdqOl3AFR8Qf5OLh7+Uj4d2pqIBQDUSnHFuxrq2N23vpxJysoQ9xI36pLLT76diAMCQSVrRhoTS7663W/xXn7jQT39rlt/9qyn9A/yY2I/V7XoxJT6bi4evzbWHP5pvD43NxiON8kqhA4Dq2ASwvSYzlt5NQs4Kgh7iJh4DsL1zjbY0BQMAhoZrRRdLKF5b04H/IM1PHtHsr/7k7v668+cWQj+BEWvfcGc2Hvm5vH5Y3DHXHt46OFGAqgcAlY6y0/tJ0HlQXE/gQ9zAFUZbej6VAgAGTcpoDiUs7ccSkrM1PcjvnHl+1w+38bMrxhEKsR7NiU/m4uEfZeORI3Pt4V39VQ1jqIAAUMmYdvokCTqdhD3EDfyvGfOONpb6bOoDwOBwlbazhOWHayr4H6j5ncfu6a89e76fuWS633Mjg/wQ32anuFJcmmsPL+7raJrmr2qggQCAikPCzRhlp79L2EPcqN9Wsa4pVAoAGBQSmD8vujUR/A/W/NTndvO9i2f43ddO9bO3jfNz7QQ+xE3Y2z8vIPKnXDx8dr49tBsVEQAqDTOW3l6CTpywh7iBf5HPB4N/AWAQ4d/Qt5bgfI3YV+1H9wW3+Hdfs5Xfe8sEP7eSCf6Ig3Sd+HwuHr4xHw9Z61c1jmNwIABUAspON5ox7wAJO68R+BDfYbeKZQ7iMQAAGPgGgNJNCdBPVuVAPwn9qc/u6mcum+733sZz/YglHh74kHhqNh7ZMd8RmuqvamiiYgLAaGEs7x4jYedkMUnoQ3yHV4rjqRIAsOXwb+jhhNL/nwTqrmoJ/u4hUb/zhD38tWfO97t+vI2fu5Mr/YhltC8bPCLQEb40Fw8flWsPzxXZCACA0dkEWJbZVoLOJaJH6EN8y9fNZZntqRAAsOUNAKXPFK+tjuDf4qe+sKufXra933PdFD97B8EfcYR9Q/x9Nh45LR8P7eKvaohQRQFgpJGws6u4UswT/BDf8iiqAwAMYANAizpKf6Win+0/fJG/9rQFfuay7fzemybxbD9iZcwK+EsuHrbzd4UWcZQgAIw0ZsxbrOz0q4Q+xH5N27ueygAAmyVpRSOupX2tYof/HagVbvMvTPK/NZjkT/BHrCDXixnx39l45Kfr2xv3ycXDDfk4QwMBoPwYthfMA/gawQ/xLf9rLO/eluoAAJtEQvYU8a8VE/hbdd89tMXv/Phe/roL5/jZW8YTshCrx1wuHg6OEjxWnJWPh8JUWQAoJ2YsPVa8SYJPH+EP0esSz6IyAMAmcS1tdwne3ZVym//qkxf6nr2933vTRD/XTqBCrFK7xDtz8fDJuY7wnv6qBjYCAKAsBMeeqVimRULP04Q/RK/PtL0/GpwGAACbwrG0paM+2G9Ji5/64i5+5uKZfs9vJhGeEGvH3uKcgK/lOsIL/VUNPBsAACVHQs8E8QxxLQEQ0XtKfD+VAQA2IGU0j5MA/vioBf/FUT/1BQn+l0z3e2/mij9iDbs2Fw8HGwHn5u8KzfVXNTRSgQGglJi2N1/Z6d9yKgCit0Y+D6dTFQBgAxyl7y9BfM1ohP/Vn9zD7/rBtv3P+DPRH7FeBgYGJwc8n41HlvmrGrajCgNAqTCWdzepmLdEws/zBECsc9eL1xq2tzWVAQDeImU0NyUs7XsSxntHbLjfYYv81Gd287uu3NbP3UnoR6xzO0U73xHaPX9XaJy/iroMAMNDxbwG006fLeFnHSEQ69wnRIOqAABv4ZraLAnm94/UcL/CM/7fn95/lB/BBxH/z4dz8fBpuY7wXgwLBIDhYizvnqrs9K0EQKxz15m2d7J8Hpi9AwD9SDBfIr5U7mf8V39qoZ/57ky/9w8c54eIAxoWuDsbAQAwHFTM21cC0GuEQKxzr1B2ZhoVAQD6NwCU9nUJ6V5Zwv+Bmr/6k7v73v/O8ntumMwz/og42GGBp2fjkW2p1AAwFEw7HTZt7yICINa5j8jnYA8qAgA0JK3obAnqvxfXl/yq/2GL/PSy7f3e303wszznj4hDGxa4JhuP3JuPh46hYgPAYDFsr0HZ6V0kAHUQArGOzZp25sPBgEyqAkCdI0F9sfhCKa/4J49s9tedP7d/qj8BBhFLYy4XD98iHpTvCG3N8YEAMFCUnW4ongrwKkEQ69aYd5U4gYoAUMe4rVrEsbTTJbjnSjHZP3n0Pv6aUxf43VdvzRV/RCyXq3Px8I/l1cp3hGhkAGBAGG3prSQEXS72EgaxTn3KbOvi2F2AekaC+/biDcO+1f+QlsJk/+BIPyb7I+II+XwuHo5l4xGeaQSAAWHa3ockBD1JEMT6vQsgY1EJAOqYhNIXOWoYt/8HA/5O2KMw4K/3pkkEEkQcaXuCEwOy8ciXc+3hbajqALA5jOXdYyQEXSBmCINYj5qx9KVUAoA6xTH0kIT/EyTI54d21T/qrz17vt9z42Q/dwe3+yPiqA4KTIm35jtCH/RXNXDOMQBsErOte5ay088QBrFONwAeowoA1OsGgNIni7cOOvgf2uKnPrer3/3LqQQPRKy8zYCO8E/Ehfl4aByVHgDejbHUb5AgdCSzALBOXWPG0vtSCQDqkKQqHP/3+oCD/8FRv/P4PXzvW9v72dt4zh8RK3cTIBuPPJGLh7+S7wjtyB0BAPBuzJg3VlxBGMQ6tFs8nyoAUIe4Slsy4On+H9nbX3feXL/nuql+biW3+yNiVZjOxcO/y3WEPyJyNwAAvIXRlm40Y96BEoT+QyDEOrNPvMVY3j2eSgBQZyQs7bKBbACkPr+r3/WTaVz1R8RqNC++mG2PXJxrD8+n8gPAm5h2JjgW8DtillCIdeajIifoANQbjtIe31zwTx7R7KeXzvZ7fzfRz7UTJBCxqu0S78/GI8f4qxrGsAIAgLG8u1HZ6f0kCD1EIMQ68w0zlj6RKgBQR7iWtq+E/DWbHPL3pV38nuunEBoQsQaPDQzfILb0dTRFWA0A6htlpxtUzDs1GIxGKMQ6MmfG0pcZyzKsgwD1c/Vf/7qE/Z53hP8DNb/zE3v43rdn+b23jicoIGIt+3QuHv5MPh7alhUBoN43AbwF4p/F9QRDrCNXmcsyu1MBAOqAlNE8XgL/LWLfW1f9D2vx15y2wO/++VYEA0SsF71cPHyluJ+/qmEsqwNAHW8CxLzTJRClCYVYR/7btL3D+PQD1AGu0vaQ0P/omxP+O4/ds/+q/x8mEAgQsd7szcXDD4pnZuOR7VghAOr2LoAZKlYYjEYwxHoxGH55urG8m8cAAGqdhKWdJOH/jeCW/9TndvW7f7GVn72Do/0QsW5dL67JxcO/7uto2oFVAqBuNwG+SijEOnOluCOffoAaJmlFI+5B0cuSRzbnvG9tz3R/RMR3bASE3Xw8fFw2HtnKX9XQyKoBUEcbADFvvPgUoRDryPVmzHvctDMHG8sy46kCADXI2lMW7LHu7Hmruq/ZivCPiLhx12XjkR/k4uFFufYwRwYC1M8dACHx82IvwRDrSTOWTpq2d2YwENNY6jdRDQBqgOBKVr4jtEP29rHfzt4x5g0afETELc0GiPwt1x4+SeSqCED93AUwX0LQ3YRCrEMz4u/MmGcZbelxVAOAKicfD30gFw/fGlzZorFHRByw/822R77nr2yYxUoCUBd3AYwVvyiuJRBinQ4GfFzFvLNENgEAqpVce/hYaWKfEfto5hERB21XsIGa7wi1sKIA1D5GW3pHCUG3Egaxjl1j2t6vDNubQ0UAqJYr/h2hcF97024S/q+S5jVNA4+IOOyTAl4Uv5SPh7bxVzIgEKCGNwAaTDt9ooSg1wmCWMf2mbH046btHati3iRjqc+6B1DB4X+8NKlLcvFwXF5zNO6IiCUzLbX1Snndk9UGoKY3AWZKALozmJJOEMQ6NyHGTDszz7A9NgEAKg1/ZcO0bHvkVGlOn6VRR0Qsm+25ePhAf1VDhJUHoDZRMe90CT5pAiBiYUDgTYbtfYDKAFBZV/53lob0UmlMXZpzRMSyPxLwuNTcL/srG6ayAgHU4AaA7c1UdvpZwh/iW/5D/LCx1OeIXIDRJtcebpFmdEX/sCqac0TEEdoEeCMXD/9vviM0k5UIoBY3AdI2oQ/xLYNHYl4wbe9sw/a2pkIAjMZV/3hoK2k+PxscVVVsRmnKERFH1uCElb9JLf6gv6ohzMoEUDuYy7rmS+DxCH6I77DbjKV/La/NZlsv6x7AiF317wjPkYbz29J4dtOAIyKOrtn2yEv5jtBHgo1ZViiAGtkAiHlh8YcEPsSN+pAZyxxt2N5EqgVAGfFXNYSy8cgiaTivFbM03oiIlWL4NfEbuY7wDqxWANVPMPXctD1Tgk6SsIe4Uf9jxtKnG23paVQMgPKE/4g0l4ul0Yxz5R8RsSJNiT/OdYR3lZrNkUkA1X4XgO3NFH9D0EPcpK58Ri42bG8uFQOghOTaw0H4P158XprLHE02ImLFmsm2R1blO0J7s3oBVPldAMsyIRXzTuRIQMTNGszKuFnckaoBUAKy8ci0fEf4fGkq8zTWiIjVckpA2O1rbzLzHaHxrGQA1YuEmnniH4pT0Al7iJs4JcAMTgmIde1n2F6EygEwBPxVDU3Z9shu2XjkGp73R0SsSp1cPHyq1PEZrGoAVXoXwFI/LOHmLHEdIQ9x85r9cwGOk6+ZCwAwqPC/smFMrj28X7Y9skIayF6aaETEqrVTvDQfD81nLgBAtd4FkGkOpp4T8BC3fCeA+Kr4DfncbE/1ABhY+A/1tTe15uLh+6Rp7KF5RkSsetPijfl4aDarHEAV3gWwvHuMaXs/kVCTJeAhDshOFXxmYpldjKU+m98AmyPfETpGGsV/i300zYiINWNvsLHrr2xgUjJAVd4F4B3FkYCIg7LLtL0Os62HzW+AjZGNRybnOsKnS5Po0SgjItbscMDH8vHwwfmO0BhWPoAqugvgm30TlZ3+B6EOcdDDAZ82bO8DYphKAtBQGPbXmG2PzM3GI9+R5nANDTIiYs37dC4ePiHXHp7CKghQPZixwjBAQh3iYDcBYunHxcPk68lUEqj78C9N4I7Z9sKk/wxNMSJi3fiy+LVsPDKR1RCgSu4CaEvvJAEmTaBDHLR94jPiZ8VJVBOoW/ramxZK83cz4R8RsS59PRcPL/NXNYxjRQSofJSdjkh4WUGYQxyyL6mYd644gYoC9Xf1f2XDHGn87pEGMEsTjIhYvycEZNsjF7MJAFD5mMsyTRJgjifEIQ7LlNhGRYG6IRj81NfeFJXw/3cm/SMiYuEusPbIT/s6mub5KxuaWCkBKhNjeXeDaad3lvDyCCEOcVj2mjHvGrOtZ3uOCYRaD//j8h3ho6TZe4yGFxER32YuFw/f3NfetAebAACVi7IzUyS8/G/xmWaCHOLQ7TZt75dmrGsBmwBQk+Q6wmPET0iT9wiNLiIibmoTIB8PaayaABV6F8BSv0nFvCMlvLxGgEMcthnT9q4z7cw+hu2x+Q21RTYe+bI0dy/Q4CIi4uY3ASL35jtCLaycAJWJGfPmSXC5hfCGWBJ7zFj6LsP29qS6QC2F/89IQ/cGjS0iIg7A9eI9bAIAVOhdALYXUjHvG8EtzIQ3xNIcE2jG0vfIZ2sOFQaqPfiPF0+RRi5BQ4uIiIPcBPhnviO8f74jFGZFBagsJLAcIj5PcEMs6SbA3w3bCx4HCFFloBrD/+Ri+H+VRhYREYfovfmOsGITAKDC7gJYlpkjgeXP4nqCG2LJzAePA4gHyNccjwtVFf7HFcP/KzSviIg4TO/Jd4QPYHUFqLS7ANIXB88vE9oQS7sJID4gHiVGqDRQLRsAX5GG7TWaVkRELJEPMBMAoLIwbe8wCSgugQ2xLD4hLqbSQDWEfwb+ISJime4EYBMAoFIw2nq3lYDyMkENsWw+J36QagOVGvwZ+IeIiAwGBKiXDYClfoMZS19BSEMs+ybAocayDI8DQEWFfwb+ISIigwEB6gxlZ1oJaIhl9yHD9kyRdQ8qIvwz8A8REUdjMKDBKgwwupgXZadIOHmdgIZY9tMBVorv5YhAqIQNgK9y5R8RERkMCFCHGwB2Oizh5DoCGuKIbAKsMmxvTyoPjGb4Z+AfIiIyGBCgXjcAlnU1KjtzHOEMcUTsM2Ppew3bm0P1gRFFmq0xufbw8dz2j4iIFTAYMN7X3rSLv7KhiRUaYGQxlnc3mDFvN/EFwhniiG4C7M3jADBS4X9cviN8lDRcj9N4IiJiBZjLxcO/7Wtv2pNNAICRRwLJTPHXBDPEEd0EuMuMeYuMpX4jVQjKF/7joXA+Hj5Umq1HaDgREbHCNgFu7uto2pHVGmCE7wJoS4+VQHI6oQxxhGcC2N6NZqxrAZsAUDb62pv2lgbrHzSaiIhYmZsAkav9VQ3jWLEBRhbTTh8hgSRJKEMcUTOm7V1ntvXMpApByfFXNsyR8H+vNFd9NJmIiFihdmXbIxezCQAwsig7HZUw8g8CGeKI2yP+L1UIShf8VzU09q1s2l3C/z2Ef0RErALTsmYty8YjE1jFAUYGoy29nYSQawljiKNit2iLE6lGMOzwL03Ugmx75DppqHpoKhERsUp8IxuPnJprD09iNQcYqbsAvAvEXsIY4qi4WjxXnEw1giEj4X+GNFFXiBmaSURErDKfl3Xs+HxHaCwrOkD5Me30MRI+XiGIIY6aL4qfZRMAhkQ2HpkkLpMGyqWJRETEKvWpfDx8CKs6wAhsAMTSe0vweIAQhji6mwCm7R1u2F6YqgSDIt8RPkEap7U0j4iIWN2Gn/BXNsxjZQcoL8XjAFcQwBBHVzOWfsqwvfdTlWBASJMUzneEPt4/RInGERERq971uXj4/r6OpgXBbBtWeoAy3gVgp5cGR5MRwhBHeRPA9h4w23rmUpVg8+F/lYT/eKhVGqUn+xsmGkdERKwJe3PtkRvzHSGaIYAyomKeKeHjDQIY4qjbZ9reHfK6A5UJNhX+myT4v0/8G8f9ISJiDbpG1rhvi9NZ9QHKg2F70yRwvET4QqwIPfFSFfNmUJ1gA7LxyBxpjn7FcX+IiFjDOrl4+NR8R2gCKz9AeTDtdDvBC7FidMVzjGWZKVQneIvgnGTxu9IYeTSHiIhY477R1x5qbWQaAEBZkLCxnNCFWFHzAP5rxtLHGLYXoUJBMPQvku8InycNUY6mEBER6+RkgGRfR9MeDAUEKMsGwEcJXYgVtwnwqhnr2s9Y6jdRpeo5/K9qCOXbQ0dKI5SiGURExHoy2x75a74jtJBuAKC0GLa3gMCFWJGbAM+qWNdeVKk6RpofIxuP/IuJ/4iIWIcGM2+ulrVwFh0BQEnvABjDSQCIlXkygHiTinnzqFR1SC4eXiiNzwpu/UdExDq2Uzw31x6eTGcAUBrMmBc2bS9O2EKs2JMBvmXYHkMB64l8R2h6Lh6+XJqeLpo/RESsc/8r6+JH/VUNYToEgBLcARDzQuIVBC3EitUxY97JxlKfda8e6GtvmpBvD53OxH9ERMS35gG8ILZk4wxIBhguRlu6ScLFpwlZiBXtc/I5teSVoYB1cOv/kdLsvE7Dh4iI+A7vzXeEZtApAJTgLgDb21vsImQhVrR/FxkKWMtk2yO7SYPzKE0eIiLiRo8HXE63ADB8zJi3k/gYAQuxwk8GiKVvMGxva6pWLV75bw/PkubmBrGPBg8REXEDu/Ptoc/TMQCU4A6AmDdLwsXvCViIFW+XaXtnG0v9MVSuGsJf1TAmFw+38dw/IiLiRmwPB+H/TH9lw3i6BoAS3AHQlp6iYt53CFeIVeFLyk4fS+WqnSv/YQn/J0mD8xpNHiIi4jtcL+tkUsL/V9avbJzor6RvACgFxjf7QsrOfJ5ghVgVrhf/qWLeBw2GAlZ9+G8SPyQNzkM0eYiIiO8K//HwqxL+T5XgP4muAaDEjwHY3sfEbsIVYtX4G9POzDOW+o1UsGrdAOgIz5QG5zc0eYiIiBvc9p+Q8H+ahP/JdAwAZXgMwE4rCRQvEqoQq8aMsjMXqlhmAhWsWjcA4uELpcnpotFDRETcYODfl7jyD1DOOwDSeuG2YkIVYjX5qrkscyAVrArJtkcOkgbHoclDRERk4B/AKDwCsLP4JwIVYtUdDfiAsbx7W6pYleCvamjsW9m0mzQ5j9LoISIibjDw76vBwD86BoDyYrSlp0uYuPb/s3cnYJKV5aHHe7pOwbAKsruBiriEK0uPS3CrU2rcE+ghJqImasziGpckmmhiS5/qAdEkkkjUxDWa6UETNVEDU9V0xAWjEuOCoKISFHBhr9PdQ1X11H1rZkJQtlm6e6pO/f7P83tafe5N7pU6db73q1NfGahg4HTSWv6haq1po3wQ6syUDm/Xy++Nhc4miz0AcOCftFs2ACa6SQwSfgoQBtO11VrzlZXJ5mrvZn1cu56sjkXOS8KPLfYAwIF/0m7+GsDrwrxhCgbSN9Isr1Ymun4asF8f/W83kkfFQudiiz0AcOCftLtLa83f3fpJomEKBlAr/HN4gHezfvz0v5EcFD4aC522xR4AOPBP2v1PADSfEcPD5QYpGNyfBkxr+WsqU3O+CtBvn/53GskfxmKnY8EHAFsO/LvOgX/Sbt4AyPJfjgHia4YoGOhfBbg+zeZO8o7WR3VmSmPtRnKDBR8A3Hrg3yu7G0cM/9JurDLZPDIGiM8aomDQNS+qTM3d07taH9Sql4+Mxc75Wxc8Fn4ADP1j/z924J/UJxsAtXz/GB7OMzxBIX4a8M96v+7hnW33Pvq/V7uRvCkWPDdb9AHAlgP/Xmr4l/roawC1/OOGJyiE74eneFfbjcXw/7RY7Fzm038AfPK/5cC/1zrwT+q3DYDmdAwNi4YnGHjt3q8CVKbm7uudbeU/+R/pNEr3bTeSfzL8A+DAPwf+Sf1aWmuui6Fh3vAEhTCfZnmtMjW/v3e3FawzU1odw/9rY9Fzi4UfAA78c+Cf1McbAKf3fkrM4ASFcXWa5adWs9x5ACu2AdBITopFzxUWfgA48M+Bf1JfbwBkzZfFwHCToQkKJMsvTCfnfRVghR7/7336/2kLPwCG3LwD/6T+r1pr/mYMDNcZmqBw5wG8yTvcChTD//Ni0bPJwg8AB/458E/q+w2ALD85BoWfGZigcH5amWw+xLvccg7/9eS4WPh8y+IPAAf+OfBPGoRiQHh4DAo/MixB4WxOt/zMZ3O1d7rlGf4PaNXL7/LpPwAO/HPgnzQwGwBZfkwMClcalqCQel/veVll3YIDAZey7uxIEoue58bi50oLQAAc+CdpYDYA1i3sFwPC9wxKUFgXpbW5473bLeWn/43k6PDJWAAtWgQCMHwSB/5JA1wMCN8xJEFhzae1fKoyNXcP73ZL8+j/nrH4eWmYswAEwIF/kmwAAP0kreU/TLO5X6lMdEe94+1irUb5oeGHFoEAOPBP0oBuAFxiSIJiHwgY/i3cyzveLtSdHel9+v8Ri0AAHPgnaVBLa81/MiDBEDwJkOV/7B1vF+rMlJ4Zi6C2hSAADvyTZAMA6HPfDff3rrcTxeLniFgE1bd+CmIxCMDQHPg358A/yQYAMJAW01r+tspEdw/vfDtYq17+w1gI3WAhCIAD/yTZAAAG5ymAZuqdbzvrzm559P/EWAh9waf/AAzRgX/XO/BPsgEADLx2mjU/VJmaP9i733bUaZT2bzeSs3z3H4AhOvDvagf+STYAgMK4Os3yF1Ymm2XvgHf96f9op5FUYzH0bQtCABz4J8kGADCg/j3N8gd5B7yL2o3kwPB+C0IAHPgnqShVa80pwxAMnZvCK8Nq74J3tgFQT54eC6KbLQgBGJID/17jwD9pKDYAXm0YguGT1vJvhvt4F7zj4b/cbiSfsSgEYAiG/96Bf6904J9kAwAo9s8CxvX/15WJ7irvhL9Qq14ed/AfAA78k2QDACjMUwBZ88Y0mz/aO+Ft6syU7hWLov/ws38AOPBPkg0AoEhPAaRZ868qE93Eu+H/fvrfKL8yFkY3WBwC4MA/STYAgIL5XprNpd4Nt376/8BYGJ3v038AHPgnyQYAUEDt8N7KuoV9h/rNcHFmdHW7kbwhFkfzFogAOPBPkg0AoLhPAeTPqqxbGM4DAbuzI6ti+F8Ti6OvWCAC4MA/STYAgIL7h7Q2d/BwPvrfKO0VC6PXxwKpZZEIQAE/+b/GgX+SbAAAt3FlWsufWanlpWHcADi63UgusUgEoIAH/uUx/L/M8C/JBgDwcz8LWMvPTbP8oKF7I2zXkz+NRVLHIhGAgh74t7exR5INAOAX5GnWfMZQvQkuzowe3G4k11goAlDQA//2NfJIsgEA3OFTAFn+mcpkMxmKN8Du7EgpFkgTsVBatFgEoGAH/r3CgX+SbAAAd6NTmWw+dSjeADuN0kNjkfRNi0UAHPgnyQYAMIQ2hw9X1i3sVfRP/8sx/Pc+/W9aMALgwD9JNgCAIfXDNMufXOg3v1a9/LBYLF249VFJi0YAHPgnyQYAMJTa4b2VdQvFPDeoM1MqtRrll8eC6SaLRgAKMPzf4MA/STYAgF3wvTTLn1WZ6Bbvja89kzwkFkwzFo0AOPBPkg0AgC3OTrP5/Ys1/NeTJBZMzw9zFo4AOPBPkg0AgC0uSbP8sZWJ7qribAA0kkPCxywcAXDgnyQbAAD/95OAYSoU5yuF7XryzFg45RaOAAz4gX+vduCfJBsAwFJKs+b/hKMK8YbXnR0ZbTXKH7F4BMCBf5JsAADczubw+kK84S3OjJ4Qi6eOBSQADvyTZAMA4A6eAqjl11Qmm4P9FcPu7EgSC6e/27qAspAEYOC+8+/AP0k2AICVsJhmzdMG+s2uM1N6aCyevmUBCcAADv9NB/5JsgEArODXAM6vrFsY3K8bthrlN8YiqmkRCYAD/yTZAAC4S1eHZwzkG10sno6KRVTD4/8w9HpngLR2QNv7Bg78k2QDABhC7TTL35ue3h6sDyB6J//HAup3YiH1U4tJKLTFbT/x+ePwP+HS8LVwcfhc+EyrUf6neD94+w7onRvyyd7/3fClbf/zvhm+F34YbgwL/rvHgX+SbAAABfT18PiBepPrzJSOiIXUhywmoVB6Q/fl24b7T4X14e0x4L8hhqbfjsH9WXHtPzL+HtNplO7bnR3Zc1ffSzZfsOqQbf/zjov/HU8Oa+Pfvyb+d07G/+73hI9u2yjobRBc558RDvyT1J8bAPmvhnr48i/4SrgsXLXNvOEHht6mtJZPVCabqwfn8f9G8oRYTF1pMQkDrTdQfzF8PJwVXhzD91PCL/e+4hND0oG7+UmjPTqN0qGtevmXtrzn1JPT4u+fhnfF/1v/NXzfP0Mc+CepH+od6pVO5cdUa81H/oJHx2L/SWmtOd4T//534t+/MrwpBoBz4u8/hwviX18ef68zGMHQuCDNmg8dlE//94mF1Ju3PRpsUQkDpLVl4y75cHhp/PuT4u9DY8C+XwzX+w/C+08Mb3ssNkYPjv/3HhnG4v8PJ8ffdWE2/vWcf8Y48E9S328WTHRXVU5fWF2p5QdVa837xiDwoLTWPDHN8pPCafHv3xz/+XvjP7u090mhQQkKKa9mc2vj/WC0/z/9ryf3jaHhixaV0Nfa2767/9PWlsM6kz/uNEqPir+Hhn3jX5eLsIiK96PeeSR7hQPi/6+Hxt/xcM62swpuCpu8Fhz4F8P/HzrwT9JAbA5MNksxGKyu1pr7pLXmPdOp/Kh0au4p8Z/9RZrlM9ueErh528bAoiEKBtp7qll+YN+/MXUaya9bVELfnsZ/dfhqDD1/H0P+2u7syMHDuIDa8vWBmdKJ8d/Dn8Z/H5/f9nUBTwg48E+SBn2DYHWaNdO01vyzGB4+Fb4RfhZahikYONenWX58/3/itvW7txaX0D9uDl8O746B9zkx+N4/BuCSZdLWNl+w6h6dRukp27661Hv/uszPEDrwT5IGfjNgortHZWruoTFA/G41y8+OYeK88IPQMVjBYIjr98/7/NP/0jHbHqu1uITd/2l/b5DtPe7+e616+ZEx9PuU866fCih1Zkr3adeTJ8V/Z28MX/BUgAP/JKkQmwG1fM8YJB4QnhFDxZ+G2dA0YEG/bwA0v16Z6PbvrwG0GuXXOPwPdvt3mns/0/cHcT2eEIPOQT7t3/EWZ0ZXx3+PD43//p4Tzt32FIXXlgP/JGnwNwPWLexZrTWPqWb502LAODP+fjP+tg1b0JduqdbmHt+fC+YLRvePxdV/WWDCbjnQ7/oYbM7rzJRO6f00XvzrsiXOkjzVVIr/LvdbnCkd224k74h/3TtDYcFG58AO/zc68E+Sbn0qYDSt5XtVs/ygdGru19Ks+ekYNm7aOnDkmw1e0Bc2x3X64d712n+f/tfLz+2dKG6RCSum93j6t1uN8j/E9ffY3sF2ljPLvCEwUzpk208knh9+4qwAB/5JUoGeDEjSqfyEapZPxdDxpXCD4Qv6wvfTWv7wvnrDiAXVXrHA+sC27x1bbMLymt9yqF89WddplE6yZFn54r/7w8OL4p/Dp8J1XpMO/JOkIhUDxzFplr86/m7snURuAIPd6uY0a76uvxbDjeRRHv+HFfG9LQfU1ZNH9n7f3hJlt28EHBVeHP9M/s0BqH372P/NDvyTpJ18KiBrHp3W8hfGAPKhcK1BDHbP1wC2/aznvfvj0//ZkaTdSF7tkCxYVjfEdfZ3rUZ5TQw0HmHur02A8raNgNPin8/nnQ/Qdwf+vcqBf5K0C5sA6xZKaW3uiPD0NMs3OB8Adosr4vo7pS/eFDozpfvFYPJR34WFJbe49VyN5D3tmeSEYPDv742ApNUoHxj/nF7V2vqkRstr2IF/klSgjYDRGED2T2tzT4q/58dAMm8zAFbMYjirMjW/e+eB7uzIqlhkpbHYusKCE5bUzXFt/UuoWHIM5GbAvcNZ7Uby3W2/0uA1vfIH/r3cgX+StEybAZPNA9Ks2ftqwGzv+8mGM1gRn6lm+S/t1ot/y29lN5LXWnDCkukdpHlxDI9v7M6OHGCJMbjFP7+94p/jU+Of5wfDjV7bDvyTpMJtBEzNHRkDyetiMPl6aBvQYFndmNby8d7TOLvvU65Gcmj4VwtOWBI/6X3Pv9MoPSaULSsK8zTAoa1G+fe2/HKD1/hKHPj3csO/JK1s1VqzEsPJ28IPDWmwrNZVa3O77+uNnUbycCdfw64/shwD4n/G399sN5JDel+tsZQo3CZA0qknj4h/vn/vPdOBf5JUuCcBJrqr0sn5A9Ms/9VqtuVrAZ4GgGWQ1vKLw3123wbATPLHFp6wC4f81ZNrw9tbjfI9e0OiJURxi8F0VbuR7Bv/nJ8T/+y/ve3rHq4DB/5JUnE2AiabpXRy072qteZrY1i5advBZQY3WDqddGruibtnMTs7UopF15csPmGnLITPx9DyrBgMPe4/fJsB92k1yu+P18C1roUlO/DPJ/+S1E+bAbX8UWm25bfLbzS0wZJ65265qBdnRh/s965hp1wX3h0D4FhvI80SYTiLwXWv8Kp4LXzde+lOH/h3tQP/JKl/q9aah8ew8obwHU8DwJK5qrJuYeU/+IiF1x9t/fTFIhR2wNWdRuml4TDLArXryeotP6Va33KY6oLrw4F/klS0KrV872o296xqlp8Xg8tmwxvsssVqba6yohdyd3ZkdSzAPmsRCjvkolaj/NS4fva0HNBt3k9HY5i9fzgzXiO3uE4c+CdJhdsEmOiW0iw/Oq3lfxXDy4IBDnbJ5riW3rGiF3FnpvS4WIRdaSEK2/Md5XIeA8t7O43kwe1GMmoZoDsqXiN7x2vk97YcDOkrAXc1/N/kwD9JGszSqbl7xODyohhgrvCVANgl36xMzR+6kp9WvXnLUGMxCnfnqhj6X9fdOHJPt33d7fvrxpEkhtunxOvmc2GT68eBf5JUtCoT3STN5qoxwNTDLQY52Ck/rWb5b67IRbs4M3pYLMTOsxiFu3V5q1H+g+7syB5u99qBTdbeL6ysidfPP4d515ED/ySpiMXwcmwMMe8KmwxzsMNaaVw/lXULyz9nxCLsybEYu8xiFO7Sf8Xwf6rbu3a2eP08LF5H54SWx/63PPbvwD9JKliVWn5gDDJnhOsMdLDDLqzW5o5ZgQ2A8ms9mgp36cJ2I3liDC1lt3bt0iZAvXxYvJb+snfonQP/PPYvScXcBJg/MM3yV8Uwc42BDnbI1Wktf86yXqCdRunwWJB9yIAHd+iWGFY+HgPbsZ2ZUsktXUvRYmP0HjEAv6L3KbgD/yRJhdsAmOiOpNnc6jTLfyMGmsv8VCDs0M8B1tI3d5bvawAx2DwiFmX/bdCD22nFsPJP3Y0jh7uVa6nrffodg/BL4zV21bZflnDgnySpcFVrzUoMNZ+zCQDb7dPh6OVZgPZO/2+Ufz3MGfbg59wcg9n7Df9a5k2A/WIgfmW83q4o/iaAA/8kaXg3AfLjwhcMdrBdvp9m+eOX5WJcnBndpzOz5ef/DHzwf25qNcpv7cyUDnbL1kpsAsRw/BvxuvuBA/8kSQXeBHjM1gPODHhwN9ppLf+dSi1PlvxCjEXZEbHwrBv44FbN3vDfnkkO786OrHK71opsAvR+JrCRnByvvesLeuDfH3rsX5KGfgMgSbP8kdVa8xO9AceQB3fpb6pZfo+l3wBoJA8JNxr64Nbv/H948YJRw79WvMXG6Orep+SFOhhw6yf/r3LgnySpV2WyOZrW8gdWa82P9n7z3JAHdyytNb8WjlyODYBXGPrAgX/qj25zMODVA34mgAP/JEl3vhFQyw+PIec8BwPCXWwCZPPVZdgAKH/K4AfldgxcHzX8q082AbYeDLj11wEc+CdJKmQOBoS7ewogry3tInN2ZM9YqF1r+INkZrE++mC3YvXTJkC8Lt8Ur89NDvyTJBV4E8DBgHDnGwBfXtILrjNTetyQ/PY03JULOzPJ4+J6SNyG1U/1foUiXp/vdOCfJKnAGwBJSMMXDXxwO/OVWn7fJbvgWo3y6TYAGGK91/534jo4JQatkluw+rF4fR4Rzo/X6qID/yRJhdwEyLb8OsDaGHa+60wA+Dmb4/p4zpJcaN2Nvcf/ky8ZAhliV8TA8hy3XfV78To9ur11E6DtwD9JUlFLa80XxsDzQ0Mf3PYgwOb7l+QCi4Xa8VsGIEMgw2k+BpbXdGdH9nC7Vb8Xr9NSvF6fFK/br/bnU1sO/JMk7XqVie4eaTb3it5jzwY/uNWllcnmAUvxidILHQDI0Kon74+hah+3Wg3MJsDGkb1iyH5RvH6v7rNr6UYH/kmSlnIToFprnm3og1v9KM2au/5zgK1G+axYvC0YBhlCs+1G8hC3WA1anUZpvxi439w3vwzgwD9J0jKU1vL7xdDzMYMfbHFTWmu+dtc+SZodOSAWb59wACBDeOjf5TG0PDGMur1qEIvX7j7h07v9/bue3OzAP0nSchQDz6o0y385/l7sUEDI22nW/IdKXBc7/ynSTOkRsYC72EDIkLmm1Sj/Vnd2xM/9aaDrNEr3iQH80t184N/LfPIvSVquKhPdJM3mnh3Dz/dtAkB+QVrLj9z5T5AaydpYxF1pIGS4Dv0r/20MTfd0S9WgF6/j3qGAp+6e8wAc+CdJWqFNgHULe8Xg8/pwowGQIXdJNcvTnbqQtp4mXX5933yHFFbm0f/PxeDyULdSFWYToJEcGK/rqZA78E+SVNhNgKm5w2L4+WBYNAQyxH6W1vIX7Nyisb5l0fhOQyFD5JYYWp7uFqrCbQLMJA+M1/d5DvyTJBW5ajb/sDTLLzcEMsQ6oVZZt7B6ZzYAHhqLuRlDIUNisVUvnxFDS9ntU0WrOzsyGu/p4/E6v8KBf5KkolaZ6I6mtfw3YgBqGQQZYh+uTM0dsTMbANVY0P3IYMhwSDbGa/5gt04VuVajPLlMX+vqHfh3jQP/JEm7u2qW7xMD0FTYZBBkSH0ljO3QhRMLuFKnkTw/FnUtgyFD4Kp4vT+jd+6F26aKXLy3Hxqv98878E+SVOTSWvOhMQD9h0GQ4T0HoPmUHbpo2vVkv/BWgyHD8L3/8LbemRdulxqG4rX+5HjN3+zAP0lSUavU8j1iCHpRuMowyJB6WWWyucd2XzStRvnw8GnDIUPgP+O1PuZWqWEpXu97xev+b5bwwL9XxvC/j/9mJUn9VLXWPDDN8nf5KgBD6j1xDWz/z5rHAvHocJXhkIK7IQaY14bEbVLDUrzeV4WxeP1/Y4kO/DP8S5L6sspk88QYhC41DDJs0qz5xXCf7b5YOo3kCYZDin7qfwww/9KdHVnt9qhhK173e3QapZds2QRz4J8kqcDFMPT8sGAoZMg2ABbSWv7/tvtCadfLrzQgUnDXt+vJk9wWNazF6//+cR18LHQc+CdJKmqVie7qaq35GUMhQ7cJUMt/dbsvlFaj/B4DIgX/2b8P9D4FdVvUUG8CNJLT4nq4egce+7/BgX+SpEGrmuVPi4GoaShkuDTfuP2LwnpyoQGRArsmBh8H/2no68yUDmg1yv+8XU8BOPBPkjSgpVm+f3XrgYCGQobpawCf2K4LpDs7sioWe5sMiRTU5nB6DDO+uyxt3fB97JavxNz18N904J8kaVCrTDZXxTB0UgxF3zIYMkRfAbhkuy6QzReseuC2IcmwSBH9Vwwzx7sVSj+3CfC+O90wqzvwT5JUgE2AdQt7xlD0Z34WkCGyuVLL7/7A806jdIoNAApqPrwpBpp93Qaln9sAWBPXxnUO/JMkFbk0y9fEUPQlgyHDsgGQ1vJHbc9CcMKgSEFdHK/vR7v9Sbd73987/MMdHPj3CsO/JKkobXsKoBZywyFDchDgb93thdGqlz9kUKSQn/7Xk7eEvdz+pNttAIyGalwnVznwT5JU5NLa3LExGF1mMGQ4zgFo/vXdLwIb5a8aFimgy+L1fYLbnnSn7/8HxXVyTruR3BzD/6sd+CdJKmKVdQulNNvyFEDbgMgQHAT475WJ7l0sABvJcbEAvMKwSMF0Wo3y2W550t1uApwUw/8pDvyTJBV8E+DgGI6uMiAyBC6rnH7LgXd6MXQapafGsHS1gZGCubkzU3LyvyRJkraUZvnphkOGwJXxWn/knV4I7Xry8hiWbjAwUij15FNuc5IkSbp1A6CWPzyGo2sMiBTcT8Oz73wDoJGcEwNTy9BIkfR+2tJtTpIkSbfZANg/vNuASMHdnNaaf3LHw389WRXD0gYDIwVzYbuRHO42J0mSpP+tMjW3qprlT40B6XpDIgW2OXzoDg8CbNeTo2JYmjUwUqTD/8LL47W9h9ucJEmSbls1y+8dw9F6QyIF96+V02/Z7442AI6NYekiQyNF+um/VqO8xu1NkiRJv1hloluqZnMv7T0mbUikwD5TyfIH3tEGQCUGpm8aGimQd7UbycFub5IkSbqj0iw/MQakLxoSKbCL01r+iDvaAHh2DEw/NDRSED+N4f8F3dmRklubJEmS7qjKZHOvapa/M4aklkGRgrosPPmONgBeGEPTzwyOFMQXOjOl49zWJEmSdFdVs/xXY0D6oUGRgvpxWms+//YbAI3ymwyNFEQ7/F13dsThf5IkSbrLKusWDogh6SKDIsX9KcD85T8//NeT1TEwnWVwpCB+1GqUT3E7kyRJ0vaUZvkZMSi1DYsU1OmVie7obTcADomh6X0GRwrivzuN0mFuZZIkSdqeqrW5R8WQtGBQpKD+tnL63P633QA4OoamTxscKYBOvJ7f4zYmSZKk7a2ybmF1muXfNihSUB+u1PIjbrsB8EsxOP2H4ZEC2NSZKa11G5MkSdKOVM3ymkGRgmpUa82H3HYDoBKD0w8MjxTAtd3ZkYPdwiRJkrQjpVNzYzEobTIsUkBfCWO33QB4ip8ApAhajfK/uX1JkiRphzcAsvzQGJIuNixSQFemtWb1/zYAGuVfNzxSBJ166XfdviRJkrQTGwD7xqB0tmGRAsrDs7YO//VkzxicXmN4pBgbAMnD3L4kSZK0o1Umm6PVWvPUGJRuMTBSPHPP2/JTgO16sk8MTm8yPDLw6smlwc//SZIkaadKs+YjYli6zLBI0aRZ/obKZHPv3gbAfjE8nWGApAAbAH8f9nfrkiRJ0s5UzfL7xrB0roGRwm0A1PLTK1lzn94GwCHhXAMkBfB78Vouu3VJkiRpZ6rU8r1iWDo9LBoaKZhz0qn8ABsAFMV14QluW5IkSdqVqrXmC2NYutHASLE0zw2HjLQa5SNicDrfAMmA+1zbAYCSJEna9Q2AJ8bA9C0DI4XcAIih6cjwdQMkgy35YKdROtwtS5IkSbtSmjXvHwPT+QZGinUGQPML8dq+T28D4Kh2vXypAZKB/vm/RnJGd+PIPm5ZkiRJ2tViYHqncwAo2AbAJeGokVa9/KAYoH5qiGSAzYeXuFVJkiRpKUqz/M9iaLrZ4EiBfgXg8rTWfMBIDE4PM0Ay4K5o15Nfc6uSJEnS0mwANJ8fQ9NPDI4UyFx4iA0AiuC/WvXyL7tVSZIkaYk2ANbEsPQdQyMF87DeGQC/aYBkwJ3XO8vCrUqSJElLUWVq/tAYlv7bwEihZPOP6m0AvMAAyYBb350d2detSpIkSUtVtdb8VAxNmw2OFOYcgKz5gpF2I3mJAZIB1g5/4xYlSZKkpSytNc+OoaljcKRoGwBnGCIZYM1Wo/wGtyhJkiQt6QZA1nxdDE0tgyPF+QpA/ke9rwC8wxDJAPtpu5G8yC1KkiRJS1kMTGvDJoMjxdF8uw0ABt2P4jV8sluUJEmSlrLKZPORMTTNGxop0AbAO2wAMOgu6zRKx7lFSZIkaUk3ANYtHBJDU25oxAYA9I9L4jX8YLcoSZIkLXUxNDUNjdgAgP7x351G6XC3J0mSJC3DBsBlhkaKtgFwviGSAfbF7uxIye1JkiRJS11aa15gaKRoGwBfMkQywC5ya5IkSdIybQDMGBoping9X2gDgEG22GqUP+LWJEmSpOUohqa/NThSoA2AL9kAYJB14vV7jluTJEmSlmcDoHmmwREbAGADQJIkSTYAwAYA2ACQJEnS4G8A5BMGR2wAgA0ASZIkFbw0a55mcMQGANgAkCRJUvE3ANYaHCnWBkCjfLlBEhsAkiRJkg0ACr0B8NURQyQ2ACRJkiQbABTez2wAYANAkiRJsgHAELABgA0ASZIkyQYAQ7EB4BBAbABIkiRJt98AmMr/wNBIcTSvtQGADQBJkiTpDoqB6UxDI34GEPrDYruRbHBrkiRJkg0AsAFA8X3WrUmSJEk2AMAGAMV3UXfWzUmSJEk2AMAGAEX335svWHWY25MkSZKWYQPgrwyO2ACA/nFJvIYf7PYkSZKkpS7Nmp8yOFK0DYCPGyIZYN/uNEonuD1JkiRpyTcAas0LDI4U6GcAP97bAHiHIZIB9j/tRvJUtydJkiQtdTE0/Y+hkQJtALzDBgCD7ietRvm33Z4kSZK0lFUmm70NgKahERsA0D9ujtfwn7pFSZIkaYk3AE6MoWne0IgNAOgfrVaj/NduUZIkSVrK0snmE2wAYAMA+s8/dmdH9nSbkiRJ0lIVw9JvxdC0ydBI0TYAXmOAZMB9otMoHe42JUmSpKUqzfI/jqGpZWikQCZ7GwAvMEAy4D7fqpePc5uSJEnSkm0A1Jpnx8DUMTRSFGmWv3ik3Uiea4BkwH2v1Sg/w21KkiRJS1Flojua1vJPxtC02eBIcTYAmi8Y6cwkjzVAMuCarXr5xW5VkiRJWpINgNMXDo6B6auGRgr2BMCvjsTw9DADJIMvmehudBCgJEmSdr00az4mBqbvGRopmIf1zgB4aAxQmwyQDPgGwPsWG6OHuV1JkiRpCTYAfieGpZ8ZGCniBsD9w3cMkAy4mXYjOcbtSpIkSbu8AVDLazEszRsYKdDj/1eFo3sbAEeFSwyQDLiftOrlx7ldSZIkaVeqvLm1TwxM6w2NFGoDoNa8JBzV2wC4b7uRfMkASQH8RryeR922JEmStLOlWfOYGJguMDRSsA2Ar4Ujez8DeFj4uOGRAnhbu57s47YlSZKkXdgAeHIMTJcZGimW5sZ4bR/RewLgkHCu4ZGBV08uDAe7bUmSJGmnNwBq+W/FwHSdgZGCbQCcGw4Z6cyUDmw3kncZICmAhXBfty1JkiTtTJV1C6tjWHpTWDQwUsgNgN4j0zE0TRgeKcjPAT7frUuSJEk7UzXLHxjD0qcNixTwVwAmKpPNfXobAHvG4PQagyMFsd6tS5IkSTtTmjVPimHpSgMjxTsEMH9jJWvuveWFHkPTrxscKYgfdGdH9nX7kiRJ0o5UmWwmMSj9tmGRgvrdSi1PtrzYW43y02NwutHwSDHOAUiqbmGSJEnakWJA2j/8g0GRAmpVa81Tbn2xt+tJGoPT/xgeKYB2vJ7f7BYmSZKkHSmt5YeHSwyLFNCP0lrzif+3AdBIjovB6QuGRwri4s0XrDrAbUySJEnbWzWbf6RBkYL6Zpo1H/1/GwD15EExNJ1ncKQgrojX9JPdxiRJkrTdGwC1PDMoUlCz1Vrzl259sXcapcNjaPpHgyMFMd9uJGd0Z0cStzJJkiTdXZWJ7h4xJH3doEhBfTzNmkfd+oJfnBndP4amdxgcKZDzOjOlI93OJEmSdHdVs7nHx5C0YFCkoN5XmWwecusLvjs7MhoD0+mGRgr1NYBG8mtuZ5IkSbq70lp+TgxJHYMiBVXr/czlz73oW43yK2JoahocKY7krMWZ0f3c0iRJknSnw//U/P1iQPqGIZGC6m1s/dntXvjtevL8GJp+bGikQD7Xqpcf5rYmSZKkOyuGo5eE6wyKFNRP01rzBXe0AfDMGJi+Z2ikWIcBlk+L17bDACVJknS7KrV8n7SWv8fj/xTYlWmteertXvydRukRvd9PNzRSKPXkI+EAtzdJkiT9YmmWPyoGpK8YEimwb1VrzSfe7sXfbiQPjIHpM4ZGCmZucaY05vYmSZKk21aZ6CZplr8iBqSmIZECuyidyo+9/QZAPVkVw9L6sNnQSMGeAjjHLU6SJEm3rZrlD4rh6HwDIgX375VafsgdXgStRvkvY2DaZGikYL8GcG1npnS425wkSZK2DP+1PAnP8ek/Q/ALAO+/0wuhXU9eFgPTDQZGCqbdbiRvdKuTJElSr7SW3zMGo08aECm4PM3yiTu9EDqN0lNiWLrawEjB9L7WcnFnpvRgtztJkiSlWbPi03+GwLXVO/oJwP+t3UgeHoPSFQZGCuj6eH2/3O1OkiRJadb8gOGQIfDDdCp/zJ1eCN3Zkb1jUPqmYZGCmmnXkwe55UmSJA1vlan5h8RgNGc4ZAh8t1LL73OXF0QMSHWDIgV+CuBl8Rrfw61PkiRpCIf/dQt7pFn+zm2HoxkQKbov3u1FEcPRWw2KFNh57UZytNufJEnS8JXW5k6Koeh7BkOGQZrdxS8A/G+tevn3DIkUWLPdSF7Yridlt0BJkqThqVLL94+h6JywyXDIcGi+/m4vjBiMHrft1HTDIoXUapS/EQ53G5QkSRqe0ix/hk//GSKb06n86Xd7YXRnR/bd+rvpBkUK/LOAM8mfx2t91K1QkiSp+FWy5uExEPVO/t9sMGRYNgAqtfyB23WBtBrlywyJFPwpgB91GqWHuB1KkiQVuxiEkvDscJ2hkCFy83ZfJO16ssGQSMF12o3k7N5PX7otSpIkFbe0lh8cw9D5BkKG7ADAz+3IBsBrDIgMgR+0G8mz3BYlSZKKWzXLnxsD0YKhkCHztu2+SDqN5AmGQ4bjKYDyv3Qapfu5NUqSJBWvyrqFQ9Ks+U3DIEP3BEAtf852XyitRvn+4XIDIsPxs4Dl1y/OjO7lFilJklScYghanWb5e+Nvx0DIkLklPHRHNgAOD58yHDIkvtqpJ4/pbvSrAJIkSUWoMtEdjeH/tBiCrjEMMoS+nNaa993+DYB6+R4xFP21wZChUU8+GA5wu5QkSRr8YgB6WDXLZ+LvomGQIfT+tJYftN0XTAxCSQxFv2MwZKi+ClBPXuR2KUmSNNhVpubuEQNQFnKDIMP5/f+5P65Mza/eoQsnhqEnxlB0lcGQIXJld+PIkW6bkiRJAzr8b3n0f/6JaS3/gUGQ4f3+f/PUyrqFVTu2AdBIHh4D0ecMhQyRxVa9/M+LM6OHuH1KkiQNXjH43zcGoPPDZoMgQ+q7aa35uB2+eBYbo/duN5L1hkKGzA3xun9du574VQBJkqQBqrJuYXVay99qAGTIfapaax69wxdQd+PI6hiCzuh9KmooZMhc2m4kT+3O+lUASZKkQSmG/+fG8NM0ADLk/qZy+tz+O3URtevJH8QwdKOBkGH7KkCYadXLD3UrlSRJ6v9i6Dkp/LdH/xlym6pZ/rreWRg7dSHFAPSEGIS+aSBkCLXajeTd4R5uqZIkSf1bZWrufjH4fCS0DYAMuR+mWf7snb6YuhtHDo1B6NOGQYZUp91IXtudHSm5tUqSJPXZ4D/RHanU5g5Ns+bZWz75NPzBReHYXbqw2vXk7BiEbjEMMpySG8OTbAJIkiT1V9VsfnVam3t5DDzXGfwgXwznVtYt7LOrGwAvjEHoWoMgQ2pz+HK7kTzebVaSJKmPNgBqzWf1fvLM4Adb5NUsn9jlC6tTLx0XA9APDIIM93kA5X9vNcrHudVKkiT1w/CfnxC+buiDW12d1vKn7vLF1d04ske7nnzZEMiQ2xTe26qX7+2WK0mStPuqTDaPimFnxon/8HMuq0zectCSXGTtevK2bY9CGwQZ9kMB37XYGD3YrVeSJGmFB/+J7qpKlj8wzZofc+I//Lw0y9f3DsZcqg2Ap9kAgC0WOo3S67sbR/ZxG5YkSVq54T/NFo6IIeddhn+4nd7TML+/ZBdcd3Zk/xh8bjL8wRZ5p1F6TXfjyP5ux5IkSctfms3tF8P/mTHk3GTYg9tvAFRq8w9b0ouu1ShfaPCDW38e8CedRulPbAJIkiQtb5WJ7uoY/rMYcq436MEduiquk/KSXngx8GSGPrjtzwMmPwm/250dSdyaJUmSlmn4r+VviQHnZkMe3KmPLvnF15kppVsPQTP8wW1c1W4kz11sjDoTQJIkaekG/1Xp5KaDY/g/e8vvmxvw4K4OADxtyS/CVqN8VAw73zHwwe3c0GmUXudgQEmSpCUa/nsH/tXyv4zhpmnAg7t0Q3jQkl+IMeAc0G4k5xj2wMGAkiRJy1U6uemQbcO/A//g7n0izZqHLvmFGINNqVNPnheDTsuwBw4GlCRJWuq2fef/b3zyD9vtT9Opub2W5YJsNconxaBzqUEP7uxgwPJ17Uby1s5M6TC3cEmSpB0Y/mv54TH8vysGmjlDHWyXa9Msf0Zl3cKqZbkoO43SETHgfMigB3ep024k7w5HuZVLkiTddTHEJGnWPC58Mv51y1AH2+2T1Sx/4LJdnL2fO4vh5vVhwZAHd+sz7Uby8LhuSm7tkiRJdzD8Z/keMcQ8LXzOMAc7pBPeUqnly3sQeQw0T/Y1ANjurwR8oV1Pnt7dOLK3W7wkSdL/VZno9ob/54RLDHOww35czfLnLfuFunjB6H1iqKkb7mB7vw5Q/manUXppuIdbvSRJUgz/6xb2S2tzr44h5vsGOdgpX05r+diyX6y9x5lbjfLZMdRsMtzBdj8J8NN2PXl7OMAtX5IkDfXwPzV3vzRr/m3vADNDHOyUxWqt+U9xLa1ekYs2hpiTY6D5scEOdvhwwM92ZkpHxzVUdvuXJElDNfjX8r2qWV6J4eXz276/bJCDnXN9muW/v2IXb3fjyKExzHzNQAc7I7k8/j63XU8OthSQJEnDUAwsh6a1/HVbvrdseINd9YNqbe74Fb2IW43y3297tNlABzvuJ+16+S879dKx3Y1+JUCSJBWzykQ3iUHlhBhYzgnzBjdYEp/uHaK5ohdzDC6/EkPMokEOdtpc+Gx7Jnme5YEkSSrc8D/Z3C/N8tNiWPmPsMnQBktic5o1/2DFL+juxpHVLecAwFK4ulUvvzWuqcMtFSRJUhFKJzfdNwaVd4Vrth5YZnCDpToAMK6ve++WC7vdSN5peIMl0Q5fbc8kz47r6p7terLK0kGSJA1SlXULo2mWHxB+K82a1zjoD5ZeXFu9x/93z6zQmSn9cgwt84Y3WDLN8O52I3lMd3ZkT0sJSZI0CFVrc/umtfwJMfxPx5CyYFCDZdHbVHvBbrvQW43yvcKFhjZYcpe1G8nr2jPJQ7qzI4llhSRJ6tcqWfOYGP7/LAaTS33qD8vq8mqtedRuu9g7jdLeMaT8uWENlkXv6Zrz4hp7cVxrB1leSJKkvhr8J5v3SrP8D2IomQk3G85gmR//r+XvCQfutou+OzuyKoaTp/QOMTOswbLo/dLGT1uN8kxca79mqSFJknb74L9uYXUMIyeHerjWYAYr4pZqrXlaZWpu9/6EeGemdL8YTD5iUINltXnrEwHJue168vj4e4/4O2oJIkmSVmTon+iuqmb5/unU3FNjEGls+57/ZkMZrJjPhmN3+5tB7/vJMZi8PiwY0mBF3NBuJB8MT+80SkdakkiSpGUb/NctlKq1uXun2dwTq1n+XkM/7LbD/95SqeX79MUbQwwiT4qh5FKDGayoa+La+5fLNx743LENa+9jiSJJkpayNGse3TtxPPxT6P2s36JBDHaLq6pZ/pt98+bQmSndszeIbPu+ssEMVkhe37P75o+v+dma6bWfGJsef9XYueNHHf+xk301QJIk7XSVLH9wWsvfsO1R/58avmC3m02n8gf01RtFq1H+oxhIbjKUwcqYi+H/bZ84rvuYDSd310yv3RxuCF8fm1579pr1pz7U8kWSJG330L9uIUmn5k+Iwf+MGDa+EpqGLugLm9Isf3vv6zh99aaxeeOqo3wNAFbGtRv37q77+Andx24d/n9RO9w4Nj3+72Mb1p4S7h32Pf5jJ6+yvJEkSVsG/lo+GoPFvmnWPDzN5tZWa83z49/Phbbv+UNf+Z/wuL58I2k1yu/ddlq5IQ2WQVxj3as37tc9M4b/x234tTsa/u/IZWPTa98xtmH8qWPT4w9aM33KPpY9kiQN7eC/TzXLj01r+bNiqDg7zZpX+G4/9LPmpyoT3dV9+YbSrie/7BwAWD4/2bhv9y0fP777+O0f/m8Vw3/vKwL1NdPjWfzrtWMb1h53/MdO3sNSSJKkYpdmc/vG0N97vP83YqCohS96xB8GwmKa5S/o2zeX7uxIOYaULxvUYDkO/FvdrX38xJ0a/n9BJ/wofD68O7z4xOnxY49ff/KelkiSJBWjyrqF/SpZvqZaa7522yn+F4Uf+7QfBsq1lcnmwX39ZhODyisNa7CsB/4tpcXQ+xWBb41Nj583tuXpgLW/evy5Jx9h6SRJ0gAN/LW859g0y5+b1vJ3xODw2fDtcKMhCgZUlr+r7998Wo3y0eFHhjZYugP/zrjzA/+WUu+XBFphPlw/Nj3+n/H3b9ZsGD9t7NzxB8e/Pyz+/YFrpk/Z+4QNJ+9x/LknW21JkrRCpVMLo2ltfnW1NrdvDPkHh/umtYVHxb9/eQwKH0iz5nfjbx4WHOQHBTn9f2ou7fs3p3Y9OaDdSP7O4Aa75cC/5dL7ZYErwsY10+NnjW0Yf0X86yePTY8/Jv4ev2bD+DFrpk85/BHnnnJg2NcyTZKknfgUf93C6hj0D0yn5g9Na3P3r279RH9NDPdPjEH/2eHPwt/Ff/al+M/mDEhQXHGdf7S32df3b1zd2ZFSp5GMxwBznSEOdt6Pd+HAvxXSO0vgmvCNcMGa6fEPxt+/DWeGV2/z2+HU2xqbHn/amg3jjwZW3qPfmz3uCWd99zExQDwa2C2qsaA/9Rc8Lxb7rwivDhPxf+Zv4+97wr+FL4Xv9D4JNBDBcH36X83y361MNssDsXvZricPiAHm3wxxsHOa9dXdqaU58G93uzFc/QsuDxcDK+/R7/vzr1XO+vZXY2FxMbBbfCtc/QuuCx0DD3AbF1Wz/LiBeXypXU/KrUb59THILBjmYMcP/Hvr8hz4Bwy5R7/vDd3KWd+2sAKA/tU7w+OMdHLTPgP1HabOTOn/xTDzBQMd9OWBf4ANAACg/3w3zfKnVya6g3eQSbuenOEpABi4A/8AGwAAwMrrfR3oHyvrFvYZyJNMO43So2O4ucKABwN/4B9gAwAAWF4/S2vN5w/sT5l0Z0dWx3DzobDZkAeFP/APsAEAAOysLL+oMjV3yED/nmm7nvxKDDkdgx7c2YF/xzvwD7ABAADDbTH83sig164npVajfLFhD37edQ78A2wAAABbNHs/C1oeKUKdmeS3Y+C5xdAHDvwDbAAAALfz+pGiFAPPvdueAgAH/gE2AACAX/TDNJt/SGE2ADqN0l7tevK6GH5aBkAc+OfAP8AGAACwVVrLz0xrc/sWZgOgOzuyql1PxmIA+rIhEAf++c4/YAMAANji22ktf0Jl3cKqkSK1ODO6Z7uevCEGoQXDIA78A7ABAABO/s/fVZlsHjxSxNqN5FHOAsCBfwA2AACA/HtprfnMkaLWnR3ZK4ait3sKAAf+AdgAAIAh1grvr0w27zlS5NozySNjMPqB4ZCiu9mBf4ANAADgjl2VZs1njBS97uxIudUonxMD0mZDIg78A7ABAABDZnNaa36kMtnce2QY2rxx1cNiSJo3KFLsA/988g/YAAAAbmdTeObIMNWuJx80LOLAPwAbAAAwTNIs/7eRYaszUzouhqYfGhxx4B+ADQAAGBLXplmzMnQbAO2ZZN8Yms40OOLAPwAbAAAwFJ/+1/L3pVnzwKHbAOjOjqyKwenx4dsGSBz4B2ADAAAK7uq01nxGZbI5OjKMLV4wum+7kbwlhqiOQRIH/gHYAACAgloM747h/5CRYa7VKD8uBqmvGSYZxAP/znDgH2ADAAC4e99La81njgx73dmRvWKgOiPMGSxx4B+ADQAAKJhbwj9UJpv3HNHISKdReki7nnzDYIkD/wBsAABAwVyR1vKTTP7/9xTAaLue/EUMV4sGTPr9wL+zHPgH2AAAALbzu/9plp9TWbdQNvnf9kDAmdGD2vXkR4ZMHPgHYAMAAIqheXXl9NYhJv47OhCwXn5JDFq3GDbptwP/rtl24J/hH7ABAABsp054nUn/zn8R4NAYuOqGThz4B2ADAAAG3Fer2fwDTPp3UrueJOHZMXRda/DEgX8ANgAAYEDNVbP8JWFPk/5dnQVQH71Xu5F82PCJA/8AbAAAwID6WJrlR5nw7+4XATaOrGo1ys+MAew7hlB2l+u3Hfj3OJ/8AzYAAIAdc1Vaa55WmWyOmvC372cB92jXk7fGILZgGMWBfwA2AABgQLTCuyvrFvYx2e/YeQBrYiD7hqEUB/4B2AAAgAHxnWpt7iQT/Y4/BZC0G8lrYijrGExZCTc58A+wAQAA7NLP/jXfVJnoJib6najTKB3QridfM5ziwD8AGwAA0M/SLP9u/D3IJL8rmwAzpSfHgLbJkIoD/wBsAABAn7olzfLnm+B3/SyA/duN5O0xqLUNqzjwD8AGAAD0mcUY/v8xHGiC3/WzAFa1G8kvx8D2VUMrDvwDsAEAAH3m0mqWP74y0V1lgl+aswD2bjeSP4qh7XqDK0tz4N9eDvwDbAAAALvq5vDGsK/JfWk3AY5q15NPxvC2aIBlKQ78e6wD/wAbAADArvlMWms+xMS+HF8FqCfjMcD9yBDLrhz4d6YD/wAbAADArvtRtdY8tVLLR03sy1SrUf5bTwGwawf++eQfsAEAAOzawX/VLP+7ykR3tSl9eX8V4H4x0H3dUMuOuMaBfwA2AABg6VxWmWzez4S+EpsAjeR5MdTdYrBlew/8W+fAPwAbAACwNG5Js7kXmsxX7kDAg9uN5AOGWxz4B2ADAABWUlrLP5DW5g82ma/cBkDvQMBHx4D3NUMuDvwDsAEAACvka2nWfHRlam6VyXxlfxUgadeT341B72eGXRz4B2ADAACW2XXh9yoT3cREvnueBDi03Uje5zwAHPgHYAMAAJbze//hg+HeJvHd+6sAjwjfMvjSc6MD/wBsAADA0vtWmuWPMIHv/q8ClDqN0oti+GsbgB349xYH/gHYAACApdVOa/mLKhPdkgm8P74KsEe7nnwihsDNBmEH/lnkA9gAAIAlsphmzU9Upub2MHn31ybAg9r15NuGYQf+AWADAACWRJb/Vzq58EATdz8+BdBIXhBD4TUGYwf+AWADAAB20TVplj+nMtksm7j7cxPgkBgK/zrMGY4d+AeADQAA2Elz1Sz/62o2d4hJu38PBFzVqZeOjeHwQgOyA/8AsAEAADvpwjSbO7Yy0V1l0u7nTYCNI6OtevmZMST+wKBcTDds3MuBfwA2AABgufygmuXPrNTyURP2gNSuJ2+IYXGTgdmBfwDYAACA7bQpzZqvNFEP3tcB7tGuJ580ODvwDwAbAACwfZr/UpnorjZRD+JTAI3kUTE4+mnAIhz4t9GBfwA2AABgWX0lzZrHmaQHdQNgJtkzhsffD9caoh34B2ADwAYAANyJa3s/+VetNROT9OB+DWBksT56UKeenBWD5Lxh2oF/ADYAbAAAwO1+8q+WT1am5vc3RRegzkzpATFMfiS0DNWDdODfvt11DvwDsAEAAMvnlvD+ymTzMJNzsc4DeGQMlheHzQZsB/4B2AAAgKG3OXyhWmseb2Iu5pkAz47h8mYDtgP/AGwAAMDQuzmt5U8zKRf3TIA9241knSG7zw/889g/gA0AAFhmMfy/tjLRLZmUi/1VgCPCx2PYXDRwO/APwAYAAAydTnhPNcsPMiEPwyZAPTk2fN55AP124N+JPvkHsAEAAMupnWb5J8ODTMbD81WAUqdeOrldT75tE8CBfwA2AABgaA79+2qazT3Jo//DtgmwcWTvTqP0shhAf2YI372P/TvwD8AGAACsgKvSWvM3KusW9jARD2GdmdIB7UbyVzGIdgzjDvwDsAEAAIXVCq+q1PLVJuHhPhRw33Y9+YRDAR34B2ADAAAKaTHN8g9XDf/a9iTAkTGUXmgTwIF/ADYAAKBQbonhvx4ONvnqf88DSDr10q/EgPo1Q7oD/wBsAABAMT75D/+RZvMnVCa6q0y+uu1PA66OAfW3w/8Y1B34B2ADAAAG3jfTWvOZlVru0D/dvla9vH+rUX5TDKs3GtiX/sC/Mx34B2ADAABWxtXh+ZXJpu/96y42ARrlvdv15J0xtLYM7kv3yf9bHPgHYAMAAFbGXPiTqk/+tV1nAsyO7N1qlKdtAjjwD8AGAAAMlIU0y88w1WpHfxng3u1G8ukYZDuGeQf+AdgAAID+/+Q/hv8PppObDjfRakd/GaC0WB99RLuRNAzzDvwDsAEAAH2tEz6aZvNHO/FfO//zgI2k9/OA3zDUO/APwAYAAPTrz/01Z9JafmJl3ULJJKtd+SpAuVUv/1oMtt833N+9Gx34B2ADAABW1tfTrDlWqeWjJlgt1a8DvDAG3GsM+Q78A7ABAAB947JwkolVy7EJ8JoYdm828N/RgX/7OfAPwAYAAKyk74anmVS1XF8HuGerUT4zBt6bDP2/eODfCYZ/ABsAALBSrgwvqtaae5pUtTyHAs6OrGrPJIe1GuW3eBLAgX8ANgAAYLe4Ks3yl4f9TKla9k2AzkzpwFajfFYMwE0H/h0fw79P/gFsAADAivhxDP4vDatNp1rJjYDV7XrynhiEb3Hgn0U1gA0AAFh2N6W15utNo9o9mwAbRw5r15PpGIrbDvwDwAYAACybm9MsP6sy0fXJv3Zfmzeuun+7nnw4BuPWMAz/12/c24F/ADYAAGBlP/nP5s5MT990TxOodvdTAKOLG0eP2bYJ0HbgHwA2AABgKT/5j+F/cuGwykR3lQlUfbEJsO1JgOminglwY32v7ls+4cA/ABsAALCyj/33Pvk3/KtfzwT4xyJtAjjwD8AGAADspuE/851/ORjQgX8A2AAAwIF/koMBl/LAvzMc+AdgAwAAVv7AvwNNlnIwoAP/ALABAIAD/yQHAzrwDwAbAAAMoOvSWj7pwD85GHCFD/ybcuAfgA0AAFg5V6dZ/kLTo4q0CbA+hux5B/4BYAMAAG51VQz/LzU1qlAt1kfv12qU/yoG7Zsc+AeADQAAyL8XXppmudP+VbCnAGZHRtozyWGtRvnMGLhv7rcD/85w4B+ADQAAWDlfD78e9jEtqqibAKs6M6V7tuvJG2Lw/mk/DP833Xrgn+EfwAYAACy7zeGy8NRQNiVqKGo1yi+MAfxqB/4BYAMAgCGxWK01P1eZmjvBRKhh3AR4SQzjl++ODYCrHfgHYAMAAFbOphj+G2ktf5hJUENZu57s0W4kvxkD+X858A8AGwAAFNRcNcv/Mc3mHl6p5aMmQQ1tnZnS6k4jeVq7nlwUw/miA/8AsAEAQIHckGb529LJ+QdUJrqrTICyCdAoJYv10Ye368lnY0jvOPAPABsAABRAM4b/yTSb28/wL/1C3dmRvVuN8odjWG8u14F/jzH8A9gAsCAFYNkP+8uvDs825Ul30eLM6EHtenJWDO4/c+AfADYAABgwrfCf4TlhDxOedDe1GuWDY3B/bfjerg7/1znwDwAbAACsjFuqWf7pNJt7XMXwL+3Q4YD7dhrJae168p0Y5Dc78A8AGwAA9PMn/2mWvzeG/2MqE10n/Us7cTjgHosbRx/dapQv2dFfCLipvtqBfwDYAABgZR77z/LT0yw/wBQn7fq5APdq15N/icH+5u058O/HDvwDwAYAAMuvHS5Pa/mLK1NzHvmXlqp2Izk8nBFD/o/u6isBWw/8851/AGwAALCsNqVZfkF4ZqWWrzaxSUt/LsBBnXrpd2LQ/9YdbQI48A8AGwAArMhhf7X872P4H6tMdEsmNWmZ6m4cWd1uJI9v15OL7/jAP8M/ADYAAFguzYUY/P+imuVHmM6kldgEmB0ZbdeTB7Ybyb/G8N/uHfh3lgP/ALABAMDy2RyuTGv5CytZvq+pTFr5rwQcfH19r4kzPnHClY/ZcPKixS0ANgAAWAZz4bw0yx9pCpN2Y8efe/J+Y9Pjp8XC7sLQscAFwAYAAEvop9Va86z4e7TpS+qTxqbXjsXi7u/DLRa5ANgAAGAJfCPN8hdX1i3sY+KS+qw106cePrZh7atjkfcDC10AbAAAsJPa4ZOhGhKTltSPXwf42MkjJ24YXz02Pf7EWOh9wVcCALABAMAOujHN8rPTqbkjK1NzfuJPGpCzAQ4bmx5/Syz4rrboBcAGAAB3o9V75L9aaz7LNCUN5hMBq8em1/5WLPr+y9MAANgAAOBOXF/N8ul0snmcKUoa4MY2rC2Fx4xNr/3HWPzdZAEMYAPAQheAbRbDN9Na/kfp5Py9KxPdVSYoafCfBFi1Znr83mPT46/1lQAAGwAWvAD0DvpLa81Pp1N5tTI1t7epSSpYJ06P73XihlMeOzY9/p++EgBgAwCAobS5WmveWM3yN6e15iGVdQsO+pOK3Jr143uFN41Nr/12LAhbFsUANgAAGIbBP785nJ9O5SfF4D9qMpKG5WsB608uj60ff0IsCDeE6y2MAWwAAFDo7/pfWq01/6Ka5fczDUnD+7WAI8em1/5hLAy/bnEMYAMAgMK5JXwirTWfWlm3sJcJSPI0wJ5j02sfHT4QC8RbLJIBbAAAUAhXpbX8jdUsP9rUI+nWxjasXTV27tqD4+/vxyLx+2HRYhnABgAAA2lTtdY8P/4+IZ3K966sWzDwSLrTzYAHja0ff1csFq+xYAawAQDAwGiFS9Isf3FlorunyUbS9n0t4GMnrx6bXvu8WDBeFOYsnAFsAADQ135UzfIPVSabDzfNSNrh1qw/dXRseu1xY9PjWfz9rq8FANgAAKDvzIeN4XlpNn9IZaK7yiQjaac7cXp8/xM3jFfGpte+OxaQmyyiAWwAANAHsvzKtJa/Nq01j6msW0hMLpKW6isBq8am1x5w4obxk9esH/9aLCQ7FtMANgAAWHGbQztsqE7On1CZmlttWpG0bI1tWHvA2PT4q2Ix+fWwYFENYAMAgBUZ/G8K/5HW8l+rrFvYw2QiacVas378uLHptX8di8rvWFgD2AAAYNn0PvH/UjXL/7gy2TzcJCJp93w1YP3J+4ytX/vMWFj+c7jRAhvABgAAS+rScFYM/48wfUjqgycBTu2dD3Dk2PT4C+Pvl5wPAGADAIBddlNay98bf9M0m9+vMtE1eEjqn05cP77HiRvG779mevxPxqbXXuVnAwFsAACwwzpprXlBmjWfFg6srFsYNWlI6u/NgI+ecs8168f/Ymx67SWx6Jy38AawAQDAnVoMN1Sz/KK0Nve8ytScn/STNFgd/7GTR8c2rP2lWHS+NfjpQAAbAADc3lw4L4b/V8TfI0wRkgZ7I2D9yXuNrV/72LHptWfGAvTbFuEANgAAyFtbTvav5a8PDzA1SCpUJ6w/Zd+x9Wsfv2Z6/OxYiF5rMQ5gAwBgGL/jX601vxF/XxfG0tNbe5oUJBX1aYBVY+vH91+zfm1lzfrxDdvOB9hsYQ5gAwCg+N/zb161ZfDP5o+uZnN7VSa6q0wIkoamNetPfcSa9eMfiYXpD8OCBTqADQCAAtkcmjH4fzP8RXp6+0ATgKRh3wTonRFQjcXp27cdFti2UAewAQAw4G4M9Rj831jN5h5cmej6OT9Jus3XA7YcFhiL1DeHL4WWBTuADQCAARz8N1az/CUO95Oku+mEj56y59j0+NjY9NrXxt8vxqL1Fgt3ABsAAH2umdaa/5xm+XPiXx8TfOIvSdv1NMDHTl514obx1WPrx+8VfjtcGovXRQcGAtgAAOiz7/h3Yuhfn2bNp6e15sGVyWZiNS9Ju9Ca9aeW1qxf+8w168c/HYvYq309AMAGAMDuPdgvv6Raa741nZo7trJuwWn+krQMGwEHjPU2AqbXvit8xS8HANgAAFhBV237fv8b4u8Drc4laQU6/mMn73Hi9PiasfXjfxqL2vPCdRb3ADYAAJZBa+un/fnfpVl+WmWyeT+rcUnaDY1tWLvH2PTaB4XxNdPj54ytH/+hRT6ADQCApRAD/8bwymqWP7o6OX9gZaLrUX9J2u1PBKw/ubRm/fgBY+vHjx6bXvuGWOh+w6GBADYAAHbi+/03xcA/Xc3mfyWG/8Mrk809rbYlqb83BPYeWz/+5PCBWPR+P8xb/AM2AGwAANzJI/4/CV+Ogf8VMfDf12pakga0E9ePn7Rm/fiZsfidCVf4BQHABoAFP+CT/nBzuDiG/ndXs/w30jd39rVylqRiPBFQOmH6lPuNTY+fPDa99vRYCG8MNxsIABsAAEP3af+l4QPVWvOlMfw/olLL97JalqTibgbsuWb9+IPH1o+fMja99qzwtVgY3/L/27vfECuqMI7j7IJmbW6BrvgHS7eybSnRe0bEqJzZCCKLruesBLaQL1whkghE6kXh5s6s0B+wQnpnRLVn7o1YSSRoRdkICpH+CILZH8ESo0jBmesaFPab9doroRKXrrvfH3yYudfx/fM8e+4zNAcAGAAAwET9a392IkryQd2vV9O/IhyozaYqJoSQyTQIqJabSxU73Xg7P/DuYePdoEldxuJAAAwAAGBCNP01NfvD0UCtV/ftUZLPUOM/hSqYEELIWEzFtZrUrZWKiuVv5bf62wRoHgAwAACAxpbLcRmJ4myTrizzI4QQ8i9OBwyVp5ZSu8R4t8Gk7l0Vzp/Lz/IHTQQABgAA0DCL/E7JIdmjpr9P17vDvvO8to8QQsjlJfDdU03qFhtve0xqY91/qEL6GM0EAAYAAPC/+FX2yetdcd4bJfk9YXxuhhr/ZipXQgghV+5kgC9fU0ptu0ldFFTc0yqoB41333MyAAADAAAYR3FeLPEbipLaZl0f0ufOMMlbqU4JIYSM/yBgqNxUet8WJwNmGm8Xlir2kcDbt1Vg/1RfIsgiQQAMAADg8o/2F07ITjX8j6vhvzWK81lhMjot7DvfRDVKCCGkEQYDU0zV3WG8e8Z4u7u+SLDYHZCzTBAAAwAAuGSzn8lJOapGf78a/RfCgbMlfstPCCHk6hkG+HLTUr96fsnbR423fSq+q/KZ/CjnaEYAMAAAMAn9KWfkO/lE3isa/ijJV4Xxubn8jp8QQshEGQi0lLy903i3xqT2WRXjb8pH9VMCNCcAGAAAmKhqclh2y6tdSbZRVkVxtijszzjOTwghZIIPA4bKzabqbgy8vU3uVWG+1qS236RuF0sFATAAAHC1i5Lsa12rUryab00U5yu64rw9TPIWKkFCCCGTeyBQLTctray+Xs3/rGKpoKnYZYF3T8pOk7pPVbifYbEgAAYAABpyWV+cH4vibFeU5C9GAzWr7xZHSXaTrm1dSa0l3DbKsX5CCCHkvyTw3XeVvH3MpC5RIf+xHJEf5Bc5Xd8rwJAAAAMAAFfy9/rFgr5TcnxsSV+Sjai5f0P369X03xf2Z9dRpRFCCCHjfWrAl1sD390RXBgKPCXbVeAPyl45KEflJAsHATAAAPAPztS38B+RgzIiH8g7avafV6PfKyvCgbNzwm2jFGGEEEJIA50UmFfy1gTePig9Kvo3yxZ5S7wMy5f10wO/0xQBDAAATAqjckIOyXCxfV+Kv+RvjeJ8oxr9Ht0/ECV5EMb5LWF/NpWqihBCCLk6hwKFNuPdPONth0ndssDblbquVlPw95BAn1/T98XrCvfIV7o/bC78vIDmCWAAAKAxnVbTfkQNfLFlf29XklXHmvs4f0mN/RZ5rljCJ2U9c78+L9czHWGSzwm31qbz2j1CCCFkEmWJLzcb76YFvrt4TeENavrbZLbcLAtM6m5X49BpUmt0b/XcujGp26DvXtEzOy7Sv+/X9QCARuQOLt+55dDKl7/5Qk3AAQANKM72qTnfcWn5djX1m/TMOnlCnzvrFun/LpQFau7n6tk2mRn1Z9PD/qxFrqXaIYRczF/XuDyTJ1+v1wAAACV0RVh0ZGF0ZTpjcmVhdGUAMjAyMS0wNC0yN1QwODoyODoxNSswMDowMFQzYgMAAAAldEVYdGRhdGU6bW9kaWZ5ADIwMjEtMDQtMjdUMDg6Mjg6MTUrMDA6MDAlbtq/AAAAAElFTkSuQmCC;labelPosition=center;align=center;spacingTop=0;html=1;spacing=17;spacingLeft=0;labelBorderColor=none;fontSize=14;" vertex="1" parent="1">
          <mxGeometry x="1428" y="363.5" width="90.83" height="73" as="geometry" />
        </mxCell>
        <mxCell id="8zym2SyQiBGokuH-IQ6u-69" style="rounded=0;orthogonalLoop=1;jettySize=auto;html=1;exitX=0.5;exitY=0;exitDx=0;exitDy=0;" edge="1" parent="1" target="8zym2SyQiBGokuH-IQ6u-63">
          <mxGeometry relative="1" as="geometry">
            <mxPoint x="1302" y="570" as="sourcePoint" />
          </mxGeometry>
        </mxCell>
        <mxCell id="8zym2SyQiBGokuH-IQ6u-68" value="" style="shape=image;verticalLabelPosition=bottom;verticalAlign=top;imageAspect=0;aspect=fixed;image=data:image/png,iVBORw0KGgoAAAANSUhEUgAABAAAAAFxCAYAAADtW9pAAAAACXBIWXMAAAjbAAAI2wHNrPlDAAAAGXRFWHRTb2Z0d2FyZQB3d3cuaW5rc2NhcGUub3Jnm+48GgAAIABJREFUeJzs3XmclXXd//HX5zoDM4ALCuK+565o7u1ZeVe26F1StmgoOjCDmhTLYMs0dylzRgwLmTOSGlaaSZp2q6n93DK91VxySU1Nc09AwQWYgXOuz++PGU0MheH6nrnOOdf7+XgQEsPn+2Y4MOf6fDdzd0RERERERESktkVpBxARERERERGR8lMDQERERERERCQD1AAQERERERERyQA1AEREREREREQyQA0AERERERERkQxQA0BEREREREQkA9QAEBEREREREckANQBEREREREREMkANABEREREREZEMUANAREREREREJAPUABARERERERHJADUARERERERERDJADQARERERERGRDFADQERERERERCQD1AAQERERERERyQA1AEREREREREQyQA0AERERERERkQxQA0BEREREREQkA9QAEBEREREREckANQBEREREREREMkANABEREREREZEMUANAREREREREJAPUABARERERERHJADUARERERERERDJADQARERERERGRDFADQERERERERCQD1AAQERERERERyQA1AEREREREREQyQA0AERERERERkQxQA0BEREREREQkA9QAEBEREREREckANQBEREREREREMkANABEREREREZEMUANAREREREREJAPUABARERERERHJADUARERERERERDJADQARERERERGRDFADQERERERERCQD1AAQERERERERyQA1AEREREREREQyQA0AERERERERkQxQA0BEREREREQkA9QAEBEREREREckANQBEREREREREMkANABEREREREZEMUANAREREREREJAPUABARERERERHJADUARERERERERDJADQARERERERGRDFADQERERERERCQD1AAQERERERERyQA1AEREREREREQyQA0AERERERERkQxQA0BEREREREQkA9QAEBEREREREckANQBEREREREREMkANABEREREREZEMUANAREREREREJAPUABARERERERHJADUARERERERERDJADQARERERERGRDFADQERERERERCQD1AAQERERERERyQA1AEREREREREQyQA0AERERERERkQxQA0BEREREREQkA9QAEBEREREREckANQBEREREREREMkANABEREREREZEMUANAREREREREJAPUABARERERERHJADUARERERERERDJADQARERERERGRDFADQERERERERCQD1AAQERERERERyQA1AEREREREREQyQA0AERERERERkQxQA0BEREREREQkA9QAEBEREREREckANQBEREREREREMkANABEREREREZEMUANAREREREREJAPUABARERERERHJADUARERERERERDJADQARERERERGRDFADQERERERERCQD1AAQERERERERyQA1AEREREREREQyQA0AERERERERkQxQA0BEREREREQkA9QAEBEREREREckANQBEREREREREMkANABEREREREZEMUANAREREREREJAPUABARERERERHJADUARERERERERDJADQARERERERGRDFADQERERERERCQD1AAQERERERERyQA1AEREREREREQyQA0AERERERERkQxQA0BEREREREQkA9QAEBEREREREckANQBEREREREREMkANABEREREREZEMUANAREREREREJAPUABARERERERHJADUARERERERERDJADQARERERERGRDFADQERERERERCQD1AAQERERERERyYC6tAOIhGRzztyW3Mod8WhbjG1w3xZjY9xH4ozAbOO+D60Hhvb99xLAMVbg/jLYS+AvY7xIbE8R8U/cnob4797Usjid35mIiIiIiEgy5u5pZxBZJ3bOGTvhfjDuBwB7AXsCG5Z3VH8GeBDjPtzuII5v94nTXyrvmCIiIiIiIsmpASBVw87t2IoVfBKLPwn2fmBU2pnAHXgU5yai3LW8bjf65MlL004lIiIiIiLydmoASEWzOfk9yNmRuB8B7JF2njXzHrBbwC8j13O5N7YuSjuRiIiIiIgIqAEgFcjmnrU5pe6xwFFgu6WdJ4Ei5jeC/ZKG7st9bGt32oFERERERCS71ACQimBgFPKfwjke49PU2gGVxss4F4LN9aapf087joiIiIiIZI8aAJIqmz27nrplY4DJwO5p5yk/d4huAD+bpmlXO+gvoIiIiIiIDAg1ACQVNrdtKKXBEyD6NrBJ2nlScjfwP9407Q9pBxERERERkdqnBoAMKGtrG8yohvHgU8A2SztPZfDbMX7gE1puSDuJiIiISAh2fsf6rIhHEOeGE5WGU7INiWw47sPf/B42BFuv9xf4YJxhvf/Nv/8bwG0F5m/csrQcrBt8OcZLOItwFhL5Ijy3CC+9QN3GT3lj48oB/i2LVAU1AGTA2JzTP04U/bjKD/YrI7ueqPRtHz/9obSTZI0V8t998w2IvDuP7/Pmll+nHUNE5O3s3NM3ZWXdpERFcsWfeOOpLwSKVLPs7I4tqIt3JWYbYDuM7cC2xtgEZyQwAhicYsQi8BTwOOb/wKPHsPivDI7u9uOmvpZirrKzrvb/xqODEhXxuNubW34QJpFUmto6aE0qks2ZsTNR9FOi3MfSzlLZ/OPE0Z1WaD+bpXU/9MmTl67510gQzomYb5p2jKpgdjGgBoCIVJ4VuVMwn5aoRqkuAqaGCVT9bP78HIue2gOKB2O2P84ewO7kGI4b2Nt+QeXMK9YBOwI74gY4uEGPx1bIPwzcifEXYrvJm6c+nG7UwGL7JObjE9UwWwL8IEgeqThqAEjZWFtbHaPqJxFF3wMa0s5TJQaDfYthxS9aZ/tEb265Lu1AIiKydmxeWwNLh+4O4BOn3JN2niyx2W0bUNfQlLySj7ezzjrdTzllSfJa1c268k04HcB6YJX0cJ9EBOwB7IFzLOZYIf8kcDVwFd2Db/JJk5anG1GkvNQAkLKwc/J7M6rh58CeaWepTrYtxpXW2X4hdXaKN057Je1EIiLSy9ra6ths8M7EtgfOXpjtDoyGhh2I4hxYFxDgYVTWWl19E7BhgEobUN/TDJweoFZ1c7YAsrA9bntgIjCRhhXLrJC/HPPzmNByo25rklqkBoAEZWAU8ieCnw5Wn3aeqmf2NUr+YZuTP9YnTvtT2nFERLKk92ta+/a47YHZnhh74b47oxp2I+7b3/z2JdAy4GxeWwM0fDNYQedkm9f2Yx/b2h2splSLocBXcfsqhfwT5nY+MT/3E6c+n3YwkVDUAJBg7Cenb8rg3C+AQ/SOKCTbmsivtUJ+Bgu6f+StrXHaiUREapV1nrY1VtcKjAZ2A1uv90ua5gIr1vL6Y4DNg9UzNqW74VigEKymVKMdMP8ROb5nXe3nEZfavfk7z6QdSiSpKO0AUhus0L4fg3O3AoeknaU2WQ74Lps2XGNdbaPSTiMiUrNs0JbAOOAAsrH8uarZ/Pk5sMnBCzuTe2uLUI9bM1b3mBXyZ9vsjq3SDiSShBoAkph15k8AuxnYJu0sNc/5KF5/qxVmjk47ioiISOoW/uNIYKcyVN6Bl54YU4a6Ur3qgYnU+aNWaJ+mBpFUKzUAZJ0ZmHV1fA9jDune9Zoxti2UbrJC/jNpJxEREUmV2ZSy1XZaVnPRncgQsHYWPXGXndOxf9phRPpLDQBZJzZr1hAK7b/B/XtpZ8mo9YD5vasvREREssfO6TgU2K+MQ+xNV/6/ylhfqts+xP5/1tXxPTWKpJqoASD9ZjNnDqNhxe/Ajkg7S8bVYcyxQv60tIOIiIgMuNhbyj6GM63sY0g1q8P9f+jsuNIK7RulHUZkbagBIP1iZ7UNZ1jxD8DH0s4ib5qiJoCIiGSJdbYfwMC8FznE5sw4aADGkWpmfhjYHdZ1+p5pRxFZEzUAZK1ZoX0j6uuvAzs47SzyH6ZYIX9G2iFEREQGhNnAzcxbpFUAsjZ2wnN/7mtOiVQsNQBkrdjMmcPALgPbJ+0s8o6+aV3tP0g7hIiISDlZoWMX4L8HbkCOsHNm7D5g40k12xCz63Q4oFSyurQDSOWzWbOGMKz0e+ADaWeRNXA71QrtS72pRasBRESkNrlPwgZ0Esvw6BSgcQDHrEWvgL0K/hrwau83e+XfP+3LwbpX/SW+DKwHPAe2AcRDIGoA3wAYBGwIbARs3ffjSjCc2K+xwsyPedPk+9MOI/J2agDIu7K2tohR9ReAfSjtLLLWfmRdHf/yCVN/mXaQjLkbfH7aIcovejjtBCKSXTZnxgii6OgBH9j5us2e8R0/afrCAR+72hXjUeX+vNn8+TkWProFNng7zLfDfXuM7YH9cHYHcuUcfzVGQPH3dt6sfX3cpJcHeGyRd6UGgLy7TYZ0gOu0/6pihsddNuf0533iqdennSYzjAd8Qks+7RgiIjUtisYDQ1MYeQh10XjgRymMXd3qRywp9xA+ZkwJeKbv2y1v/TnrbFuPqH5/PDoM/HBg53Ln6Rt5W1b0/NzgCAcfmDFF1kxnAMg7skL7BMxPTjuHrAsbRJT7tZ1zxk5pJxEREQnB5rcNBiamGKHZZs+uT3F8WQfe3Pq6T2i5yZumTvWmabtgpb1wP5vebQhlZp+nq/1b5R9HZO2pASCrZYWOg8Fmpp1DEhlOHP/OZrdtkHYQERGRxBY1fAnYIsUEm1O3/KgUx5cAfMKpD3pzy0l495Y4U4DF5R3QZtjcGbuWdQyRflADQP6DdZ6xGR5fDAxOO4sktjN19ecbWNpBREREEjol7QDgFZBBQvDm1te9edpM8B2BHwPFMg01iFLUUabaIv2mBoCswtraIiz+JWZpdtglKPs8ne1pLpkUERFJxObkPwzsl7DMcwGi7GOdHYcEqCMVwptaFnvTtG9jfiDGPWUa5nM2p+PjZaot0i9qAMiqRtVPAT6SdgwJzJhhhZmj044hIiKyTiImJaxQJOIzwOuJs5gnzSIVyCe03MuL3Qdh3lmWASI/UysypRKoASBvskL7fsD3084h5WD1ULrA5rU1pJ1ERESkP2zuGTsCn0tUxLnMx0+7D7ggQKTP6JDd2uStrUWf0DIR5xQgDlx+bwrtWgUgqdM1gAKAtbUNZlTDecCgtLOUw7BBg9h1+Iiq67q+sOw1nl+6NNTVMXvQXf9d4LuB6omIiJRfsXQyZsnucff4xwBE0U+I4yaSTYJFxPE3gRMTZZKK5c3TfmKdHSsxnxO2ctQI/L+wNUX6Rw0A6bXpkOm47552jHL55l77Rz844IPJ3jwMsIseeyg+6c9/LAUt6vYt62q/1Ce03Bu0roiISBnY3PyGmB2bsMqtPnH6HQA+fspjVshfC3w6YbSxVmj/nje1lPcEeUmNN0/ttEJ+RyDgNX5+uJ17+qZ+/Kkvhqsp0j/aAiDYnPweuE9JO0e51OdyTNjjvVXzWl/S080x119ZGnvDVaXXVqwIXb4Op2BtbWr+iYhI5SsxDlg/UQ3nx6v+2H+aqF6vYbidEKCOVLIF3dOAuwNWHMzK6JiA9UT6rWoeiqSMcvyEGr7y7yvv2S3abOiwqlj+f8NzT/k+888vXvz4w6H3nb2F7cumDXrTIiIiFc3mz8+RfJn9k2yy/RWr/D/NLdcCDyesC8bJNnduTW6dlF7e2lrE7WigO1xVOyxcLZH+UwMg4+ycjiNxPpx2jnI6aa/9K/513l0s8t07/1Q67Kr5xYB7/t+Z8wOb2zay7OOIiIisq4VP/jewfcIqs3zMmFW20zk4xuyEdQG2JF78xQB1pIJ589SHMQoBS77fZs4cFrCeSL9U/IORlI/NmjWEOJ6Rdo5y+tQ2O9heIzap6Nn/hxYv8g9e/qtix713xLGX/9m/z0YU6783UIOJiIj0m3FKwgqL8e6fr/Znou4LgJcT1ofYTk5cQypfHHUAywJVG8zQ4ocC1RLpN+0DzrKG7iaItk07RjmdMnr/ij34z93p/Nu98bTbbyqtKIU962+tGI12zhln+/gpjw384CL9Z3PbhlIcsi3OFlg8ksiG4z4coo3A1wPrXYprPhinDmwZHndj0XI87gZbTORPE/Ms5J7x5in/Svm3VDVsbn5D3Hai5JtjvjkWbY4zBPfhmBn4ULBueq/NegXiIm4vYv485s+DPceInud9TGvwg02kNllX+3vBPpCwylxvbn19dT/jja3LrJA/H5icbAh/nxXa9/OmlpD7xKXCePOUf1ln+/mYBbr5IfoEcE2YWiL9owZARtnMmcMYFgU81bTy7DVipB2yxTYVOfv/7NLX/Lgbry7d9NzTAzbl/58sRxxPB45LL4PIqgyMzvYdIRqN+a6Y7Yn7bsC20LAR5mB9H+l93/PGXyNf5TtwMHvL94Bb36+PsUJ+OXAvxl9w7gS/3ZtanhiQ32gFs8629aD+g2AfwdgXY3ecrXo/j9D7ue/7JBv8x+f/jZ9482P7PveLGmIr5P+F21MYT2P8DeIHiXL388KyJ721tYxnn0jVie1Ekn0FX0mRs9/1I8zn4DYJSDZZ0PtQmPCmAql4kV+MB2oAmO8dpI7IOlADIKuGFU8GG5V2jHL69t4HRWaV9/x/2ZOPxk03X1ta3BPwPJl15l+xuTM6vHH6I2knkez598M++2HRfuD7AftiNvzfD/Nl7ZENAd6P8/43Elmh40E8vpQo/q1POPXBcg5eSezsji2o40jcx2ANB/PW9wfh/ggiYAvMtwDe92YDpxTDqIbXrbPjAfD7gbupi2+p7n+X4q2s0P6JtFO8qdhzp5/U+mraMdaWzT1zJMZXEpb5jZ809dl3+wCf0PJPK+SvAL6QaCTnKJt75hRv/PaiRHWksr244v8Y1fACsHmAajsHqCGyTtQAyCCb2zYUGmp6z9oWw4bZkTvsUlFnXLyyoptT/nx96cLHHqqgWS7LUWQamrmQAWLnnr4pK6PPgX0K+BhmG/X+TIqLYVbhe/auOsi1WiF/H3gnS+su9MmTl6adLDQDo+uMz0B8CjkOwVM9F2g9zN8HvA+AUkTvagG/nsh+z8rua6rpARbss8Bn007xplz9gcBf0o6x1uLi8fQ26BLUiGat3QdGP4U4WQMAGvoytyesIxXMW1tjK+SvIcx7pq1s1qwhPmnS8gC1RPqloh6QZIAU68cCI9KOUU4n7bV/NDhXOdv/b3ruad/nkp8XK+vhv4/xJev88dZpx5DaZvPn56yQ/z0rc8+C/Qz4IrBR2rnWYG+wcxhWetYKHR1WaK/0vGvF2toi6+o4mkL+b3j8vzgfpzLfD2yG2ddwfkNdw0LrzF9nZ89MeiK8VDhra6vDaUpY5kafOOWetflAb5pyM/DXhOOB09R3baHUNLs/UKGIhtJOgWqJ9EslfsGXMur74nRS2jnKaf3Bgxm36+iKeG33lHqv9/vUVZcUn1v6eqVMcb6NDSJaGehQG5HV67uGa9Wl5dVjOPgUsMeskJ9obW3V+HsAwDrz72dUw+24/wLYLe08/TAY41B85WoPdJMasmn94cA2yYrYWf36cLd3Pytg7WzDS//4fIA6UtHicFvDvFTTB3FL5aqIhyQZQC8/cRhmO6Ydo5yO23V0NLy+Ie0YPLz4Jf/QwF/vt26ccbqTVgZAtd84MQI4m1ENd9mcGVW1f9Nmz663rvxZGH8GDkg7zzp6wk+avjDtEFJmnnSSwp5h5PZX9euXLIsuBpJvMQl1QJxUrmIU7mwSY/1gtUT6QQ2ArIn9+LQjlFPOjIl77pvq69rdOe+R++P3XfbL4l8XLazwJ/83bcCw+Mi0Q0jNezztAIHsTRTdZV35L6UdZG3YnBk7U7fsdpxvQsJz1dN1Z9oBpLysMHM02EeSFeFnfSuO1lrvGR92UaJxex1ic/J7BKgjlaonWhyslhoAkhI1ADLEzu3YCvivtHOU0xd22Dnabv0NU3uD++LypX7ENZcVm26+trSsuDKtGOsoHpd2AqlxZrXSAABYH+c3Vsh/N+0g78YKZ3yEKPo/YJ+0syRnd6SdQMrMSkln0FcSFc9dp18Z288Sjg1gREwMUEcq1eTJy4B+NZjema8Xpo5I/6gBkCUr4mPBavqAmm+O3j+11/Tvnnw03ueSnxf/8PQT1TLr/zZ2sJ0zY/e0U0gt82rfArA6P7TOju+kHWJ1elcoxNcCG6edJQh3rQCoYXberI1xvpasCFd446kvrMsv7Ts08O5E4/c62ubmNwxQRyqQ915Z81qYapEaAJIKNQCyxKiK5arr6kObb20HjtpiwGf/X13Rw8Q/XVf68nVXlF7qrvLbXOLoy2lHkBpWWysA/s38R9bZPintGG9l58w4DOdXQH3aWQJZSc/ge9MOIWW0omccMDRRDfdzEv16I8QqgPUoMjZAHalcYd5rxnFNT8pJ5VIDICPsnPzeYLuknaOcJu19wIC/nu948Xk/6NILij97+L7Ku95v3agBIOVjNbkCoJfZGVbIfzrtGAA2Z8ZBxNF8YFDaWYIxHtB92bWr94Yia05Y5lGaWq5PVGFl96+BpQlzgNFs1X3ehry7MDP3FmolgUj/qAGQFTE1fcDbThsOt8O22WHAXs/FOOZHd99W+ugVFxX/8eorVbrkf7V2sK7296YdQmqTN057BajVU9xzwEVW6Ei10WpnnTWcyH5D0pnUSuNo/38tW/Tk54DtEtUwn9u3PHud+UmtrwIXJ8rRa2c62z8ZoI5UGJs1awi9/94HKGa61lRSoQZAZnhN3017yt4HRpENTLP970te8g9e/svi/9x1a1yq9Ov91kn02bQTSE2r3VUAMBz8F9bWlt7X1vqeAljt3S2t/f+1zT3p7H83JZ8XIgpxHGIbABhNQepIZakvhjvfwbUCQNJRl3YAKb/e0/9tt7RzlMvGDUP46nt2K/sbbnfn/L8/EE++7YbS0pXVdsJ/P7h/Cvhh2jGkZj0OvD9QreXAYqD7LT/upnf2ux7YEBhOqNmatXMgoxqagDkDOCYAdk7HocBRAzDUK8DfgL9jvAr++qpvZKONAHDfBPOReLQJ5psD27CuEw85NQBqlc2ZsTNR9ImEZS7xidNfCpHHJ06/wwrt94ONTlbJPmOzO7byk6Y+GyKXVIiouCMe6i2nVgBIOtQAyIIV/ula3ok2cc/3RsMGDS7rGAuWL/MJf7q2dOU/H6/FKf+328+62kb5hNYFaQeRmrS2KwCKwD+AB4GHcZ4mFz+H+9PUsZDl6y/xk07qWVMRm982mAWDt6OO9xBH7wM+ChxEeffHn2bnnv5bP/7UF8s4xiqsrS1iVEO+TOWXAtfi/r9Qut6bv/PMuhSx2bPrqevZBY93xvx9wAeA/Vjze5FX+deKR9ZlTKkCUTSepPvlo7grTJg+Fv0M99kJq+TIxccDPwiQSCpFnNsVC/RWMPaXwxQS6R81ALLA/NBaPYumPpejcfd9yjr7//t/Ph5PuPna0qLuZeUcppJE0PAxwuyDFFmV8fhqdunGwCPgfwH7C2Z/YeWQ+9bmAX9NfEzrCuDRvm9XA1jnGZuBj8MYD7510jFWY0NW1k0CWspQe/U2rf9vnNDnd/wDfCbd9ReEOICv78/z/r5vvwWwmTOHsZ4fgseHAZ9mdfvAjb94a2u1HbS6EHg67RBvynnyg+3KwGbNGkJD4hPz7/Px0/8vRJ43eXwhWAcwJFGdyMbZ/Pk/9DFjAt0bL6kzwp3zYtGjwWqJ9IMaANlwcNoByuXonfeINh0yrCzdjWXFlXz/zltKP33g7mp745mc837UAJByMHuc3rMzFmBcgfM7it239h2+NSC8ecq/gNNsftsZvNQwDue7wBaBR5lgs9tOH7DfV2zjw/V57RmM6YzY/uJyP7j45MlLgSv7vmGdHbsRxYeBfRVn394Pqsbl/3apN03VHvA1aVh5FLBxsiIedvYf8KaWxVbIzweOSVaIrVj05GeA3wcJJhXAPxyo0Ct9X4tEBpwaADXOOtvfg9lmaecoBwNOHr1/WWb//7LgBR97w5Wlx15ZkoUl///J+UDaEaRG2fKHYOiHGbndbWnPivWtDihYof1i4CdgRwcsvyGD6k8AzgxYc7Ws0L4DZh8PVG0+9Yzz46amcjiVN099GHgYONMKM0dD6dtgt6aRRQaCT0hY4DXqowuDRHk752dYwgZAb6FG1ACoCTZ7xibURQcEKvf3QHVE+k0NgFoXRe+jJk+qh8O23dF2HT4i6Ox/MY456/674ta/3FJaGWdv4v9Nxh42N79h37VtIsF4Y+sy4Ja0c7yVN7UsBo6xQv4vwFmEuiHH7WsMQAMAt89hQTL/nKap45JepRaKN02+H/hG2jmkPKzQvh/YgQmrXFiuZpU3T/uzFfIPA0kPUf6UzTlzW5/47adC5JIU5aJPE+wGNVcDQFKjawBrnu+XdoJyOWX0/kFP9n7qtVf80Ct/Uzz1jpuz/fDfK6IU75N2CJGB5E3TZuMcS7gH4Pfa3DN2DFTrnZknPUEdjHsY2T2hUh7+JQss+RaJiPMCBHln5iHq54iKxweoI2kzawxXLLonXC2R/lEDoNY5e6UdoRz23WSUfWSLbYLN/l/02EPxe+fPK976wrN68/sGt5p87Yi8G2+e9gvgtGAFS6Ujg9VaDWtri8CS70n16Ft9WyJEys7OOms48JWEVR708VPvChLoHdX9Egjx9+I4a2vTqtsqZoWOg8HDbY90rg1WS6Sf1ACofXumHaAcJu19UJDX7qLu5X7ktb8rjb3hqtLrK/Xed1VWk68dkTUaucMPgu07Nzs0SJ13MnK9rYENkhWxB71pys1B8oisjcE93wCGJqph8bwgWd6FT5i8APjfAKW2YNP6zwWoI2lxvhew2tN9552IpEINgBpm53dsAWyUdo7Qthy2nn1h+50Sv3b/+MyTvv9v5xV//8/HM7/ef7WMPdKOIJIGHzOmRGTHEmLmzznY5s4dlDzVO6gr7Rygyh8C1BBZK9Z7hm/Sw/+K1MW/CpFnLYTZZuB416/yAAAgAElEQVQ2PkgdGXDWlT8K88PCFdTsv6RLy5FqWbfvEO5aqMrxzdEHRIOidd/+v7y4ku/deUtp9gN3x1rv/662TztAVXE+Z4V8mZejDqAcX/DGaZVzj/kA8/FTHrNC/jwg6T7lYcRL3guU5yo79x0S1zAeCJBEZO10tR+C2a4Jq/zBjz/1xSB51mTkDtex6MlnwLdOWOlQO3vm9n7i5CeD5JIBYeeevime+2nYqq6mq6RKDYBaZmyXdoTQ1h88mGN33XOdZ//vXvgvH3vDlaW/L1msZ/81G2Wdbet5c+vraQepEiP6vtWGlXFD2hFSF9fliYrjSb5a7kDK1wDYgKSdXiu9FCaMyNoIcPif27zkOdZyqDFjStbZPg+zpEvAI3LFE4BTQ+SS8rO5bUMpNVwBbBKw7EusHHZ1wHoi/aYtALVtu7QDhHbCbntHGw7u/3NJyWNm/vXO+CNXXFTUw38/5AZvk3YEkbT0Xdv1x+SV4qTXiL0LWy9xiTinyQAZEHZ2xxY4hycss4hNll8ZJNDaiut+DgTYLmjHlnVLkARjbW11FBt+BRwUuPQv/aSTegLXFOkXfdGvZeab47WzB6Auijhxr/3WqWnVUypx5I672JE77jKgr/mSx3Tce0f880ceqM5zBkq2FfBQ2jFEUuM2H/NPJqxRzgbAkOQ398WbBYkisiY5Px5I9gDsftFA31jhJ05+0gr5G4CkV25uRnHJ4cBvA8SSMrHzO9ZnVMNvgE8HLl2kFHo7gUj/qQFQyzzokqXUjdlhl2irYeuvU0djaN0gtlt/wwHthjzz+qt+/E3Xlv70/DPVvOKgdpa0i6yLOv8jpcRVku53fhe+PHkNUwNAys7a2iJGNYxLXMhzFwSI03/GeXjiBgDgjagBULGs0L4D2KXAPmUof4nOgJBKoC0ANc1q6uHtpHWc/U/DZU8+Gu//2wuKVf7wD2oASMZ547SnMZ5NWGbTsi37dZYGqPLeADVE3t2mDYcCCbeV+f0+cco9QfL0V0P35cDLiesYH7ezZ+qQ3QpjbW2RdXWcDHY/5Xn4X475d8pQV6TfquaBStbJxmkHCOWjW25j+4/avOL3Myzp6eYb119ZOuq6K0qLe7rTjpOcWc28hkTWmfO3hBUiViwpz4qsiFcCVPmYzW1Ldie7yJq4BZj9Z17yIOs49NjWbtxDXD0YkSsdH6COBGBg1pn/HKMabsf9J8Cwsgzk3uETWv5Zltoi/aQGQC1zr5k3dKeMPqDiX6s3PPeU7zP//OKvH3+4Ovf7r1btvIZEEkjaAIC6eNMAOf6T2RMBqmxAPOS4AHVEVsvmnjkSPOnhfyuJ6i4MEmhdWd15gSqNtbY2bcNNkZ3fsb4VOo6lkL8H4/fAAeUbzZ+irqejfPVF+qfiH6okAWNw2hFC2GX4Rvaprbev2Ndqd7HId+/8U+mwq+YXn1+6tNqX/K/KrCZeQyKJmCdvAMRlOpPF48fC1PHTrat9uyC1RN6uVPo6JHxPYlztEyYvCBNo3XjT5Ptx7gpQagtGNnwmQB3pB+tsW8/m5A+3Qvs8evwF8PMpz3L/t3Iib/bG1mVlHkdkran7WNOsJq6ambT3gVFklbn6/+HFL/kx1/9v6b6XFtbWg/+bvD7tBCKpK0VPESX8K+42JEyYt3mx52lGNSwBhiestD7OPJs791BvbFwZIprIWwRY/m/zkscIwPw8sP0T14k4AbgieSB5JzZnxgjMDiCKDsD9o1jDB3snxwb0PeVpPn761QM5oMiaqAFQ26q+ATBqyDC+8p7dKm72393p/Nu9ccvtN5V6SsmPCK9YXhurSEQSsfjVxG8YzRvChFmVt7bGVsjfBByRvJp9hNLii23u3KPUBJBQbM6Mg4iiPROWWUhu+FVBAiWVs19T4kwg6Ra5T1nnaVt783eeCREra+z8jvVZyoZENooo3hRnE4xtgO0wtsPZgSjqPWzR05qjsWtYsLw1pcFF3pEaALWt6t/ANe+xTzSkrrL6GM8tfc2Pu/EPpRufe6pGZ/3fwhjQu5ZFKpL7KyRehWTlW03j9kfMAzQAAPgCpcUX26xZX/dJkwJcMSiZl4vGkfyr5cWV0pTyxmmvWCF/GfD1hKVyRIOOA9oCxKps8eLbrZBf11fBRn3fD6e3E7sBkAP6nmL6yr71n+jKeHf2GIMHfc1bp9bQuVBSK9QAqGm+coCXOQXVkKvj+N33qajZ/8uefDRu/tN1pZe7s/K+2HrSTiCSOqt7FRK+hzMv32qaUmk+ddGZQKhVBl+gYcUDdk5Hk4+f+sdANSWDbObMYQzjqMSF3H8ZIE5AfgFY0gYAOONs/vwf+ZgxNbyUEHD2TTvCgHIeIbaP+7hJya+NFCmDinq4ksC8umdvv7HLntGoIUMrooPx6ooejrvx6tJR112RoYd/wL2qX0MiQZSWJT+8yct3kImfNH0h+PzAZXck9uuskL9Qd5bLOhsWfwlYP1EN5xFvbvlLmECBLOi5AXg6eSHfmpcf/2TyOlI57EEGlz7qJ059Pu0kIu9EDYBaZla1J44acOJe+1bE6/P2F5/zAy+9oPirR/+WwWVc1fsaEskUizuAcswifpVc6e9WyJ+rRoCsg+SH/2G/Sl4jLG9tjbFAqxLi6IQgdaQS3EEud4gff+qLaQcReTfaAlDbFqUdYF19drv32C7DR6Q6+78yLpG/947SaXffFpdSO0AmdS+lHaBqGPN8wrRj046RNQbG7BkjyeVGgo/AbCQeD8H6Zh3dhmC+vO+DXyK2FzF/niE9z/vY1u40s4fkE0590Aod54E3lqH8IGAcudIx1tl+CRad7U1Tby/DOFJDbO6MXSH6QMIyThRfGCRQaJa7AI9PJfley8/a2R1baMa4qjnwE0Z2T/MxrVo5KRVPDYBa5rxcrUcATBq9fy7N8R9Z8pJ/4/orS/cuWpDZJ38A3Ku2iSS1xebOHUT88p7E0b6Y7wn+HrAdge2pixr+feqTs8qBffbm//R+yBs/Xt6AFfIvgz+LRX/D4/vA7sf8YSa0POWVcoxUfxRL3yUXHY6xaZlGGITZ18C/ZoX83WBz6B50sQ4LlNUq5Y5L/NfIuMUntPwzSJ7AfPyUx6zQcRt40iZHHTkfC5weIJYMvCVgx3rT1MvTDiKyttQAqGWRL8KrrwOw/6jN7IObb51KcHdnzt/uiU+9/U+l7lIxjQiVZnHaASSbbNasIQxd+UFiPg5+CLAP2GDsjQeKIP9EbAy2Me6jwb4CgBsU8q8bPIzzABF3Ujf0ocSHAA4AP2n6Qus643g8/j3lPwF2P/DzaVgxy7ryl0B8gU+YfmuZx5QqYXPnDsL9mMSvwpiKW/6/qngeWNIGAMDx1tbW7q2tlf8Pjfybcwl1TPHGqQHOgxAZOGoA1DK3F9KOsC6+tfeBqez9X7B8mTfefE3p6qf+UX0zf2UT6X5iGTA2a9YQ6ns+j/FVGuy/iIOdat9f6wEHYByAc1w1PPy/wSdMudIKHR3g0wZoyA1xToDoBCvkHwUuoGTztJw54+KXP4tZ0pUo3ayoD324ZVjFnkuoa/gJMDRhpe3ZbMjHAd26UR3uhmiSN0+5Je0gIuuiIg5ZkzIxezLtCP21zfrr2xHb7TTgr8vL//lYvPcl5xf18P82yyJ1taXsrLNjN+vKz6VhxYuYXQz2ecJdaZc9TVOng/0mhZF3Bk4j509ZIf87K+Q/bW1tep+RRW7JD/8zrvRTTlkSIE3Z+Emtr+L+uyDFYnQYYMXz+zE7hgXdB3qTHv6lemkFQC2L/alqOwPgm3sdENVFA/d+8bUVPbTcfnPpZw/fVz1TfAPFeNEnT16adgypXdaZfz/GqRiH4dX2r1XlcnDLDT+a0hLAv5xChDrgCOAIRtU/ZV0d51HkPK0KyAabe/rmkEt+tZ1bmFP2y82YB3wteSH/vM2ZMcInTtfhu5XFgWvAf+xNLf8v7TAiIagBUMvq6v9BqSftFGttg8H1HLPLHgP29H/ngud97A1XlR5/ZYlm/VfHvepWkEh1sLn5bSiRx/gy5d+rnkne2LjS5s//GoueWARMTC+JbYv7/5Dj+9aVv5xSPNMnTr8jvTxSdqXo6yR/f7mIkcuvCRGn7Bb03MCoIc+Ab52wUj1R9FVgdohYktijwCXk4gu9cfojaYcRCUlL82qYN57yAlV0jdv43feONhxc/lW/xTjmR3ffVvrI5RcV9fD/buzBtBNIbTEw62r/NiUeAY5CD/9l5WPGlLxp2omYjwPSvvKwDudIouh2K+RvsULHEdoeUKtsbPISfkm1XKfmra0xFv8iUDldJZuuh4DTidjHm6bt4k3TvqeHf6lFWgFQ+x4EPpJ2iDUZFEU077lv2d8MPrrkZR9741Wluxb8Sw/+a+KuBoAEY3NP35xi7gLMDk07S9b4hJbzrTDzLij9Atg77TzAB8E/yKiGx6zQ/mOG9Mzzsa1pNygkAJsz4yCiaPfEhTyqjuX/b7DcBXh8Ksmbmu+1zjP28eYpfw0RS96VAw9jfhPYzcTRn7x5yr/SDiUyENQAqHXGA3jlNwC+/J7doi2HrV/W2cCLHnsonnjLdaWlK1eWc5jaYf5A2hGkNljnGftguT9gbJZ2lqzypsn32/y2A1lYfypm06iMQxZ3AiuwvOH71tl+BnU953hj67K0Q0kCUW5s73NVIo/RNLWqton4+CmPWaHjNvAAVwKWjgW+mbyOvMUrwN9wHsB4AKIHGVz3gI+b9HLawUTSoAZArXPuSTvC2vjm6P3LNvu/sHuZj7/52tKV/3xcs/5rLyYX3Z92CKl+VjjjQ1j8v8CGaWfJur4l1T+wQvsvMPsxzuFpZ+qzOWY/Jm74lnW2T6W55WIP8BQpA8vmtTVAw1EBSv2qKv/83S/ASN4AMPuazZ491U86qXoOcUrPEmAxxmJgMc5C4HnMnqLkT0H0DHHxGT9p+sKUc4pUFDUAap7fVunbbD+x1Xa294hRZQl53TNPeuPN1xSfX/p6OcrXLucBb5z2StoxpLr1nfJ/LTAk7Szyb97U8gRwhBU6Dgb/IfCJtDMB4GyF2UV05SeY+7F9OaVadDccAQwPUOnrVsh/PkCdgWXB/p0bQW7554DfBqqXvjg+mMiK614geh3i3uWbg+KlrIxW0NSypCobRSIVQA2AGudNLU9YV/4FnM3TzvJOThm9fy50zeXFlXzvzltKP33gbl3vty4ibk07glQ3O3vm9uT4HXr4r1jeNPV24NDeLRreBP41YFjauXA+DHafFdoneVPLuWnHkbXkjA1UaadAdarZsdRSA2DQiHu8sVH7L0UqhE7gzYKY29OO8E523WhjO3Sr7YLO/t+14AU/4NILinr4T+S2tANI9bLOtvXIla4ERqWdRdbMm6f81ZumjifHlsDJwMNpZwLWA/uZdea7bO7cQWmHkXdnszu2olJWktQC80/a2R1bpB1DRGqTVgBkgfkfwf477Rir8+29D4rMwjz/F+OYs+6/K279yy2llbGe/ROIofumtENINaufASQ/CXztLKD3tpMnged6f2zP4b4I8+XE1k3kywHI5YxS6Y0lyhsR+WA82hr3bcG2BbYDdgFGDFD2itK37We2wdl0dnyUyJv7zglI7wHcGE9p8U7W2Xa4N7dqL1elqvNjgOCr+TIs1/c5bU87iIjUHjUAssDq/4BX3nW6o4YM48s77hpkFcrTr7/qY2+4qvTnF57VfrDE/C6f0Log7RRSnWxO/sNE1lzGIVYA1+J2BXF0g584+cnQA9jc0zfH6/bEfT+cI4ADqfTDVAJycJqn3gjcaGd3bEEdJ+B+ArBlSpE+BkOus7POOsxPOWVJShnkHVjv341vpJ2j5jjHGuS1z11EQlMDIAN8wqTnrJB/iIGbkVsrJ+61b66hLvlL8KLHHopPvOWPpddXVl6Toyo516YdQaqTtbVFjGroohzby4xncf8pcK43tSwOXv8tvPHUF4AXgD8C7TYnvwcRD5ZzzErlJ059HmiztrbT2LT+cNxOBD464EHM30d9z+9s7tz/0l7iCtM14/0Q7Zx2jBq0M10z3s+E6TqTR0SCUgMgO66gghoAQ+sGccJueyd6SFjUvdybbr4mvuKfj2u9f1C5/007gVSpUUM+D75b4KqLcH7EyO5C3zV2Ay/ufoaoIZWhK4W3thaBS4FLrev0PfG6ieBHM7CHBn6U0pKfAk0DOKasiefGapK6TDw6FnQor4iEpUMAsyJXWafJjt1lz2hEw7ofDn79s//0/X87r6iH/+Ae9eYpf007hFQrnxK2nl3DoNKe3jztJ6k9/Mt/8AmnPuhNU5vIsSXu3wJ7ZiBHt0JH9V0RV6NsbttQ8C+lnaOGfclmzkz/Zg4RqSlqAGSEN057ALwSTnYmMuPk0fuv02uvu1hk8m03lA67an7x+aU6D6oMLkk7gFQnK8wcDbw/WEH3n7Jg+Wf8+FNfDFZTgvLGaa94c8sscsN3xP1YnEcGaOROm922wcCMJe8qHvJFQH8W5bM+w+Ij0w4hIrVFDYBMsflpJwA4fLv3RDtsMLzfB2r97eVF/oHLf1n86QN3x1psWCZeGa8RqUalcLOybmd6c8s3vbVVK3yqgDc2rvTmlnks7N4Dty+C31/mIbckVz+5zGPI2nAfm3aE2hcfm3YCEaktagBkiQ3+OXgp7RiT9j6gX6+72J05D94TH3TZL4oPvLRIz/7lYvyfN0+tiFUiUpU+G6jO5SxcPjVQLRlA3toae/PUy1jQ817cjy3r1gCzk+2ss4av+QPXQVwK8XWm5s9YsjlnbksaB0Jmjn3YCu07pJ1CRGqHGgAZ4hMmPYdZqie8HzBqczt40y3Xevb/mddf9U9eeUlx0q3Xl1aUUu9d1LaY89KOINXJCu0bAQckLuS8SK7uBM38V7feRkDLPLoH7YIxHVhehmE2ZHDP8WWoC9Qlv2XABvRwxHRY6evofeRAMCw6Ou0QIlI79A935kTnpjn6lPcetNavucuefDTe/7cXFG9+/mnN+pffKyzLXZp2CKlWuT0J8fXE/Pve+O1FyfNIJfBJk5b7hGntRNHeGH8KPoB5eR6KPA5wzaAPTV6jwpkfk3aEzHA/2qDfWydFRFZHDYCseXHZ1cDjaQy9/QYb2Oe23XGNr7lXVnQz9oarSkddd0VpcU/3QEQT41yfPHlp2jGkSlkc4orRV1lad2GAOlJhfPyUx3ix+5DeGwMohqtso63r9D3D1esTWfKMXtsrAOycGe8Ddk47R4bsSOGMD6YdQkRqQ83vUZNVeWtrbIX2n4L9dKDHPmX0gVHO3v35/8bnnvLjbry69NzS1zXrP2B8JXXRnLRTSBVz9khexK5VE6p29W3rmGVd+YdwLgcawlSu+xjwYJhab4hXJp5sdavpBgBx7hgI8mX6KrBlIQpVJHPD+SJBZu/9GOCW5HVEJOvUAMiiXM8vKDV8Hxg5UENuVN/A0Tvv8Y5P/93FIj+657bSzL/eGceuZ/+BZb/x46c+m3YKqWa2WeKHAfc7w2SRSuYTpl1rc/JHEfE7QjwUxf4BIHBDO/c6JDyGwmp3C4DNnl1PnX85QKknaZr2OQ/USahUVsjfSpArUn2MzZp1sk+aVI4zNUQkQ7QFIIO8sXUZ+E8GcswJe+wTrTdo8Gp/7uHFL/mHr/hVsePeO/TwP+C8BJZPO4VUvfUTVzB0A0VG+MRpVwCzghQzDgxS562GLlsSoEryvxOVqm7p54GNEtcxv6jWH/4BMPt1oEobUt9zRKBaIpJhagBk1dK6szFeHIihBudyNO2x73+81rzver8DL72g+NdFC2v/TUBFsgu9aerf004hVS9AAyAO8dAl1aLefoAH+Rq0lc2dOyhAnTf52NZuIOkBNFvU8KFtYQ7/M78oSJ1KV1ecD4S5xsgiHbwoIompAZBRPnnyUjw+cyDG+up7dos2GzpslTdCzy19zT911fzipFuvL/Xoer+U+EoG5U5LO4XUAk++39mi1wMEkSrhx019DeOcAKXqWPHqVgHqvF3ShlQD554+KkiSCmJdM0eBfSpAqXt9/PSHAtSpeH78qS8C1weqdqjNPX3zMLVEJKvUAMiyISu6cH+y3MOctNf+q7zOLnvy0Xi/315QvPG5pzTrnyazc/z4yWX/85dMWJG4glt9gBxSTaL4N0Hq1K3cIkidVVjy6yhLtkOAIJXF468S4vwo84zd+GEXByqUo5j7WqBaIpJRagBkmI9t7caiaeUc45PbbG97jdjEAF5d0cPEP11XOuq6K0ovd+sMm1QZL1OKNfsvoQQ4vT9eL3kNqSZ9M8ALEheKy3LifvKDUT3aJ0COCuPfCFAkphiF2hdfHXJ+Gcm3lfQyC/FnICIZpgZAxnnT1MuB/1eu+qfstX8O4I4Xn/cDL72g+LOH70t4tLIE4f59nzj9pbRjSK3w5A0Aj7YOEESqjfFI8hpR+BP3zZ8JUOW9AWpUDCvMHA0kb2oYN/qJU59Pnqh6eOO0V3D+EKjanjbnjH3D1BKRLFIDQMDt2+A9ocvuNWKkfXiLre1Hd99W+ugVFxWfePUVLfmvBO53MXLH89KOITXEoteS14h3CpBEqo2TfKm9x+G3j3iIFQB8JECSyuFxmAPo3DK2/L+PebhVD7lAfxYikklqAAjePPVhnI7QdQ/bZkf70OW/Kv7PXbfGJV3vVymKkGv2MWN08qKE4/E/k9ew9yUPIlXHKSauEeUCbEH5D08EqLGznT1z+wB1UmdtbXWYh9h73t23HD57uuuvBJI3SwGcr4S+/UJEskMNAOm1sCcP/C1kyZl/vTO+Z+ECPflXEvOZ3jzlr2nHkBpjPB6gysE2c2Y59nJLZUt+n7wHeqh6K/MwXw+j0pggddK22eD/AjZLXMe40hunvZI8UPXxSZOWg18eqNwoSks+HaiWiGSMGgACgLe2rsD8OEKc5t1Hs/4V5yGW189IO4TUoJKFaAAMZWjpiwHqSDUxdklcwwn/QNnQ8zAh7m43xhnYmj+wwsU5Lf8PwgIefujaBiAi60QNAHmTT2i5F/fWtHNIWXST4+jeGQiRwBoGPwgkP+Az4pvW1qavSxlhne3vAbZJWMZp8H+EyLNK0bGt3UCIujtT6Dg8QJ3U2FlnDQcP8XtYzMjlVweoU71yG/0/CHDuRa/P2nmzNg5US0QyRG+0ZFULe2YBN6QdQ0Lzqd447YG0U0ht8nGTXgbuT16Ifdl0iO64zoqIsQGqPO/HTQ2/BaDXrYHq/NDa2uoC1Rp49d1fAhqSF7L5PqY12CrDauSNjSuB+YHK1dOz8qhAtUQkQ9QAkFV4a2uMdR8D/lzaWSQQ90u8qaUr7RhS44wbg9Rxn22F9h2C1JKKZV2nbYnbiYkLOQ8FiPMOtf3aQIX2ZJP674aplYYozFLz2DO+/L9PzMXBapm2AYhI/6kBIP/BJ7QuwKIvl+NqQBlwD7KsbnzaISQDnD8GqrQh2DXWedrWgerVPJs9u94K+auts32szc1vmHaeNbF5bQ1QdxGQPGtUxhVr9fV/JMQ5AABm37HOji8EqdXfodva6vq2W/T/13a2vwf8/QFiPM2i7j8HqFP9FnX/GeyZQNUOskJH8nM0RCRT1ACQ1fIJU+8EJqWdQxIwXiYXjfHJk8txRZbIqhZ0/xF4PlC1nbBBt1rhjA8Fqlfbotf3AT6N2c8p8S/rys+3rvb/ttmz69OO9nZ21lnDWd5wOc6Hw1QMNUu/msrjJr2MBdsGUIf5xdbVflygemtk55yxk3XmZzCq4WnMfr5uRexoghxiaL/21tbk54TUgL7PQ7hVADoMUET6SQ0AeUfe1HIuxqy0c8g6WQH+VW+cEvxwLJHV8dbWIjAvYMWtIb7RuvJzreu0LcPVrUFRdOBbftSAcyRul1G37F9WyJ9rXe0fq4TDFa0z/znqe+4FPhmmoj/FhJbyXmvqdn7AaoNwO8+6Oi6y2R1bBaz7Jps1a4h1dRxthfabiOO/Y7QAmwMH9Lch1Hd7wdFBgpW0/H8VUcjPhx1dCX+/RaR6VO+hNDIwJkxrodC+OZgOmqka7lg03idM02GOMsD8PLCphPvaksM5Aeq+YV0dl4JfQEP3zX0ntMu/HfgO//9wYBxu4xjV8LwV8pcSxdfw2qCbB2plkM2cOYz1Sl/H7USMPcNWj85xKO99s7nl8yk1/IQQ2xXe4P4V6jjcCvlf48xjkx3+z8eMWeetBtY1cxRe+gTuh9Fgn8EZvppJ+3pyyw4A1n4ZfuGMDwPbr2uuf/P7/cQWHUL7Fj5+2n1WaL8fbHSAalszcsghwPXJa4lIFqgBIO/Kwa27fjwNKzYHPpJ2HlkbPt0nTNVsiww4b2p5wgod54M3Bi49GPevAF9hecNSK7Rfj9nVxH4PdfaoN04Leg+8tbVFbDxkCwb5HsTsTd2Qfcv9nJnQQWvxMVsAJxFHJzGs1GOF/G1gd+HxQ+SiB7HlD3lj67KkQazQvhGx7UXERzE+zDDehzO0DJ+/Hiw6L3TRt/PG1mXW2X4BZicHLj0UGIcxjkVPLLZC/nac+3r3hseLiexlsMV4XCL2OiJbH2wQ2CjMNwc2w9kV2IveP1uwNazUj/gg/WkAeHxMiMX/uOnr0eq4/RLjjCC1Ij8GNQBEZC2pASBr5JMmLbe5bYdTargS+GDaeeRdmP3QJ0z/cdoxJMNKtJHj6/Q+4JTDMLDP43weMyiBFfIvAI+ALQBeAX8d8+U4b7kezjYAy735Q/fhWN8Tk7kRMxJjU4xtGNWwKfggnL6J1Mp9+O+7B7y/B7zVA4eAH4IZxA40YIX8S8CL4AvBngN7Hec1jGLvobDe1yCw9XofRn0DjDrcN8dsW5xtwTZ4c3NhWT9tdpZPmLygnCO8qS5up5Q7nvK9pjcCPo3xad540Tm8+d/RW5/CE6x5cP/A2n7o/2/v3mP9rus7jr8+v0Npi8wFrUxRJ+JcnEAMiZcAAAz4SURBVGKiThPHVLYYweG8spoZNTNe6jkHamCjPQWSnVSn4wCLJJXCTvyDZU7/cHPihXndnGxzRuNQcWZzzqIBFNuuyqWn5ZzfZ3+ciqgtvX17vqe/z+ORnNCkh8/n3dPT9vye5/v5fsvs5pNSVv3BEe70YMNk/gMdrDN6huX9GatXJBk76Pse3Pll6+YL6uT0PR2sBYw4AYBDUtdN31eu2fyqrFz1ySTP7Hse9qPk3XV84zv6HoO21Qs33lGum3lnkncu4baPWXx70Cujur9vXT7o5x/8wv6BF/pZzq/19+/+vc9JJzdpS5I8cvHtQR+Mn1n5516IPvCfstQftzuzcuk+v+q6y+4s1125JalTS7XnsVHOKkk5pIQwXP3KpD786PesN9fJy7u64/1IqRduvKNsnfnHlLyog+UelrL6/CR/1cFawIhz0xAOWb1oelf2zJ2bki/0PQu/4Ko6PnWcf3HKyFhzxkwO51JjjkI50Pn/UVWTMlnfuPHug79rl4YzSe5c2j0794hcO/PUQ3rP2tGd5V3+/9AG5a+7W8zTAIBDIwBwWOpF07tyz9h5ST7T9yw84O11YuryvoeAn6hr1y6k1Ncn2dX3LCOv1kM5/z9CytV1YuOHl3rXOrHp/5K8Zan37dzYwY/x7Xvqxgs72G1PSv3bDtYZXcPdf5+kqxty/k6ZnfnVjtYCRpgAwGGrl1xyb1bPvSrVP+z9qven1nV1YurP+p4Efl4d37QtGbwsye6+Zxlxz+l7gCVTy025a/dlvW0/MfXxpLy3r/07cSj3Aahjr0sX59JrbtoXTjiAxTP79UMdLTfIfOnmsY3ASBMAOCL1DdNzmdz02pTizHkfSu5Ozfl1ctMNfY8CB1InNtycMnh1kvm+ZxlF5borzkhyat9zLI3yiZy0+/w6Pd3v59Lq3euTenOvMxyVcgg38h28rpOtOn3W/QireV9na5X6R6W7e4IAI0oA4IjVpNbxje9IresW7xDNkqj121nIC+rkpk/0PQocTB3f8LEMhi9PssRnthtQm/nu//syv/oV9Q3Tc30PUt8wPZcTV74iyX/2PcsReuK+S/z3q/zllc9O6pkd7LMrq/Z8vIN1Rt+jnvTZJHd0tNqTc92VjR0LAg6XAMBRq5Obbkgde36SbX3PMvJKbkrJWfWCqW/0PQocqvrWS2/KQn47/o7o1qCM+hf6e1PK+jox9fq6fv2yicz1TRfvTJk/J8ktfc9yRIZjB74KYNjVzf/yoeUQbI4Hde3ahSTv73BFNwMEHpIAQCfq5IZbMjZ3VpJP9T3LiJpPzZ9mfOqVzlRyPKoXTn09Y3lGkuuSDPueZyTUkX4CwJdS6nPr+Mb39D3I/tTxy29PnXt+Uj/W9yyHrZT93gegfHDziUle08keLv8/TGMdPg0gf1i2bFnZ4XrAiBEA6ExdN709E1MvTepkkvv6nmd01NtShi+qk1NXHNLzm2GZquumflQnpiZT8/wkX+x7nuNf/XFGL6ZsT3Jh7pp7bh3f9B99D/NQ6uT0PVnzpFek5NIkx8t3uxcO+DPbV5+XZE0He9yeH+z5XAfrNKNOXPK1JF/taLlTMrb7pR2tBYwgAYBO1aTWiU3vTVl4Xmpn/5g1qtaU3JC7B8+q45f+a9/TQFfq5NS/1Ymp56bkxUnxuX2E6sTUeanzpyd1U1K/1vc8R+n7KfWS3Dt2ep2YurZOTx8XYaOuXbtQx6euSMozUvL5vud5CLen1ndkLGfUiam37fc9ameXjn/gePn9W1ZK7e4qgOIYAHBgJ/Q9AKOpjl92a9m8+bdy6qqJJG9P8rC+Zzqu1Pqd1MGF9YKNn+57FDhW6vjUJ5N8smy96hkpwzcmeW2SR/Q8Vhe+m1puTcnXF1+Yj92aEx7+zWOxUZ28/HtJZpLMLD4VoLwkye8nOTvJcr8MeCEpn04d3pCT9tx4PJ8ZrxMb/yvJ2eX6mXOTXJaaF/Q9U5L/SfLh1NyYR53xhX1nzferzP7FmpS8pJNd68Dl/0difvCBjNWZdPEIxuTF5fqrT63jl9zVwVrAiBEAOGb2Pa5pS5m96qYsLFyTlHP7nmn5q3uSck32rHxXvfhiz09fKqV8NMkvH9Uaw3ypm2HaUyc33JLkbWXLlg0Zu/fslPJ7Sc5L8us9j3Ygd6dkW2q2JfveatmWMrwte1Z9u1500a4+hqoTm/43yZYkW8rWzScnq89J6ktS8rtJntjHTPtxT0o+m1o/kbLw0Tp++e19D9Sln0atmbNSsjbJy5KcsUTbzyfli0m9KcPceFg3i10Y/kZSbjzqCWrdue/PM4epXrjxjnLdzExSntzNivNPTXJ0AaDkG6nlg0c9yimnuCJkKZX6lWRwdL9vpd7b0TQsQ6VWR4pZGuXad70wg7Grkzyt71mWqY9nxdgf1zdf8p2+B4HloLznytMylmcn9TlJfjOLQeAJOTbx+t4sfrH8g6RuT8oPU/ODpN6VwWB7hsMfZqzcmRNO/F5908U7j8H+x1TZ+s7Hp5xwdpKzkjwlix/LAz4OriN7k3wrqV9JGXw5w/rlPGruy3Xt9N5jvO+yUq6deVpKOTslz0ypz0rNmUlO7GDpO5LcmpJbksHNGd73uTo5fU8H6wIwwgQAllSZnV2RhZ1vSs2mlHJa3/MsE/+SDKfrxKU39z0ILHdldnZF6o9Oz0J9XAb1V5KyJsPhmpTBqpThL6UOfi4O1PuS8pNHyP0ope5KsiMLZUdK2ZEThjuTue113XRzNy4tWzefnMHKJ6cOHp/kkclwTVJOXfxxOTmpJ+Wnxwgenp+9NHnf00jqXJIdqYPtKdmR5Pspw9uysOLb2X7P95wF/0VldnZF7r/7tIztfVwyeGxqOS2ppyRlZepwdcpg1QPvXIdzKYPdKdmdOrwztdyZUu/IsG6rF1y6o8dfBgDHKQGAXpQbNq/K7lVvSeqGpDy673n6Uf89ydvrxKbP9D0JAAAw+gQAelU2bz4xp656dZI/SRtHA4ZJ/iHDhffUCy77bN/DAAAA7RAAWBZKUnL9zDkZ5s0p9bykrOh7po5tT/I3GQxm61s3fKvvYQAAgPYIACw7ZetVj05ZeH1SXpPkzL7nOXL1/iSfSfK+zD/sI3X9+j0H+z8AAACOFQGAZa3M/vlTMl/WpuTlSZ6elNL3TAcxl9R/Ts3fZc+ej9SLp4+7u4UDAACjSQDguFFmr3lMFvaek9RzUvK81Dym75myeKb/myn5pwzrp3LCns+3eDdxAABg+RMAOG6V9179xMwPz9r3jPAzU/P0JKcc213rbUm5NaV+NbV8MXvmvlAvmt51bPcEAAA4egIAI6Vc/+7Hps79WurgCRmUJ2Q4PD2lPCKpj8zis61PyeKzrFckOTmpNSmLL+BL5lKzMyU7UuvOpHw/Nd/NWNmWZFv27v7vun76x7394gAAAI6CAAAAAAANGPQ9AAAAAHDsCQAAAADQAAEAAAAAGiAAAAAAQAMEAAAAAGiAAAAAAAANEAAAAACgAQIAAAAANEAAAAAAgAYIAAAAANAAAQAAAAAaIAAAAABAAwQAAAAAaIAAAAAAAA0QAAAAAKABAgAAAAA0QAAAAACABggAAAAA0AABAAAAABogAAAAAEADBAAAAABogAAAAAAADRAAAAAAoAECAAAAADRAAAAAAIAGCAAAAADQAAEAAAAAGiAAAAAAQAMEAAAAAGiAAAAAAAANEAAAAACgAQIAAAAANEAAAAAAgAYIAAAAANAAAQAAAAAaIAAAAABAAwQAAAAAaIAAAAAAAA0QAAAAAKABAgAAAAA0QAAAAACABggAAAAA0AABAAAAABogAAAAAEADBAAAAABogAAAAAAADRAAAAAAoAECAAAAADRAAAAAAIAGCAAAAADQAAEAAAAAGiAAAAAAQAMEAAAAAGiAAAAAAAANEAAAAACgAQIAAAAANEAAAAAAgAYIAAAAANAAAQAAAAAaIAAAAABAAwQAAAAAaIAAAAAAAA0QAAAAAKABAgAAAAA0QAAAAACABggAAAAA0AABAAAAABogAAAAAEADBAAAAABogAAAAAAADRAAAAAAoAECAAAAADRAAAAAAIAGCAAAAADQAAEAAAAAGiAAAAAAQAMEAAAAAGiAAAAAAAANEAAAAACgAQIAAAAANEAAAAAAgAYIAAAAANAAAQAAAAAaIAAAAABAAwQAAAAAaIAAAAAAAA0QAAAAAKABAgAAAAA0QAAAAACABggAAAAA0AABAAAAABogAAAAAEADBAAAAABogAAAAAAADRAAAAAAoAECAAAAADRAAAAAAIAGCAAAAADQAAEAAAAAGiAAAAAAQAMEAAAAAGiAAAAAAAANEAAAAACgAQIAAAAANEAAAAAAgAYIAAAAANAAAQAAAAAaIAAAAABAAwQAAAAAaIAAAAAAAA0QAAAAAKAB/w/iRyfuW9D9FwAAAABJRU5ErkJggg==;" vertex="1" parent="1">
          <mxGeometry x="1218.75" y="570" width="166.5" height="60" as="geometry" />
        </mxCell>
        <mxCell id="8zym2SyQiBGokuH-IQ6u-77" value="MODEL CREATION" style="text;html=1;align=center;verticalAlign=middle;whiteSpace=wrap;rounded=0;fontSize=18;" vertex="1" parent="1">
          <mxGeometry x="775" y="810" width="210" height="30" as="geometry" />
        </mxCell>
        <mxCell id="8zym2SyQiBGokuH-IQ6u-78" value="DATA FETCHING" style="text;html=1;align=center;verticalAlign=middle;whiteSpace=wrap;rounded=0;fontSize=18;" vertex="1" parent="1">
          <mxGeometry x="211.24" y="810" width="210" height="30" as="geometry" />
        </mxCell>
        <mxCell id="8zym2SyQiBGokuH-IQ6u-79" value="DEPLOYMENT" style="text;html=1;align=center;verticalAlign=middle;whiteSpace=wrap;rounded=0;fontSize=18;" vertex="1" parent="1">
          <mxGeometry x="1275" y="810" width="210" height="30" as="geometry" />
        </mxCell>
        <mxCell id="8zym2SyQiBGokuH-IQ6u-81" value="df_channels" style="swimlane;html=1;fontStyle=0;childLayout=stackLayout;horizontal=1;startSize=26;fillColor=#e0e0e0;horizontalStack=0;resizeParent=1;resizeLast=0;collapsible=1;marginBottom=0;swimlaneFillColor=#ffffff;align=center;rounded=1;shadow=0;comic=0;labelBackgroundColor=none;strokeWidth=1;fontFamily=Verdana;fontSize=14;" vertex="1" parent="1">
          <mxGeometry x="320" y="660" width="160" height="80" as="geometry" />
        </mxCell>
        <mxCell id="8zym2SyQiBGokuH-IQ6u-82" value="2.010 entries" style="text;html=1;strokeColor=none;fillColor=none;spacingLeft=4;spacingRight=4;whiteSpace=wrap;overflow=hidden;rotatable=0;points=[[0,0.5],[1,0.5]];portConstraint=eastwest;rounded=1;align=center;fontSize=14;" vertex="1" parent="8zym2SyQiBGokuH-IQ6u-81">
          <mxGeometry y="26" width="160" height="26" as="geometry" />
        </mxCell>
        <mxCell id="8zym2SyQiBGokuH-IQ6u-84" style="edgeStyle=orthogonalEdgeStyle;rounded=0;orthogonalLoop=1;jettySize=auto;html=1;entryX=0;entryY=0.5;entryDx=0;entryDy=0;fontSize=14;" edge="1" parent="1" source="8zym2SyQiBGokuH-IQ6u-82" target="8zym2SyQiBGokuH-IQ6u-41">
          <mxGeometry relative="1" as="geometry">
            <Array as="points">
              <mxPoint x="520" y="699" />
              <mxPoint x="520" y="640" />
            </Array>
          </mxGeometry>
        </mxCell>
      </root>
    </mxGraphModel>
  </diagram>
</mxfile>
